{
.appVersion = "3091";
DisplayStrings = (
"ooooiooo\012nnnnininnnn\012oioioioioi\012oooodooooo\012",
"ooooloooo\012ololololololo\012lelo\012oooooeoooooo\012oeoeoeoeoeoe\012ocooooo\012ooocococococ",
"ooooododod\012obidadannnnqnoo\012nnnnnnqlnnnnnnnn\012oooooohoorooooolo",
"oooovoooowoooon\012nnnnnnveneno",
"Ñ",
"niñoñin",
"OOVOOv\012HHHHVHHHH",
"bEeHIiln\012OóPqTv",
"OOOLIOOOOD\012HHHHHLHHHH",
"ooooooo\012oooioooo\012"
);
customParameters = (
{
name = panose;
value = (
0,
0,
0,
0,
0,
0,
0,
0,
0,
0
);
},
{
name = unicodeRanges;
value = (
0,
1
);
},
{
name = blueScale;
value = 0.037;
},
{
name = glyphOrder;
value = (
.notdef,
space,
E,
H,
I,
O,
P,
T,
b,
e,
i,
l,
n,
o,
oacute,
q,
v,
B,
R,
a,
c,
d,
f,
g,
h,
m,
r,
a.002,
c.002,
f.002,
l.002
);
},
{
name = Axes;
value = (
{
Name = Weight;
Tag = wght;
},
{
Name = Width;
Tag = wdth;
}
);
}
);
date = "2021-09-01 01:08:09 +0000";
disablesNiceNames = 1;
familyName = Hangar;
fontMaster = (
{
alignmentZones = (
"{674, 15}",
"{500, 15}",
"{0, -15}"
);
ascender = 700;
capHeight = 674;
customParameters = (
{
name = typoAscender;
value = 700;
},
{
name = typoDescender;
value = -300;
},
{
name = typoLineGap;
value = 200;
},
{
name = winAscent;
value = 940;
},
{
name = winDescent;
value = 260;
},
{
name = hheaAscender;
value = 940;
},
{
name = hheaDescender;
value = -260;
},
{
name = strikeoutPosition;
value = 225;
},
{
name = strikeoutSize;
value = 50;
},
{
name = underlinePosition;
value = -175;
}
);
descender = -300;
id = "197054AD-3E11-4C46-98D6-E9AEE179F0DA";
weightValue = 400;
widthValue = 5;
xHeight = 500;
}
);
glyphs = (
{
glyphname = .notdef;
layers = (
{
layerId = "197054AD-3E11-4C46-98D6-E9AEE179F0DA";
paths = (
{
closed = 1;
nodes = (
"93 -260 LINE",
"410 -260 LINE",
"410 740 LINE",
"93 740 LINE"
);
},
{
closed = 1;
nodes = (
"167 -191 LINE",
"167 -158 LINE",
"237 -111 LINE",
"167 -111 LINE",
"167 -78 LINE",
"333 -78 LINE",
"333 -111 LINE",
"301 -111 LINE",
"231 -158 LINE",
"333 -158 LINE",
"333 -191 LINE"
);
},
{
closed = 1;
nodes = (
"167 -55 LINE",
"167 58 LINE",
"333 58 LINE",
"333 -55 LINE"
);
},
{
closed = 1;
nodes = (
"167 118 LINE",
"167 231 LINE",
"200 231 LINE",
"200 151 LINE",
"300 151 LINE",
"300 198 LINE",
"267 198 LINE",
"267 175 LINE",
"233 175 LINE",
"233 231 LINE",
"333 231 LINE",
"333 118 LINE"
);
},
{
closed = 1;
nodes = (
"167 253 LINE",
"167 287 LINE",
"300 287 LINE",
"300 353 LINE",
"333 353 LINE",
"333 253 LINE"
);
},
{
closed = 1;
nodes = (
"167 310 LINE",
"167 343 LINE",
"233 343 LINE",
"233 380 LINE",
"167 380 LINE",
"167 413 LINE",
"333 413 LINE",
"333 380 LINE",
"267 380 LINE",
"267 310 LINE"
);
},
{
closed = 1;
nodes = (
"167 440 LINE",
"167 544 LINE",
"267 544 LINE",
"267 474 LINE",
"333 474 LINE",
"333 440 LINE"
);
},
{
closed = 1;
nodes = (
"167 570 LINE",
"167 603 LINE",
"233 603 LINE",
"233 640 LINE",
"168 640 LINE",
"168 673 LINE",
"333 673 LINE",
"333 640 LINE",
"267 640 LINE",
"267 603 LINE",
"333 603 LINE",
"333 570 LINE"
);
},
{
closed = 1;
nodes = (
"200 -22 LINE",
"300 -22 LINE",
"300 25 LINE",
"200 25 LINE"
);
},
{
closed = 1;
nodes = (
"200 474 LINE",
"233 474 LINE",
"233 510 LINE",
"200 510 LINE"
);
}
);
width = 500;
}
);
note = .notdef;
},
{
glyphname = E;
lastChange = "2021-09-01 13:12:18 +0000";
layers = (
{
layerId = "197054AD-3E11-4C46-98D6-E9AEE179F0DA";
paths = (
{
closed = 1;
nodes = (
"70 398 OFFCURVE",
"85 413 OFFCURVE",
"103 413 CURVE SMOOTH",
"122 413 OFFCURVE",
"135 398 OFFCURVE",
"135 381 CURVE SMOOTH",
"135 363 OFFCURVE",
"122 348 OFFCURVE",
"103 348 CURVE SMOOTH",
"85 348 OFFCURVE",
"70 362 OFFCURVE",
"70 381 CURVE SMOOTH"
);
},
{
closed = 1;
nodes = (
"70 101 OFFCURVE",
"85 87 OFFCURVE",
"103 87 CURVE SMOOTH",
"122 87 OFFCURVE",
"135 101 OFFCURVE",
"135 120 CURVE SMOOTH",
"135 137 OFFCURVE",
"122 152 OFFCURVE",
"103 152 CURVE SMOOTH",
"85 152 OFFCURVE",
"70 136 OFFCURVE",
"70 120 CURVE SMOOTH"
);
},
{
closed = 1;
nodes = (
"70 224 OFFCURVE",
"85 239 OFFCURVE",
"103 239 CURVE SMOOTH",
"122 239 OFFCURVE",
"135 224 OFFCURVE",
"135 207 CURVE SMOOTH",
"135 189 OFFCURVE",
"122 174 OFFCURVE",
"103 174 CURVE SMOOTH",
"85 174 OFFCURVE",
"70 188 OFFCURVE",
"70 207 CURVE SMOOTH"
);
},
{
closed = 1;
nodes = (
"70 311 OFFCURVE",
"84 326 OFFCURVE",
"103 326 CURVE SMOOTH",
"121 326 OFFCURVE",
"135 311 OFFCURVE",
"135 294 CURVE SMOOTH",
"135 276 OFFCURVE",
"121 261 OFFCURVE",
"103 261 CURVE SMOOTH",
"85 261 OFFCURVE",
"70 275 OFFCURVE",
"70 294 CURVE SMOOTH"
);
},
{
closed = 1;
nodes = (
"70 485 OFFCURVE",
"85 500 OFFCURVE",
"103 500 CURVE SMOOTH",
"121 500 OFFCURVE",
"135 485 OFFCURVE",
"135 468 CURVE SMOOTH",
"135 450 OFFCURVE",
"121 435 OFFCURVE",
"103 435 CURVE SMOOTH",
"86 435 OFFCURVE",
"70 450 OFFCURVE",
"70 468 CURVE SMOOTH"
);
},
{
closed = 1;
nodes = (
"70 572 OFFCURVE",
"85 587 OFFCURVE",
"103 587 CURVE SMOOTH",
"122 587 OFFCURVE",
"135 572 OFFCURVE",
"135 555 CURVE SMOOTH",
"135 537 OFFCURVE",
"122 522 OFFCURVE",
"103 522 CURVE SMOOTH",
"85 522 OFFCURVE",
"70 536 OFFCURVE",
"70 555 CURVE SMOOTH"
);
},
{
closed = 1;
nodes = (
"157 332 OFFCURVE",
"171 318 OFFCURVE",
"187 318 CURVE SMOOTH",
"203 318 OFFCURVE",
"217 332 OFFCURVE",
"217 348 CURVE SMOOTH",
"217 365 OFFCURVE",
"203 378 OFFCURVE",
"187 378 CURVE SMOOTH",
"171 378 OFFCURVE",
"157 364 OFFCURVE",
"157 348 CURVE SMOOTH"
);
},
{
closed = 1;
nodes = (
"239 332 OFFCURVE",
"253 318 OFFCURVE",
"269 318 CURVE SMOOTH",
"285 318 OFFCURVE",
"299 332 OFFCURVE",
"299 348 CURVE SMOOTH",
"299 364 OFFCURVE",
"285 378 OFFCURVE",
"269 378 CURVE SMOOTH",
"253 378 OFFCURVE",
"239 364 OFFCURVE",
"239 348 CURVE SMOOTH"
);
},
{
closed = 1;
nodes = (
"321 332 OFFCURVE",
"335 318 OFFCURVE",
"351 318 CURVE SMOOTH",
"367 318 OFFCURVE",
"381 332 OFFCURVE",
"381 348 CURVE SMOOTH",
"381 364 OFFCURVE",
"367 378 OFFCURVE",
"351 378 CURVE SMOOTH",
"335 378 OFFCURVE",
"321 364 OFFCURVE",
"321 348 CURVE SMOOTH"
);
},
{
closed = 1;
nodes = (
"403 332 OFFCURVE",
"417 318 OFFCURVE",
"433 318 CURVE SMOOTH",
"449 318 OFFCURVE",
"463 332 OFFCURVE",
"463 348 CURVE SMOOTH",
"463 364 OFFCURVE",
"449 378 OFFCURVE",
"433 378 CURVE SMOOTH",
"417 378 OFFCURVE",
"403 364 OFFCURVE",
"403 348 CURVE SMOOTH"
);
},
{
closed = 1;
nodes = (
"198 14 OFFCURVE",
"212 0 OFFCURVE",
"228 0 CURVE SMOOTH",
"244 0 OFFCURVE",
"258 14 OFFCURVE",
"258 30 CURVE SMOOTH",
"258 47 OFFCURVE",
"244 60 OFFCURVE",
"228 60 CURVE SMOOTH",
"212 60 OFFCURVE",
"198 46 OFFCURVE",
"198 30 CURVE SMOOTH"
);
},
{
closed = 1;
nodes = (
"280 14 OFFCURVE",
"294 0 OFFCURVE",
"310 0 CURVE SMOOTH",
"326 0 OFFCURVE",
"340 14 OFFCURVE",
"340 30 CURVE SMOOTH",
"340 46 OFFCURVE",
"326 60 OFFCURVE",
"310 60 CURVE SMOOTH",
"294 60 OFFCURVE",
"280 46 OFFCURVE",
"280 30 CURVE SMOOTH"
);
},
{
closed = 1;
nodes = (
"362 14 OFFCURVE",
"376 0 OFFCURVE",
"392 0 CURVE SMOOTH",
"408 0 OFFCURVE",
"422 14 OFFCURVE",
"422 30 CURVE SMOOTH",
"422 46 OFFCURVE",
"408 60 OFFCURVE",
"392 60 CURVE SMOOTH",
"376 60 OFFCURVE",
"362 46 OFFCURVE",
"362 30 CURVE SMOOTH"
);
},
{
closed = 1;
nodes = (
"444 14 OFFCURVE",
"458 0 OFFCURVE",
"474 0 CURVE SMOOTH",
"490 0 OFFCURVE",
"504 14 OFFCURVE",
"504 30 CURVE SMOOTH",
"504 46 OFFCURVE",
"490 60 OFFCURVE",
"474 60 CURVE SMOOTH",
"458 60 OFFCURVE",
"444 46 OFFCURVE",
"444 30 CURVE SMOOTH"
);
},
{
closed = 1;
nodes = (
"160 9 OFFCURVE",
"175 24 OFFCURVE",
"175 42 CURVE SMOOTH",
"175 59 OFFCURVE",
"160 74 OFFCURVE",
"143 74 CURVE SMOOTH",
"125 74 OFFCURVE",
"110 59 OFFCURVE",
"110 42 CURVE SMOOTH",
"110 24 OFFCURVE",
"125 9 OFFCURVE",
"143 9 CURVE SMOOTH"
);
},
{
closed = 1;
nodes = (
"198 628 OFFCURVE",
"212 614 OFFCURVE",
"228 614 CURVE SMOOTH",
"244 614 OFFCURVE",
"258 627 OFFCURVE",
"258 644 CURVE SMOOTH",
"258 660 OFFCURVE",
"244 674 OFFCURVE",
"228 674 CURVE SMOOTH",
"212 674 OFFCURVE",
"198 660 OFFCURVE",
"198 644 CURVE SMOOTH"
);
},
{
closed = 1;
nodes = (
"280 628 OFFCURVE",
"294 614 OFFCURVE",
"310 614 CURVE SMOOTH",
"326 614 OFFCURVE",
"340 628 OFFCURVE",
"340 644 CURVE SMOOTH",
"340 660 OFFCURVE",
"326 674 OFFCURVE",
"310 674 CURVE SMOOTH",
"294 674 OFFCURVE",
"280 660 OFFCURVE",
"280 644 CURVE SMOOTH"
);
},
{
closed = 1;
nodes = (
"362 628 OFFCURVE",
"376 614 OFFCURVE",
"392 614 CURVE SMOOTH",
"408 614 OFFCURVE",
"422 628 OFFCURVE",
"422 644 CURVE SMOOTH",
"422 660 OFFCURVE",
"408 674 OFFCURVE",
"392 674 CURVE SMOOTH",
"376 674 OFFCURVE",
"362 660 OFFCURVE",
"362 644 CURVE SMOOTH"
);
},
{
closed = 1;
nodes = (
"444 628 OFFCURVE",
"458 614 OFFCURVE",
"474 614 CURVE SMOOTH",
"490 614 OFFCURVE",
"504 628 OFFCURVE",
"504 644 CURVE SMOOTH",
"504 660 OFFCURVE",
"490 674 OFFCURVE",
"474 674 CURVE SMOOTH",
"458 674 OFFCURVE",
"444 660 OFFCURVE",
"444 644 CURVE SMOOTH"
);
},
{
closed = 1;
nodes = (
"125 665 OFFCURVE",
"110 650 OFFCURVE",
"110 632 CURVE SMOOTH",
"110 615 OFFCURVE",
"125 600 OFFCURVE",
"143 600 CURVE SMOOTH",
"160 600 OFFCURVE",
"175 615 OFFCURVE",
"175 632 CURVE SMOOTH",
"175 650 OFFCURVE",
"160 665 OFFCURVE",
"143 665 CURVE SMOOTH"
);
}
);
width = 564;
}
);
note = E;
unicode = 0045;
},
{
glyphname = H;
lastChange = "2021-09-01 18:33:11 +0000";
layers = (
{
layerId = "197054AD-3E11-4C46-98D6-E9AEE179F0DA";
paths = (
{
closed = 1;
nodes = (
"70 398 OFFCURVE",
"85 413 OFFCURVE",
"103 413 CURVE SMOOTH",
"122 413 OFFCURVE",
"135 398 OFFCURVE",
"135 381 CURVE SMOOTH",
"135 363 OFFCURVE",
"122 348 OFFCURVE",
"103 348 CURVE SMOOTH",
"85 348 OFFCURVE",
"70 362 OFFCURVE",
"70 381 CURVE SMOOTH"
);
},
{
closed = 1;
nodes = (
"70 15 OFFCURVE",
"85 1 OFFCURVE",
"103 0 CURVE SMOOTH",
"122 0 OFFCURVE",
"135 15 OFFCURVE",
"135 33 CURVE SMOOTH",
"135 51 OFFCURVE",
"122 65 OFFCURVE",
"103 65 CURVE SMOOTH",
"85 65 OFFCURVE",
"70 51 OFFCURVE",
"70 33 CURVE SMOOTH"
);
},
{
closed = 1;
nodes = (
"70 101 OFFCURVE",
"85 87 OFFCURVE",
"103 87 CURVE SMOOTH",
"122 87 OFFCURVE",
"135 101 OFFCURVE",
"135 120 CURVE SMOOTH",
"135 137 OFFCURVE",
"122 152 OFFCURVE",
"103 152 CURVE SMOOTH",
"85 152 OFFCURVE",
"70 136 OFFCURVE",
"70 120 CURVE SMOOTH"
);
},
{
closed = 1;
nodes = (
"70 224 OFFCURVE",
"85 239 OFFCURVE",
"103 239 CURVE SMOOTH",
"122 239 OFFCURVE",
"135 224 OFFCURVE",
"135 207 CURVE SMOOTH",
"135 189 OFFCURVE",
"122 174 OFFCURVE",
"103 174 CURVE SMOOTH",
"85 174 OFFCURVE",
"70 188 OFFCURVE",
"70 207 CURVE SMOOTH"
);
},
{
closed = 1;
nodes = (
"70 311 OFFCURVE",
"84 326 OFFCURVE",
"103 326 CURVE SMOOTH",
"121 326 OFFCURVE",
"135 311 OFFCURVE",
"135 294 CURVE SMOOTH",
"135 276 OFFCURVE",
"121 261 OFFCURVE",
"103 261 CURVE SMOOTH",
"85 261 OFFCURVE",
"70 275 OFFCURVE",
"70 294 CURVE SMOOTH"
);
},
{
closed = 1;
nodes = (
"70 485 OFFCURVE",
"85 500 OFFCURVE",
"103 500 CURVE SMOOTH",
"121 500 OFFCURVE",
"135 485 OFFCURVE",
"135 468 CURVE SMOOTH",
"135 450 OFFCURVE",
"121 435 OFFCURVE",
"103 435 CURVE SMOOTH",
"86 435 OFFCURVE",
"70 450 OFFCURVE",
"70 468 CURVE SMOOTH"
);
},
{
closed = 1;
nodes = (
"70 572 OFFCURVE",
"85 587 OFFCURVE",
"103 587 CURVE SMOOTH",
"122 587 OFFCURVE",
"135 572 OFFCURVE",
"135 555 CURVE SMOOTH",
"135 537 OFFCURVE",
"122 522 OFFCURVE",
"103 522 CURVE SMOOTH",
"85 522 OFFCURVE",
"70 536 OFFCURVE",
"70 555 CURVE SMOOTH"
);
},
{
closed = 1;
nodes = (
"70 659 OFFCURVE",
"85 674 OFFCURVE",
"103 674 CURVE SMOOTH",
"121 674 OFFCURVE",
"135 659 OFFCURVE",
"135 642 CURVE SMOOTH",
"135 624 OFFCURVE",
"121 609 OFFCURVE",
"103 609 CURVE SMOOTH",
"86 609 OFFCURVE",
"70 624 OFFCURVE",
"70 642 CURVE SMOOTH"
);
},
{
closed = 1;
nodes = (
"155 330 OFFCURVE",
"169 316 OFFCURVE",
"185 316 CURVE SMOOTH",
"201 316 OFFCURVE",
"215 330 OFFCURVE",
"215 346 CURVE SMOOTH",
"215 363 OFFCURVE",
"202 376 OFFCURVE",
"185 376 CURVE SMOOTH",
"169 376 OFFCURVE",
"155 362 OFFCURVE",
"155 346 CURVE SMOOTH"
);
},
{
closed = 1;
nodes = (
"242 330 OFFCURVE",
"256 316 OFFCURVE",
"272 316 CURVE SMOOTH",
"288 316 OFFCURVE",
"302 330 OFFCURVE",
"302 346 CURVE SMOOTH",
"302 362 OFFCURVE",
"288 376 OFFCURVE",
"272 376 CURVE SMOOTH",
"256 376 OFFCURVE",
"242 362 OFFCURVE",
"242 346 CURVE SMOOTH"
);
},
{
closed = 1;
nodes = (
"328 330 OFFCURVE",
"342 316 OFFCURVE",
"358 316 CURVE SMOOTH",
"374 316 OFFCURVE",
"388 330 OFFCURVE",
"388 346 CURVE SMOOTH",
"388 362 OFFCURVE",
"374 376 OFFCURVE",
"358 376 CURVE SMOOTH",
"342 376 OFFCURVE",
"328 362 OFFCURVE",
"328 346 CURVE SMOOTH"
);
},
{
closed = 1;
nodes = (
"415 330 OFFCURVE",
"429 316 OFFCURVE",
"445 316 CURVE SMOOTH",
"461 316 OFFCURVE",
"475 330 OFFCURVE",
"475 346 CURVE SMOOTH",
"475 362 OFFCURVE",
"461 376 OFFCURVE",
"445 376 CURVE SMOOTH",
"429 376 OFFCURVE",
"415 362 OFFCURVE",
"415 346 CURVE SMOOTH"
);
},
{
closed = 1;
nodes = (
"495 15 OFFCURVE",
"510 1 OFFCURVE",
"528 0 CURVE SMOOTH",
"547 0 OFFCURVE",
"560 15 OFFCURVE",
"560 33 CURVE SMOOTH",
"560 51 OFFCURVE",
"547 65 OFFCURVE",
"528 65 CURVE SMOOTH",
"510 65 OFFCURVE",
"495 51 OFFCURVE",
"495 33 CURVE SMOOTH"
);
},
{
closed = 1;
nodes = (
"495 101 OFFCURVE",
"510 87 OFFCURVE",
"528 87 CURVE SMOOTH",
"547 87 OFFCURVE",
"560 101 OFFCURVE",
"560 120 CURVE SMOOTH",
"560 137 OFFCURVE",
"547 152 OFFCURVE",
"528 152 CURVE SMOOTH",
"510 152 OFFCURVE",
"495 136 OFFCURVE",
"495 120 CURVE SMOOTH"
);
},
{
closed = 1;
nodes = (
"495 224 OFFCURVE",
"510 239 OFFCURVE",
"528 239 CURVE SMOOTH",
"547 239 OFFCURVE",
"560 224 OFFCURVE",
"560 207 CURVE SMOOTH",
"560 189 OFFCURVE",
"547 174 OFFCURVE",
"528 174 CURVE SMOOTH",
"510 174 OFFCURVE",
"495 188 OFFCURVE",
"495 207 CURVE SMOOTH"
);
},
{
closed = 1;
nodes = (
"495 311 OFFCURVE",
"509 326 OFFCURVE",
"528 326 CURVE SMOOTH",
"546 326 OFFCURVE",
"560 311 OFFCURVE",
"560 294 CURVE SMOOTH",
"560 276 OFFCURVE",
"546 261 OFFCURVE",
"528 261 CURVE SMOOTH",
"510 261 OFFCURVE",
"495 275 OFFCURVE",
"495 294 CURVE SMOOTH"
);
},
{
closed = 1;
nodes = (
"495 398 OFFCURVE",
"510 413 OFFCURVE",
"528 413 CURVE SMOOTH",
"547 413 OFFCURVE",
"560 398 OFFCURVE",
"560 381 CURVE SMOOTH",
"560 363 OFFCURVE",
"547 348 OFFCURVE",
"528 348 CURVE SMOOTH",
"510 348 OFFCURVE",
"495 362 OFFCURVE",
"495 381 CURVE SMOOTH"
);
},
{
closed = 1;
nodes = (
"495 485 OFFCURVE",
"510 500 OFFCURVE",
"528 500 CURVE SMOOTH",
"546 500 OFFCURVE",
"560 485 OFFCURVE",
"560 468 CURVE SMOOTH",
"560 450 OFFCURVE",
"546 435 OFFCURVE",
"528 435 CURVE SMOOTH",
"511 435 OFFCURVE",
"495 450 OFFCURVE",
"495 468 CURVE SMOOTH"
);
},
{
closed = 1;
nodes = (
"495 572 OFFCURVE",
"510 587 OFFCURVE",
"528 587 CURVE SMOOTH",
"547 587 OFFCURVE",
"560 572 OFFCURVE",
"560 555 CURVE SMOOTH",
"560 537 OFFCURVE",
"547 522 OFFCURVE",
"528 522 CURVE SMOOTH",
"510 522 OFFCURVE",
"495 536 OFFCURVE",
"495 555 CURVE SMOOTH"
);
},
{
closed = 1;
nodes = (
"495 659 OFFCURVE",
"510 674 OFFCURVE",
"528 674 CURVE SMOOTH",
"546 674 OFFCURVE",
"560 659 OFFCURVE",
"560 642 CURVE SMOOTH",
"560 624 OFFCURVE",
"546 609 OFFCURVE",
"528 609 CURVE SMOOTH",
"511 609 OFFCURVE",
"495 624 OFFCURVE",
"495 642 CURVE SMOOTH"
);
}
);
width = 630;
}
);
note = H;
unicode = 0048;
},
{
glyphname = I;
lastChange = "2021-09-01 15:04:10 +0000";
layers = (
{
layerId = "197054AD-3E11-4C46-98D6-E9AEE179F0DA";
paths = (
{
closed = 1;
nodes = (
"147 398 OFFCURVE",
"162 413 OFFCURVE",
"180 413 CURVE SMOOTH",
"199 413 OFFCURVE",
"212 398 OFFCURVE",
"212 381 CURVE SMOOTH",
"212 363 OFFCURVE",
"199 348 OFFCURVE",
"180 348 CURVE SMOOTH",
"162 348 OFFCURVE",
"147 362 OFFCURVE",
"147 381 CURVE SMOOTH"
);
},
{
closed = 1;
nodes = (
"65 14 OFFCURVE",
"79 0 OFFCURVE",
"95 0 CURVE SMOOTH",
"111 0 OFFCURVE",
"125 14 OFFCURVE",
"125 30 CURVE SMOOTH",
"125 46 OFFCURVE",
"111 60 OFFCURVE",
"95 60 CURVE SMOOTH",
"79 60 OFFCURVE",
"65 46 OFFCURVE",
"65 30 CURVE SMOOTH"
);
},
{
closed = 1;
nodes = (
"65 628 OFFCURVE",
"79 614 OFFCURVE",
"95 614 CURVE SMOOTH",
"111 614 OFFCURVE",
"125 628 OFFCURVE",
"125 644 CURVE SMOOTH",
"125 660 OFFCURVE",
"111 674 OFFCURVE",
"95 674 CURVE SMOOTH",
"79 674 OFFCURVE",
"65 660 OFFCURVE",
"65 644 CURVE SMOOTH"
);
},
{
closed = 1;
nodes = (
"147 15 OFFCURVE",
"162 1 OFFCURVE",
"180 0 CURVE SMOOTH",
"199 0 OFFCURVE",
"212 15 OFFCURVE",
"212 33 CURVE SMOOTH",
"212 51 OFFCURVE",
"199 65 OFFCURVE",
"180 65 CURVE SMOOTH",
"162 65 OFFCURVE",
"147 51 OFFCURVE",
"147 33 CURVE SMOOTH"
);
},
{
closed = 1;
nodes = (
"147 101 OFFCURVE",
"162 87 OFFCURVE",
"180 87 CURVE SMOOTH",
"199 87 OFFCURVE",
"212 101 OFFCURVE",
"212 120 CURVE SMOOTH",
"212 137 OFFCURVE",
"199 152 OFFCURVE",
"180 152 CURVE SMOOTH",
"162 152 OFFCURVE",
"147 136 OFFCURVE",
"147 120 CURVE SMOOTH"
);
},
{
closed = 1;
nodes = (
"147 224 OFFCURVE",
"162 239 OFFCURVE",
"180 239 CURVE SMOOTH",
"199 239 OFFCURVE",
"212 224 OFFCURVE",
"212 207 CURVE SMOOTH",
"212 189 OFFCURVE",
"199 174 OFFCURVE",
"180 174 CURVE SMOOTH",
"162 174 OFFCURVE",
"147 188 OFFCURVE",
"147 207 CURVE SMOOTH"
);
},
{
closed = 1;
nodes = (
"147 311 OFFCURVE",
"161 326 OFFCURVE",
"180 326 CURVE SMOOTH",
"198 326 OFFCURVE",
"212 311 OFFCURVE",
"212 294 CURVE SMOOTH",
"212 276 OFFCURVE",
"198 261 OFFCURVE",
"180 261 CURVE SMOOTH",
"162 261 OFFCURVE",
"147 275 OFFCURVE",
"147 294 CURVE SMOOTH"
);
},
{
closed = 1;
nodes = (
"147 485 OFFCURVE",
"162 500 OFFCURVE",
"180 500 CURVE SMOOTH",
"198 500 OFFCURVE",
"212 485 OFFCURVE",
"212 468 CURVE SMOOTH",
"212 450 OFFCURVE",
"198 435 OFFCURVE",
"180 435 CURVE SMOOTH",
"163 435 OFFCURVE",
"147 450 OFFCURVE",
"147 468 CURVE SMOOTH"
);
},
{
closed = 1;
nodes = (
"147 572 OFFCURVE",
"162 587 OFFCURVE",
"180 587 CURVE SMOOTH",
"199 587 OFFCURVE",
"212 572 OFFCURVE",
"212 555 CURVE SMOOTH",
"212 537 OFFCURVE",
"199 522 OFFCURVE",
"180 522 CURVE SMOOTH",
"162 522 OFFCURVE",
"147 536 OFFCURVE",
"147 555 CURVE SMOOTH"
);
},
{
closed = 1;
nodes = (
"147 659 OFFCURVE",
"162 674 OFFCURVE",
"180 674 CURVE SMOOTH",
"198 674 OFFCURVE",
"212 659 OFFCURVE",
"212 642 CURVE SMOOTH",
"212 624 OFFCURVE",
"198 609 OFFCURVE",
"180 609 CURVE SMOOTH",
"163 609 OFFCURVE",
"147 624 OFFCURVE",
"147 642 CURVE SMOOTH"
);
},
{
closed = 1;
nodes = (
"234 14 OFFCURVE",
"248 0 OFFCURVE",
"264 0 CURVE SMOOTH",
"280 0 OFFCURVE",
"294 14 OFFCURVE",
"294 30 CURVE SMOOTH",
"294 46 OFFCURVE",
"280 60 OFFCURVE",
"264 60 CURVE SMOOTH",
"248 60 OFFCURVE",
"234 46 OFFCURVE",
"234 30 CURVE SMOOTH"
);
},
{
closed = 1;
nodes = (
"234 628 OFFCURVE",
"248 614 OFFCURVE",
"264 614 CURVE SMOOTH",
"280 614 OFFCURVE",
"294 628 OFFCURVE",
"294 644 CURVE SMOOTH",
"294 660 OFFCURVE",
"280 674 OFFCURVE",
"264 674 CURVE SMOOTH",
"248 674 OFFCURVE",
"234 660 OFFCURVE",
"234 644 CURVE SMOOTH"
);
}
);
width = 359;
}
);
note = I;
unicode = 0049;
},
{
color = 9;
glyphname = O;
lastChange = "2021-09-01 17:01:51 +0000";
layers = (
{
layerId = "197054AD-3E11-4C46-98D6-E9AEE179F0DA";
paths = (
{
closed = 1;
nodes = (
"357 675 OFFCURVE",
"370 688 OFFCURVE",
"387 688 CURVE SMOOTH",
"404 688 OFFCURVE",
"417 675 OFFCURVE",
"417 658 CURVE SMOOTH",
"417 641 OFFCURVE",
"404 628 OFFCURVE",
"387 628 CURVE SMOOTH",
"370 628 OFFCURVE",
"357 641 OFFCURVE",
"357 658 CURVE SMOOTH"
);
},
{
closed = 1;
nodes = (
"437 643 OFFCURVE",
"452 658 OFFCURVE",
"470 658 CURVE SMOOTH",
"489 658 OFFCURVE",
"503 643 OFFCURVE",
"503 625 CURVE SMOOTH",
"503 606 OFFCURVE",
"489 592 OFFCURVE",
"470 592 CURVE SMOOTH",
"452 592 OFFCURVE",
"437 606 OFFCURVE",
"437 625 CURVE SMOOTH"
);
},
{
closed = 1;
nodes = (
"502 542 OFFCURVE",
"517 527 OFFCURVE",
"535 527 CURVE SMOOTH",
"553 527 OFFCURVE",
"568 542 OFFCURVE",
"568 560 CURVE SMOOTH",
"568 577 OFFCURVE",
"553 593 OFFCURVE",
"535 593 CURVE SMOOTH",
"517 593 OFFCURVE",
"502 577 OFFCURVE",
"502 560 CURVE SMOOTH"
);
},
{
closed = 1;
nodes = (
"538 458 OFFCURVE",
"554 442 OFFCURVE",
"574 442 CURVE SMOOTH",
"594 442 OFFCURVE",
"608 458 OFFCURVE",
"608 477 CURVE SMOOTH",
"608 496 OFFCURVE",
"594 511 OFFCURVE",
"574 511 CURVE SMOOTH",
"554 511 OFFCURVE",
"538 496 OFFCURVE",
"538 477 CURVE SMOOTH"
);
},
{
closed = 1;
nodes = (
"609 349 OFFCURVE",
"625 365 OFFCURVE",
"625 384 CURVE SMOOTH",
"625 403 OFFCURVE",
"609 419 OFFCURVE",
"590 419 CURVE SMOOTH",
"571 419 OFFCURVE",
"555 403 OFFCURVE",
"555 384 CURVE SMOOTH",
"555 365 OFFCURVE",
"571 349 OFFCURVE",
"590 349 CURVE SMOOTH"
);
},
{
closed = 1;
nodes = (
"333 641 OFFCURVE",
"320 628 OFFCURVE",
"303 628 CURVE SMOOTH",
"286 628 OFFCURVE",
"273 641 OFFCURVE",
"273 658 CURVE SMOOTH",
"273 675 OFFCURVE",
"286 688 OFFCURVE",
"303 688 CURVE SMOOTH",
"320 688 OFFCURVE",
"333 675 OFFCURVE",
"333 658 CURVE SMOOTH"
);
},
{
closed = 1;
nodes = (
"253 606 OFFCURVE",
"238 592 OFFCURVE",
"220 592 CURVE SMOOTH",
"201 592 OFFCURVE",
"187 606 OFFCURVE",
"187 625 CURVE SMOOTH",
"187 643 OFFCURVE",
"201 658 OFFCURVE",
"220 658 CURVE SMOOTH",
"238 658 OFFCURVE",
"253 643 OFFCURVE",
"253 625 CURVE SMOOTH"
);
},
{
closed = 1;
nodes = (
"188 577 OFFCURVE",
"173 593 OFFCURVE",
"155 593 CURVE SMOOTH",
"137 593 OFFCURVE",
"122 577 OFFCURVE",
"122 560 CURVE SMOOTH",
"122 542 OFFCURVE",
"137 527 OFFCURVE",
"155 527 CURVE SMOOTH",
"173 527 OFFCURVE",
"188 542 OFFCURVE",
"188 560 CURVE SMOOTH"
);
},
{
closed = 1;
nodes = (
"152 496 OFFCURVE",
"136 511 OFFCURVE",
"116 511 CURVE SMOOTH",
"96 511 OFFCURVE",
"82 496 OFFCURVE",
"82 477 CURVE SMOOTH",
"82 458 OFFCURVE",
"96 442 OFFCURVE",
"116 442 CURVE SMOOTH",
"136 442 OFFCURVE",
"152 458 OFFCURVE",
"152 477 CURVE SMOOTH"
);
},
{
closed = 1;
nodes = (
"119 349 OFFCURVE",
"135 365 OFFCURVE",
"135 384 CURVE SMOOTH",
"135 403 OFFCURVE",
"119 419 OFFCURVE",
"100 419 CURVE SMOOTH",
"81 419 OFFCURVE",
"65 403 OFFCURVE",
"65 384 CURVE SMOOTH",
"65 365 OFFCURVE",
"81 349 OFFCURVE",
"100 349 CURVE SMOOTH"
);
},
{
closed = 1;
nodes = (
"357 33 OFFCURVE",
"370 46 OFFCURVE",
"387 46 CURVE SMOOTH",
"404 46 OFFCURVE",
"417 33 OFFCURVE",
"417 16 CURVE SMOOTH",
"417 -1 OFFCURVE",
"404 -14 OFFCURVE",
"387 -14 CURVE SMOOTH",
"370 -14 OFFCURVE",
"357 -1 OFFCURVE",
"357 16 CURVE SMOOTH"
);
},
{
closed = 1;
nodes = (
"437 68 OFFCURVE",
"452 82 OFFCURVE",
"470 82 CURVE SMOOTH",
"489 82 OFFCURVE",
"503 68 OFFCURVE",
"503 49 CURVE SMOOTH",
"503 31 OFFCURVE",
"489 16 OFFCURVE",
"470 16 CURVE SMOOTH",
"452 16 OFFCURVE",
"437 31 OFFCURVE",
"437 49 CURVE SMOOTH"
);
},
{
closed = 1;
nodes = (
"502 97 OFFCURVE",
"517 81 OFFCURVE",
"535 81 CURVE SMOOTH",
"553 81 OFFCURVE",
"568 97 OFFCURVE",
"568 114 CURVE SMOOTH",
"568 132 OFFCURVE",
"553 147 OFFCURVE",
"535 147 CURVE SMOOTH",
"517 147 OFFCURVE",
"502 132 OFFCURVE",
"502 114 CURVE SMOOTH"
);
},
{
closed = 1;
nodes = (
"538 178 OFFCURVE",
"554 163 OFFCURVE",
"574 163 CURVE SMOOTH",
"594 163 OFFCURVE",
"608 178 OFFCURVE",
"608 197 CURVE SMOOTH",
"608 216 OFFCURVE",
"594 232 OFFCURVE",
"574 232 CURVE SMOOTH",
"554 232 OFFCURVE",
"538 216 OFFCURVE",
"538 197 CURVE SMOOTH"
);
},
{
closed = 1;
nodes = (
"571 325 OFFCURVE",
"555 309 OFFCURVE",
"555 290 CURVE SMOOTH",
"555 271 OFFCURVE",
"571 255 OFFCURVE",
"590 255 CURVE SMOOTH",
"609 255 OFFCURVE",
"625 271 OFFCURVE",
"625 290 CURVE SMOOTH",
"625 309 OFFCURVE",
"609 325 OFFCURVE",
"590 325 CURVE SMOOTH"
);
},
{
closed = 1;
nodes = (
"333 -1 OFFCURVE",
"320 -14 OFFCURVE",
"303 -14 CURVE SMOOTH",
"286 -14 OFFCURVE",
"273 -1 OFFCURVE",
"273 16 CURVE SMOOTH",
"273 33 OFFCURVE",
"286 46 OFFCURVE",
"303 46 CURVE SMOOTH",
"320 46 OFFCURVE",
"333 33 OFFCURVE",
"333 16 CURVE SMOOTH"
);
},
{
closed = 1;
nodes = (
"253 31 OFFCURVE",
"238 16 OFFCURVE",
"220 16 CURVE SMOOTH",
"201 16 OFFCURVE",
"187 31 OFFCURVE",
"187 49 CURVE SMOOTH",
"187 68 OFFCURVE",
"201 82 OFFCURVE",
"220 82 CURVE SMOOTH",
"238 82 OFFCURVE",
"253 68 OFFCURVE",
"253 49 CURVE SMOOTH"
);
},
{
closed = 1;
nodes = (
"188 132 OFFCURVE",
"173 147 OFFCURVE",
"155 147 CURVE SMOOTH",
"137 147 OFFCURVE",
"122 132 OFFCURVE",
"122 114 CURVE SMOOTH",
"122 97 OFFCURVE",
"137 81 OFFCURVE",
"155 81 CURVE SMOOTH",
"173 81 OFFCURVE",
"188 97 OFFCURVE",
"188 114 CURVE SMOOTH"
);
},
{
closed = 1;
nodes = (
"152 216 OFFCURVE",
"136 232 OFFCURVE",
"116 232 CURVE SMOOTH",
"96 232 OFFCURVE",
"82 216 OFFCURVE",
"82 197 CURVE SMOOTH",
"82 178 OFFCURVE",
"96 163 OFFCURVE",
"116 163 CURVE SMOOTH",
"136 163 OFFCURVE",
"152 178 OFFCURVE",
"152 197 CURVE SMOOTH"
);
},
{
closed = 1;
nodes = (
"81 325 OFFCURVE",
"65 309 OFFCURVE",
"65 290 CURVE SMOOTH",
"65 271 OFFCURVE",
"81 255 OFFCURVE",
"100 255 CURVE SMOOTH",
"119 255 OFFCURVE",
"135 271 OFFCURVE",
"135 290 CURVE SMOOTH",
"135 309 OFFCURVE",
"119 325 OFFCURVE",
"100 325 CURVE SMOOTH"
);
}
);
width = 690;
}
);
note = O;
unicode = 004F;
},
{
glyphname = P;
lastChange = "2021-09-02 00:39:42 +0000";
layers = (
{
layerId = "197054AD-3E11-4C46-98D6-E9AEE179F0DA";
paths = (
{
closed = 1;
nodes = (
"70 312 OFFCURVE",
"85 326 OFFCURVE",
"103 326 CURVE SMOOTH",
"122 326 OFFCURVE",
"135 311 OFFCURVE",
"135 293 CURVE SMOOTH",
"135 276 OFFCURVE",
"122 261 OFFCURVE",
"103 261 CURVE SMOOTH",
"85 261 OFFCURVE",
"70 276 OFFCURVE",
"70 293 CURVE SMOOTH"
);
},
{
closed = 1;
nodes = (
"70 538 OFFCURVE",
"85 522 OFFCURVE",
"103 522 CURVE SMOOTH",
"122 522 OFFCURVE",
"135 537 OFFCURVE",
"135 554 CURVE SMOOTH",
"135 573 OFFCURVE",
"122 587 OFFCURVE",
"103 587 CURVE SMOOTH",
"85 587 OFFCURVE",
"70 573 OFFCURVE",
"70 554 CURVE SMOOTH"
);
},
{
closed = 1;
nodes = (
"70 486 OFFCURVE",
"85 500 OFFCURVE",
"103 500 CURVE SMOOTH",
"122 500 OFFCURVE",
"135 485 OFFCURVE",
"135 467 CURVE SMOOTH",
"135 450 OFFCURVE",
"122 435 OFFCURVE",
"103 435 CURVE SMOOTH",
"85 435 OFFCURVE",
"70 450 OFFCURVE",
"70 467 CURVE SMOOTH"
);
},
{
closed = 1;
nodes = (
"70 399 OFFCURVE",
"85 413 OFFCURVE",
"103 413 CURVE SMOOTH",
"121 413 OFFCURVE",
"135 398 OFFCURVE",
"135 380 CURVE SMOOTH",
"135 363 OFFCURVE",
"121 348 OFFCURVE",
"103 348 CURVE SMOOTH",
"84 348 OFFCURVE",
"70 363 OFFCURVE",
"70 380 CURVE SMOOTH"
);
},
{
closed = 1;
nodes = (
"70 224 OFFCURVE",
"86 239 OFFCURVE",
"103 239 CURVE SMOOTH",
"121 239 OFFCURVE",
"135 224 OFFCURVE",
"135 206 CURVE SMOOTH",
"135 189 OFFCURVE",
"121 174 OFFCURVE",
"103 174 CURVE SMOOTH",
"85 174 OFFCURVE",
"70 189 OFFCURVE",
"70 206 CURVE SMOOTH"
);
},
{
closed = 1;
nodes = (
"70 138 OFFCURVE",
"85 152 OFFCURVE",
"103 152 CURVE SMOOTH",
"122 152 OFFCURVE",
"135 137 OFFCURVE",
"135 119 CURVE SMOOTH",
"135 102 OFFCURVE",
"122 87 OFFCURVE",
"103 87 CURVE SMOOTH",
"85 87 OFFCURVE",
"70 102 OFFCURVE",
"70 119 CURVE SMOOTH"
);
},
{
closed = 1;
nodes = (
"70 50 OFFCURVE",
"86 65 OFFCURVE",
"103 65 CURVE SMOOTH",
"121 65 OFFCURVE",
"135 50 OFFCURVE",
"135 32 CURVE SMOOTH",
"135 15 OFFCURVE",
"121 0 OFFCURVE",
"103 0 CURVE SMOOTH",
"85 0 OFFCURVE",
"70 15 OFFCURVE",
"70 32 CURVE SMOOTH"
);
},
{
closed = 1;
nodes = (
"150 305 OFFCURVE",
"164 291 OFFCURVE",
"180 291 CURVE SMOOTH",
"196 291 OFFCURVE",
"210 305 OFFCURVE",
"210 321 CURVE SMOOTH",
"210 337 OFFCURVE",
"196 351 OFFCURVE",
"180 351 CURVE SMOOTH",
"164 351 OFFCURVE",
"150 337 OFFCURVE",
"150 321 CURVE SMOOTH"
);
},
{
closed = 1;
nodes = (
"156 628 OFFCURVE",
"170 614 OFFCURVE",
"186 614 CURVE SMOOTH",
"202 614 OFFCURVE",
"216 628 OFFCURVE",
"216 644 CURVE SMOOTH",
"216 660 OFFCURVE",
"202 674 OFFCURVE",
"186 674 CURVE SMOOTH",
"170 674 OFFCURVE",
"156 660 OFFCURVE",
"156 644 CURVE SMOOTH"
);
},
{
closed = 1;
nodes = (
"230 305 OFFCURVE",
"244 291 OFFCURVE",
"260 291 CURVE SMOOTH",
"276 291 OFFCURVE",
"290 304 OFFCURVE",
"290 321 CURVE SMOOTH",
"290 337 OFFCURVE",
"276 351 OFFCURVE",
"260 351 CURVE SMOOTH",
"244 351 OFFCURVE",
"230 337 OFFCURVE",
"230 321 CURVE SMOOTH"
);
},
{
closed = 1;
nodes = (
"237 628 OFFCURVE",
"251 614 OFFCURVE",
"267 614 CURVE SMOOTH",
"283 614 OFFCURVE",
"297 628 OFFCURVE",
"297 644 CURVE SMOOTH",
"297 660 OFFCURVE",
"283 674 OFFCURVE",
"267 674 CURVE SMOOTH",
"251 674 OFFCURVE",
"237 660 OFFCURVE",
"237 644 CURVE SMOOTH"
);
},
{
closed = 1;
nodes = (
"390 305 OFFCURVE",
"404 291 OFFCURVE",
"420 291 CURVE SMOOTH",
"436 291 OFFCURVE",
"450 305 OFFCURVE",
"450 321 CURVE SMOOTH",
"450 337 OFFCURVE",
"436 351 OFFCURVE",
"420 351 CURVE SMOOTH",
"404 351 OFFCURVE",
"390 337 OFFCURVE",
"390 321 CURVE SMOOTH"
);
},
{
closed = 1;
nodes = (
"400 621 OFFCURVE",
"415 606 OFFCURVE",
"432 606 CURVE SMOOTH",
"449 606 OFFCURVE",
"464 621 OFFCURVE",
"464 638 CURVE SMOOTH",
"464 655 OFFCURVE",
"449 670 OFFCURVE",
"432 670 CURVE SMOOTH",
"415 670 OFFCURVE",
"400 655 OFFCURVE",
"400 638 CURVE SMOOTH"
);
},
{
closed = 1;
nodes = (
"459 339 OFFCURVE",
"474 324 OFFCURVE",
"492 324 CURVE SMOOTH",
"510 324 OFFCURVE",
"525 340 OFFCURVE",
"525 357 CURVE SMOOTH",
"525 375 OFFCURVE",
"510 390 OFFCURVE",
"492 390 CURVE SMOOTH",
"474 390 OFFCURVE",
"459 375 OFFCURVE",
"459 357 CURVE SMOOTH"
);
},
{
closed = 1;
nodes = (
"511 498 OFFCURVE",
"527 482 OFFCURVE",
"546 482 CURVE SMOOTH",
"565 482 OFFCURVE",
"581 498 OFFCURVE",
"581 517 CURVE SMOOTH",
"581 536 OFFCURVE",
"565 552 OFFCURVE",
"546 552 CURVE SMOOTH",
"527 552 OFFCURVE",
"511 536 OFFCURVE",
"511 517 CURVE SMOOTH"
);
},
{
closed = 1;
nodes = (
"508 410 OFFCURVE",
"524 394 OFFCURVE",
"543 394 CURVE SMOOTH",
"562 394 OFFCURVE",
"578 410 OFFCURVE",
"578 429 CURVE SMOOTH",
"578 446 OFFCURVE",
"562 464 OFFCURVE",
"543 464 CURVE SMOOTH",
"524 464 OFFCURVE",
"508 448 OFFCURVE",
"508 429 CURVE SMOOTH"
);
},
{
closed = 1;
nodes = (
"310 305 OFFCURVE",
"324 291 OFFCURVE",
"340 291 CURVE SMOOTH",
"356 291 OFFCURVE",
"370 304 OFFCURVE",
"370 321 CURVE SMOOTH",
"370 337 OFFCURVE",
"356 351 OFFCURVE",
"340 351 CURVE SMOOTH",
"324 351 OFFCURVE",
"310 337 OFFCURVE",
"310 321 CURVE SMOOTH"
);
},
{
closed = 1;
nodes = (
"318 628 OFFCURVE",
"332 614 OFFCURVE",
"348 614 CURVE SMOOTH",
"364 614 OFFCURVE",
"378 628 OFFCURVE",
"378 644 CURVE SMOOTH",
"378 660 OFFCURVE",
"364 674 OFFCURVE",
"348 674 CURVE SMOOTH",
"332 674 OFFCURVE",
"318 660 OFFCURVE",
"318 644 CURVE SMOOTH"
);
},
{
closed = 1;
nodes = (
"70 625 OFFCURVE",
"85 609 OFFCURVE",
"103 609 CURVE SMOOTH",
"122 609 OFFCURVE",
"135 624 OFFCURVE",
"135 641 CURVE SMOOTH",
"135 660 OFFCURVE",
"122 674 OFFCURVE",
"103 674 CURVE SMOOTH",
"85 674 OFFCURVE",
"70 660 OFFCURVE",
"70 641 CURVE SMOOTH"
);
},
{
closed = 1;
nodes = (
"472 577 OFFCURVE",
"487 562 OFFCURVE",
"505 562 CURVE SMOOTH",
"523 562 OFFCURVE",
"538 577 OFFCURVE",
"538 595 CURVE SMOOTH",
"538 613 OFFCURVE",
"523 628 OFFCURVE",
"505 628 CURVE SMOOTH",
"487 628 OFFCURVE",
"472 613 OFFCURVE",
"472 595 CURVE SMOOTH"
);
}
);
width = 616;
}
);
note = P;
unicode = 0050;
},
{
glyphname = T;
lastChange = "2021-09-01 14:32:47 +0000";
layers = (
{
layerId = "197054AD-3E11-4C46-98D6-E9AEE179F0DA";
paths = (
{
closed = 1;
nodes = (
"242 406 OFFCURVE",
"257 421 OFFCURVE",
"275 421 CURVE SMOOTH",
"294 421 OFFCURVE",
"307 406 OFFCURVE",
"307 389 CURVE SMOOTH",
"307 371 OFFCURVE",
"294 356 OFFCURVE",
"275 356 CURVE SMOOTH",
"257 356 OFFCURVE",
"242 370 OFFCURVE",
"242 389 CURVE SMOOTH"
);
},
{
closed = 1;
nodes = (
"40 628 OFFCURVE",
"54 614 OFFCURVE",
"70 614 CURVE SMOOTH",
"86 614 OFFCURVE",
"100 628 OFFCURVE",
"100 644 CURVE SMOOTH",
"100 660 OFFCURVE",
"86 674 OFFCURVE",
"70 674 CURVE SMOOTH",
"54 674 OFFCURVE",
"40 660 OFFCURVE",
"40 644 CURVE SMOOTH"
);
},
{
closed = 1;
nodes = (
"122 628 OFFCURVE",
"136 614 OFFCURVE",
"152 614 CURVE SMOOTH",
"168 614 OFFCURVE",
"182 628 OFFCURVE",
"182 644 CURVE SMOOTH",
"182 660 OFFCURVE",
"168 674 OFFCURVE",
"152 674 CURVE SMOOTH",
"136 674 OFFCURVE",
"122 660 OFFCURVE",
"122 644 CURVE SMOOTH"
);
},
{
closed = 1;
nodes = (
"204 660 OFFCURVE",
"217 674 OFFCURVE",
"234 674 CURVE SMOOTH",
"251 674 OFFCURVE",
"264 660 OFFCURVE",
"264 644 CURVE SMOOTH",
"264 627 OFFCURVE",
"251 614 OFFCURVE",
"234 614 CURVE SMOOTH",
"218 614 OFFCURVE",
"204 627 OFFCURVE",
"204 644 CURVE SMOOTH"
);
},
{
closed = 1;
nodes = (
"242 15 OFFCURVE",
"257 1 OFFCURVE",
"275 0 CURVE SMOOTH",
"294 0 OFFCURVE",
"307 15 OFFCURVE",
"307 33 CURVE SMOOTH",
"307 51 OFFCURVE",
"294 65 OFFCURVE",
"275 65 CURVE SMOOTH",
"257 65 OFFCURVE",
"242 51 OFFCURVE",
"242 33 CURVE SMOOTH"
);
},
{
closed = 1;
nodes = (
"242 103 OFFCURVE",
"257 89 OFFCURVE",
"275 89 CURVE SMOOTH",
"294 89 OFFCURVE",
"307 103 OFFCURVE",
"307 122 CURVE SMOOTH",
"307 139 OFFCURVE",
"294 154 OFFCURVE",
"275 154 CURVE SMOOTH",
"257 154 OFFCURVE",
"242 138 OFFCURVE",
"242 122 CURVE SMOOTH"
);
},
{
closed = 1;
nodes = (
"242 228 OFFCURVE",
"257 243 OFFCURVE",
"275 243 CURVE SMOOTH",
"294 243 OFFCURVE",
"307 228 OFFCURVE",
"307 211 CURVE SMOOTH",
"307 193 OFFCURVE",
"294 178 OFFCURVE",
"275 178 CURVE SMOOTH",
"257 178 OFFCURVE",
"242 192 OFFCURVE",
"242 211 CURVE SMOOTH"
);
},
{
closed = 1;
nodes = (
"242 317 OFFCURVE",
"256 332 OFFCURVE",
"275 332 CURVE SMOOTH",
"293 332 OFFCURVE",
"307 317 OFFCURVE",
"307 300 CURVE SMOOTH",
"307 282 OFFCURVE",
"293 267 OFFCURVE",
"275 267 CURVE SMOOTH",
"257 267 OFFCURVE",
"242 281 OFFCURVE",
"242 300 CURVE SMOOTH"
);
},
{
closed = 1;
nodes = (
"242 495 OFFCURVE",
"257 510 OFFCURVE",
"275 510 CURVE SMOOTH",
"293 510 OFFCURVE",
"307 495 OFFCURVE",
"307 478 CURVE SMOOTH",
"307 460 OFFCURVE",
"293 445 OFFCURVE",
"275 445 CURVE SMOOTH",
"258 445 OFFCURVE",
"242 460 OFFCURVE",
"242 478 CURVE SMOOTH"
);
},
{
closed = 1;
nodes = (
"242 584 OFFCURVE",
"257 599 OFFCURVE",
"275 599 CURVE SMOOTH",
"294 599 OFFCURVE",
"307 584 OFFCURVE",
"307 567 CURVE SMOOTH",
"307 549 OFFCURVE",
"294 534 OFFCURVE",
"275 534 CURVE SMOOTH",
"257 534 OFFCURVE",
"242 548 OFFCURVE",
"242 567 CURVE SMOOTH"
);
},
{
closed = 1;
nodes = (
"286 628 OFFCURVE",
"300 614 OFFCURVE",
"316 614 CURVE SMOOTH",
"332 614 OFFCURVE",
"346 628 OFFCURVE",
"346 644 CURVE SMOOTH",
"346 660 OFFCURVE",
"332 674 OFFCURVE",
"316 674 CURVE SMOOTH",
"300 674 OFFCURVE",
"286 660 OFFCURVE",
"286 644 CURVE SMOOTH"
);
},
{
closed = 1;
nodes = (
"368 628 OFFCURVE",
"382 614 OFFCURVE",
"398 614 CURVE SMOOTH",
"414 614 OFFCURVE",
"428 628 OFFCURVE",
"428 644 CURVE SMOOTH",
"428 660 OFFCURVE",
"414 674 OFFCURVE",
"398 674 CURVE SMOOTH",
"382 674 OFFCURVE",
"368 660 OFFCURVE",
"368 644 CURVE SMOOTH"
);
},
{
closed = 1;
nodes = (
"450 628 OFFCURVE",
"464 614 OFFCURVE",
"480 614 CURVE SMOOTH",
"496 614 OFFCURVE",
"510 628 OFFCURVE",
"510 644 CURVE SMOOTH",
"510 660 OFFCURVE",
"496 674 OFFCURVE",
"480 674 CURVE SMOOTH",
"464 674 OFFCURVE",
"450 660 OFFCURVE",
"450 644 CURVE SMOOTH"
);
}
);
width = 550;
}
);
note = T;
unicode = 0054;
},
{
glyphname = b;
lastChange = "2021-09-01 22:33:52 +0000";
layers = (
{
layerId = "197054AD-3E11-4C46-98D6-E9AEE179F0DA";
paths = (
{
closed = 1;
nodes = (
"272 -2 OFFCURVE",
"259 -15 OFFCURVE",
"243 -15 CURVE SMOOTH",
"228 -15 OFFCURVE",
"215 -2 OFFCURVE",
"215 13 CURVE SMOOTH",
"215 29 OFFCURVE",
"228 42 OFFCURVE",
"243 42 CURVE SMOOTH",
"259 42 OFFCURVE",
"272 29 OFFCURVE",
"272 13 CURVE SMOOTH"
);
},
{
closed = 1;
nodes = (
"52 15 OFFCURVE",
"65 0 OFFCURVE",
"84 0 CURVE SMOOTH",
"102 1 OFFCURVE",
"117 15 OFFCURVE",
"117 33 CURVE SMOOTH",
"117 51 OFFCURVE",
"102 65 OFFCURVE",
"84 65 CURVE SMOOTH",
"65 65 OFFCURVE",
"52 51 OFFCURVE",
"52 33 CURVE SMOOTH"
);
},
{
closed = 1;
nodes = (
"72 101 OFFCURVE",
"85 87 OFFCURVE",
"104 87 CURVE SMOOTH",
"122 87 OFFCURVE",
"137 101 OFFCURVE",
"137 120 CURVE SMOOTH",
"137 136 OFFCURVE",
"122 152 OFFCURVE",
"104 152 CURVE SMOOTH",
"85 152 OFFCURVE",
"72 137 OFFCURVE",
"72 120 CURVE SMOOTH"
);
},
{
closed = 1;
nodes = (
"72 224 OFFCURVE",
"85 239 OFFCURVE",
"104 239 CURVE SMOOTH",
"122 239 OFFCURVE",
"137 224 OFFCURVE",
"137 207 CURVE SMOOTH",
"137 188 OFFCURVE",
"122 174 OFFCURVE",
"104 174 CURVE SMOOTH",
"85 174 OFFCURVE",
"72 189 OFFCURVE",
"72 207 CURVE SMOOTH"
);
},
{
closed = 1;
nodes = (
"72 311 OFFCURVE",
"86 326 OFFCURVE",
"104 326 CURVE SMOOTH",
"123 326 OFFCURVE",
"137 311 OFFCURVE",
"137 294 CURVE SMOOTH",
"137 275 OFFCURVE",
"122 261 OFFCURVE",
"104 261 CURVE SMOOTH",
"86 261 OFFCURVE",
"72 276 OFFCURVE",
"72 294 CURVE SMOOTH"
);
},
{
closed = 1;
nodes = (
"72 398 OFFCURVE",
"85 413 OFFCURVE",
"104 413 CURVE SMOOTH",
"122 413 OFFCURVE",
"137 398 OFFCURVE",
"137 381 CURVE SMOOTH",
"137 362 OFFCURVE",
"122 348 OFFCURVE",
"104 348 CURVE SMOOTH",
"85 348 OFFCURVE",
"72 363 OFFCURVE",
"72 381 CURVE SMOOTH"
);
},
{
closed = 1;
nodes = (
"72 485 OFFCURVE",
"86 500 OFFCURVE",
"104 500 CURVE SMOOTH",
"122 500 OFFCURVE",
"137 485 OFFCURVE",
"137 468 CURVE SMOOTH",
"137 450 OFFCURVE",
"121 435 OFFCURVE",
"104 435 CURVE SMOOTH",
"86 435 OFFCURVE",
"72 450 OFFCURVE",
"72 468 CURVE SMOOTH"
);
},
{
closed = 1;
nodes = (
"72 572 OFFCURVE",
"85 587 OFFCURVE",
"104 587 CURVE SMOOTH",
"122 587 OFFCURVE",
"137 572 OFFCURVE",
"137 555 CURVE SMOOTH",
"137 536 OFFCURVE",
"122 522 OFFCURVE",
"104 522 CURVE SMOOTH",
"85 522 OFFCURVE",
"72 537 OFFCURVE",
"72 555 CURVE SMOOTH"
);
},
{
closed = 1;
nodes = (
"72 659 OFFCURVE",
"86 674 OFFCURVE",
"104 674 CURVE SMOOTH",
"122 674 OFFCURVE",
"137 659 OFFCURVE",
"137 642 CURVE SMOOTH",
"137 624 OFFCURVE",
"121 609 OFFCURVE",
"104 609 CURVE SMOOTH",
"86 609 OFFCURVE",
"72 624 OFFCURVE",
"72 642 CURVE SMOOTH"
);
},
{
closed = 1;
nodes = (
"145 69 OFFCURVE",
"157 81 OFFCURVE",
"172 81 CURVE SMOOTH",
"188 81 OFFCURVE",
"199 69 OFFCURVE",
"199 54 CURVE SMOOTH",
"201 38 OFFCURVE",
"188 26 OFFCURVE",
"172 26 CURVE SMOOTH",
"157 26 OFFCURVE",
"145 38 OFFCURVE",
"145 54 CURVE SMOOTH"
);
},
{
closed = 1;
nodes = (
"153 449 OFFCURVE",
"165 461 OFFCURVE",
"179 461 CURVE SMOOTH",
"194 461 OFFCURVE",
"205 449 OFFCURVE",
"205 435 CURVE",
"207 420 OFFCURVE",
"194 408 OFFCURVE",
"179 408 CURVE SMOOTH",
"165 408 OFFCURVE",
"153 420 OFFCURVE",
"153 435 CURVE SMOOTH"
);
},
{
closed = 1;
nodes = (
"210 493 OFFCURVE",
"222 505 OFFCURVE",
"236 505 CURVE SMOOTH",
"251 505 OFFCURVE",
"262 493 OFFCURVE",
"262 479 CURVE",
"264 464 OFFCURVE",
"251 452 OFFCURVE",
"236 452 CURVE SMOOTH",
"222 452 OFFCURVE",
"210 464 OFFCURVE",
"210 479 CURVE SMOOTH"
);
},
{
closed = 1;
nodes = (
"282 502 OFFCURVE",
"294 515 OFFCURVE",
"310 515 CURVE SMOOTH",
"325 515 OFFCURVE",
"338 502 OFFCURVE",
"338 487 CURVE SMOOTH",
"338 471 OFFCURVE",
"325 458 OFFCURVE",
"310 458 CURVE SMOOTH",
"294 458 OFFCURVE",
"280 471 OFFCURVE",
"282 487 CURVE SMOOTH"
);
},
{
closed = 1;
nodes = (
"293 29 OFFCURVE",
"305 42 OFFCURVE",
"321 42 CURVE SMOOTH",
"336 42 OFFCURVE",
"349 29 OFFCURVE",
"349 13 CURVE SMOOTH",
"349 -2 OFFCURVE",
"336 -15 OFFCURVE",
"321 -15 CURVE SMOOTH",
"305 -15 OFFCURVE",
"293 -2 OFFCURVE",
"293 13 CURVE SMOOTH"
);
},
{
closed = 1;
nodes = (
"350 473 OFFCURVE",
"365 488 OFFCURVE",
"381 488 CURVE SMOOTH",
"399 488 OFFCURVE",
"412 473 OFFCURVE",
"412 457 CURVE SMOOTH",
"412 439 OFFCURVE",
"399 426 OFFCURVE",
"381 426 CURVE SMOOTH",
"364 426 OFFCURVE",
"350 440 OFFCURVE",
"350 457 CURVE SMOOTH"
);
},
{
closed = 1;
nodes = (
"361 64 OFFCURVE",
"375 78 OFFCURVE",
"392 78 CURVE SMOOTH",
"410 78 OFFCURVE",
"423 65 OFFCURVE",
"423 47 CURVE SMOOTH",
"423 31 OFFCURVE",
"410 16 OFFCURVE",
"392 16 CURVE SMOOTH",
"376 16 OFFCURVE",
"361 31 OFFCURVE",
"361 47 CURVE SMOOTH"
);
},
{
closed = 1;
nodes = (
"406 96 OFFCURVE",
"421 81 OFFCURVE",
"439 81 CURVE SMOOTH",
"457 81 OFFCURVE",
"472 96 OFFCURVE",
"472 114 CURVE SMOOTH",
"472 132 OFFCURVE",
"457 147 OFFCURVE",
"439 147 CURVE SMOOTH",
"421 147 OFFCURVE",
"406 133 OFFCURVE",
"406 114 CURVE SMOOTH"
);
},
{
closed = 1;
nodes = (
"406 367 OFFCURVE",
"421 353 OFFCURVE",
"439 353 CURVE SMOOTH",
"457 353 OFFCURVE",
"472 368 OFFCURVE",
"472 386 CURVE SMOOTH",
"472 404 OFFCURVE",
"457 419 OFFCURVE",
"439 419 CURVE SMOOTH",
"421 419 OFFCURVE",
"406 404 OFFCURVE",
"406 386 CURVE SMOOTH"
);
},
{
closed = 1;
nodes = (
"419 186 OFFCURVE",
"434 170 OFFCURVE",
"454 170 CURVE SMOOTH",
"473 170 OFFCURVE",
"489 186 OFFCURVE",
"489 205 CURVE SMOOTH",
"489 223 OFFCURVE",
"473 240 OFFCURVE",
"454 240 CURVE SMOOTH",
"435 240 OFFCURVE",
"419 224 OFFCURVE",
"419 205 CURVE SMOOTH"
);
},
{
closed = 1;
nodes = (
"419 278 OFFCURVE",
"435 262 OFFCURVE",
"454 262 CURVE SMOOTH",
"473 262 OFFCURVE",
"489 276 OFFCURVE",
"489 297 CURVE SMOOTH",
"489 316 OFFCURVE",
"473 332 OFFCURVE",
"454 332 CURVE SMOOTH",
"434 332 OFFCURVE",
"419 316 OFFCURVE",
"419 297 CURVE SMOOTH"
);
}
);
width = 543;
}
);
note = b;
unicode = 0062;
},
{
glyphname = e;
lastChange = "2021-09-01 21:55:27 +0000";
layers = (
{
background = {
paths = (
{
closed = 1;
nodes = (
"628 268 OFFCURVE",
"641 255 OFFCURVE",
"657 255 CURVE SMOOTH",
"673 255 OFFCURVE",
"686 268 OFFCURVE",
"686 284 CURVE SMOOTH",
"686 300 OFFCURVE",
"673 313 OFFCURVE",
"657 313 CURVE SMOOTH",
"641 313 OFFCURVE",
"628 300 OFFCURVE",
"628 284 CURVE SMOOTH"
);
},
{
closed = 1;
nodes = (
"708 268 OFFCURVE",
"721 255 OFFCURVE",
"737 255 CURVE SMOOTH",
"753 255 OFFCURVE",
"766 268 OFFCURVE",
"766 284 CURVE SMOOTH",
"766 301 OFFCURVE",
"753 313 OFFCURVE",
"737 313 CURVE SMOOTH",
"721 313 OFFCURVE",
"708 300 OFFCURVE",
"708 284 CURVE SMOOTH"
);
},
{
closed = 1;
nodes = (
"788 268 OFFCURVE",
"801 255 OFFCURVE",
"817 255 CURVE SMOOTH",
"833 255 OFFCURVE",
"846 268 OFFCURVE",
"846 284 CURVE SMOOTH",
"846 300 OFFCURVE",
"832 313 OFFCURVE",
"817 313 CURVE SMOOTH",
"801 313 OFFCURVE",
"788 300 OFFCURVE",
"788 284 CURVE SMOOTH"
);
},
{
closed = 1;
nodes = (
"814 54 OFFCURVE",
"828 67 OFFCURVE",
"844 67 CURVE SMOOTH",
"859 67 OFFCURVE",
"872 53 OFFCURVE",
"872 38 CURVE SMOOTH",
"872 23 OFFCURVE",
"859 10 OFFCURVE",
"844 10 CURVE SMOOTH",
"828 10 OFFCURVE",
"816 23 OFFCURVE",
"816 38 CURVE SMOOTH"
);
},
{
closed = 1;
nodes = (
"865 107 OFFCURVE",
"879 120 OFFCURVE",
"895 120 CURVE SMOOTH",
"910 120 OFFCURVE",
"923 106 OFFCURVE",
"923 91 CURVE SMOOTH",
"923 76 OFFCURVE",
"910 63 OFFCURVE",
"895 63 CURVE SMOOTH",
"879 63 OFFCURVE",
"867 76 OFFCURVE",
"867 91 CURVE SMOOTH"
);
},
{
closed = 1;
nodes = (
"725 471 OFFCURVE",
"713 458 OFFCURVE",
"697 458 CURVE SMOOTH",
"682 458 OFFCURVE",
"669 471 OFFCURVE",
"669 487 CURVE SMOOTH",
"669 502 OFFCURVE",
"682 515 OFFCURVE",
"697 515 CURVE SMOOTH",
"713 515 OFFCURVE",
"725 502 OFFCURVE",
"725 487 CURVE SMOOTH"
);
},
{
closed = 1;
nodes = (
"535 274 OFFCURVE",
"551 260 OFFCURVE",
"569 260 CURVE SMOOTH",
"587 260 OFFCURVE",
"603 274 OFFCURVE",
"603 292 CURVE SMOOTH",
"603 311 OFFCURVE",
"589 326 OFFCURVE",
"569 326 CURVE SMOOTH",
"551 326 OFFCURVE",
"535 310 OFFCURVE",
"535 292 CURVE SMOOTH"
);
},
{
closed = 1;
nodes = (
"550 362 OFFCURVE",
"565 347 OFFCURVE",
"583 347 CURVE SMOOTH",
"601 347 OFFCURVE",
"616 361 OFFCURVE",
"616 380 CURVE SMOOTH",
"616 398 OFFCURVE",
"601 413 OFFCURVE",
"583 413 CURVE SMOOTH",
"565 413 OFFCURVE",
"550 398 OFFCURVE",
"550 380 CURVE SMOOTH"
);
},
{
closed = 1;
nodes = (
"597 467 OFFCURVE",
"610 482 OFFCURVE",
"628 482 CURVE SMOOTH",
"645 482 OFFCURVE",
"659 467 OFFCURVE",
"659 451 CURVE SMOOTH",
"659 434 OFFCURVE",
"645 420 OFFCURVE",
"628 420 CURVE SMOOTH",
"610 420 OFFCURVE",
"597 433 OFFCURVE",
"597 451 CURVE SMOOTH"
);
},
{
closed = 1;
nodes = (
"747 502 OFFCURVE",
"759 515 OFFCURVE",
"775 515 CURVE SMOOTH",
"790 515 OFFCURVE",
"803 502 OFFCURVE",
"803 487 CURVE SMOOTH",
"803 471 OFFCURVE",
"790 458 OFFCURVE",
"775 458 CURVE SMOOTH",
"759 458 OFFCURVE",
"747 471 OFFCURVE",
"747 487 CURVE SMOOTH"
);
},
{
closed = 1;
nodes = (
"813 467 OFFCURVE",
"827 482 OFFCURVE",
"844 482 CURVE SMOOTH",
"862 482 OFFCURVE",
"875 467 OFFCURVE",
"875 451 CURVE SMOOTH",
"875 433 OFFCURVE",
"862 420 OFFCURVE",
"844 420 CURVE SMOOTH",
"827 420 OFFCURVE",
"813 434 OFFCURVE",
"813 451 CURVE SMOOTH"
);
},
{
closed = 1;
nodes = (
"856 361 OFFCURVE",
"871 347 OFFCURVE",
"889 347 CURVE SMOOTH",
"907 347 OFFCURVE",
"922 362 OFFCURVE",
"922 380 CURVE SMOOTH",
"922 398 OFFCURVE",
"907 413 OFFCURVE",
"889 413 CURVE SMOOTH",
"871 413 OFFCURVE",
"856 398 OFFCURVE",
"856 380 CURVE SMOOTH"
);
},
{
closed = 1;
nodes = (
"869 274 OFFCURVE",
"885 260 OFFCURVE",
"903 260 CURVE SMOOTH",
"921 260 OFFCURVE",
"937 275 OFFCURVE",
"937 292 CURVE SMOOTH",
"937 310 OFFCURVE",
"921 326 OFFCURVE",
"903 326 CURVE SMOOTH",
"884 326 OFFCURVE",
"869 310 OFFCURVE",
"869 292 CURVE SMOOTH"
);
},
{
closed = 1;
nodes = (
"725 -2 OFFCURVE",
"713 -15 OFFCURVE",
"697 -15 CURVE SMOOTH",
"682 -15 OFFCURVE",
"669 -2 OFFCURVE",
"669 13 CURVE SMOOTH",
"669 29 OFFCURVE",
"682 42 OFFCURVE",
"697 42 CURVE SMOOTH",
"713 42 OFFCURVE",
"725 29 OFFCURVE",
"725 13 CURVE SMOOTH"
);
},
{
closed = 1;
nodes = (
"535 190 OFFCURVE",
"551 174 OFFCURVE",
"569 174 CURVE SMOOTH",
"589 174 OFFCURVE",
"603 189 OFFCURVE",
"603 208 CURVE SMOOTH",
"603 226 OFFCURVE",
"587 240 OFFCURVE",
"569 240 CURVE SMOOTH",
"551 240 OFFCURVE",
"535 226 OFFCURVE",
"535 208 CURVE SMOOTH"
);
},
{
closed = 1;
nodes = (
"550 102 OFFCURVE",
"565 87 OFFCURVE",
"583 87 CURVE SMOOTH",
"601 87 OFFCURVE",
"616 102 OFFCURVE",
"616 120 CURVE SMOOTH",
"616 139 OFFCURVE",
"601 153 OFFCURVE",
"583 153 CURVE SMOOTH",
"565 153 OFFCURVE",
"550 138 OFFCURVE",
"550 120 CURVE SMOOTH"
);
},
{
closed = 1;
nodes = (
"597 67 OFFCURVE",
"610 80 OFFCURVE",
"628 80 CURVE SMOOTH",
"645 80 OFFCURVE",
"659 66 OFFCURVE",
"659 49 CURVE SMOOTH",
"659 33 OFFCURVE",
"645 18 OFFCURVE",
"628 18 CURVE SMOOTH",
"610 18 OFFCURVE",
"597 33 OFFCURVE",
"597 49 CURVE SMOOTH"
);
},
{
closed = 1;
nodes = (
"747 29 OFFCURVE",
"759 42 OFFCURVE",
"775 42 CURVE SMOOTH",
"790 42 OFFCURVE",
"803 29 OFFCURVE",
"803 13 CURVE SMOOTH",
"803 -2 OFFCURVE",
"790 -15 OFFCURVE",
"775 -15 CURVE SMOOTH",
"759 -15 OFFCURVE",
"747 -2 OFFCURVE",
"747 13 CURVE SMOOTH"
);
},
{
closed = 1;
nodes = (
"246 -2 OFFCURVE",
"234 -15 OFFCURVE",
"218 -15 CURVE SMOOTH",
"203 -15 OFFCURVE",
"190 -2 OFFCURVE",
"190 13 CURVE SMOOTH",
"190 29 OFFCURVE",
"203 42 OFFCURVE",
"218 42 CURVE SMOOTH",
"234 42 OFFCURVE",
"248 29 OFFCURVE",
"246 13 CURVE SMOOTH"
);
},
{
closed = 1;
nodes = (
"55 186 OFFCURVE",
"71 170 OFFCURVE",
"90 170 CURVE SMOOTH",
"110 170 OFFCURVE",
"125 186 OFFCURVE",
"125 205 CURVE SMOOTH",
"125 224 OFFCURVE",
"109 240 OFFCURVE",
"90 240 CURVE SMOOTH",
"71 240 OFFCURVE",
"55 224 OFFCURVE",
"55 205 CURVE SMOOTH"
);
},
{
closed = 1;
nodes = (
"55 278 OFFCURVE",
"71 262 OFFCURVE",
"90 262 CURVE SMOOTH",
"109 262 OFFCURVE",
"125 278 OFFCURVE",
"125 297 CURVE SMOOTH",
"125 316 OFFCURVE",
"110 332 OFFCURVE",
"90 332 CURVE SMOOTH",
"71 332 OFFCURVE",
"55 316 OFFCURVE",
"55 297 CURVE SMOOTH"
);
},
{
closed = 1;
nodes = (
"72 96 OFFCURVE",
"87 81 OFFCURVE",
"105 81 CURVE SMOOTH",
"123 81 OFFCURVE",
"138 96 OFFCURVE",
"138 114 CURVE SMOOTH",
"138 133 OFFCURVE",
"123 147 OFFCURVE",
"105 147 CURVE SMOOTH",
"87 147 OFFCURVE",
"72 132 OFFCURVE",
"72 114 CURVE SMOOTH"
);
},
{
closed = 1;
nodes = (
"72 368 OFFCURVE",
"87 353 OFFCURVE",
"105 353 CURVE SMOOTH",
"122 353 OFFCURVE",
"138 367 OFFCURVE",
"138 386 CURVE SMOOTH",
"138 404 OFFCURVE",
"123 419 OFFCURVE",
"105 419 CURVE SMOOTH",
"87 419 OFFCURVE",
"72 404 OFFCURVE",
"72 386 CURVE SMOOTH"
);
},
{
closed = 1;
nodes = (
"121 65 OFFCURVE",
"134 78 OFFCURVE",
"152 78 CURVE SMOOTH",
"169 78 OFFCURVE",
"183 64 OFFCURVE",
"183 47 CURVE SMOOTH",
"183 31 OFFCURVE",
"168 16 OFFCURVE",
"152 16 CURVE SMOOTH",
"134 16 OFFCURVE",
"121 31 OFFCURVE",
"121 47 CURVE SMOOTH"
);
},
{
closed = 1;
nodes = (
"121 471 OFFCURVE",
"134 486 OFFCURVE",
"152 486 CURVE SMOOTH",
"168 486 OFFCURVE",
"183 471 OFFCURVE",
"183 455 CURVE SMOOTH",
"183 438 OFFCURVE",
"169 424 OFFCURVE",
"152 424 CURVE SMOOTH",
"134 424 OFFCURVE",
"121 437 OFFCURVE",
"121 455 CURVE SMOOTH"
);
},
{
closed = 1;
nodes = (
"148 268 OFFCURVE",
"161 255 OFFCURVE",
"177 255 CURVE SMOOTH",
"193 255 OFFCURVE",
"206 268 OFFCURVE",
"206 284 CURVE SMOOTH",
"206 300 OFFCURVE",
"193 313 OFFCURVE",
"177 313 CURVE SMOOTH",
"161 313 OFFCURVE",
"148 300 OFFCURVE",
"148 284 CURVE SMOOTH"
);
},
{
closed = 1;
nodes = (
"190 504 OFFCURVE",
"203 517 OFFCURVE",
"218 517 CURVE SMOOTH",
"234 517 OFFCURVE",
"246 504 OFFCURVE",
"246 489 CURVE SMOOTH",
"248 473 OFFCURVE",
"234 460 OFFCURVE",
"218 460 CURVE SMOOTH",
"203 460 OFFCURVE",
"190 473 OFFCURVE",
"190 489 CURVE SMOOTH"
);
},
{
closed = 1;
nodes = (
"228 268 OFFCURVE",
"241 255 OFFCURVE",
"257 255 CURVE SMOOTH",
"273 255 OFFCURVE",
"286 268 OFFCURVE",
"286 284 CURVE SMOOTH",
"286 301 OFFCURVE",
"273 313 OFFCURVE",
"257 313 CURVE SMOOTH",
"241 313 OFFCURVE",
"228 300 OFFCURVE",
"228 284 CURVE SMOOTH"
);
},
{
closed = 1;
nodes = (
"266 29 OFFCURVE",
"280 42 OFFCURVE",
"296 42 CURVE SMOOTH",
"311 42 OFFCURVE",
"324 29 OFFCURVE",
"324 13 CURVE SMOOTH",
"324 -2 OFFCURVE",
"311 -15 OFFCURVE",
"296 -15 CURVE SMOOTH",
"280 -15 OFFCURVE",
"268 -2 OFFCURVE",
"268 13 CURVE SMOOTH"
);
},
{
closed = 1;
nodes = (
"268 504 OFFCURVE",
"280 517 OFFCURVE",
"296 517 CURVE SMOOTH",
"311 517 OFFCURVE",
"324 504 OFFCURVE",
"324 489 CURVE SMOOTH",
"324 473 OFFCURVE",
"311 460 OFFCURVE",
"296 460 CURVE SMOOTH",
"280 460 OFFCURVE",
"266 473 OFFCURVE",
"268 489 CURVE SMOOTH"
);
},
{
closed = 1;
nodes = (
"308 268 OFFCURVE",
"321 255 OFFCURVE",
"337 255 CURVE SMOOTH",
"353 255 OFFCURVE",
"366 268 OFFCURVE",
"366 284 CURVE SMOOTH",
"366 300 OFFCURVE",
"352 313 OFFCURVE",
"337 313 CURVE SMOOTH",
"321 313 OFFCURVE",
"308 300 OFFCURVE",
"308 284 CURVE SMOOTH"
);
},
{
closed = 1;
nodes = (
"331 471 OFFCURVE",
"346 486 OFFCURVE",
"362 486 CURVE SMOOTH",
"380 486 OFFCURVE",
"393 471 OFFCURVE",
"393 455 CURVE SMOOTH",
"393 437 OFFCURVE",
"380 424 OFFCURVE",
"362 424 CURVE SMOOTH",
"345 424 OFFCURVE",
"331 438 OFFCURVE",
"331 455 CURVE SMOOTH"
);
},
{
closed = 1;
nodes = (
"334 54 OFFCURVE",
"348 67 OFFCURVE",
"364 67 CURVE SMOOTH",
"379 67 OFFCURVE",
"392 53 OFFCURVE",
"392 38 CURVE SMOOTH",
"392 23 OFFCURVE",
"379 10 OFFCURVE",
"364 10 CURVE SMOOTH",
"348 10 OFFCURVE",
"336 23 OFFCURVE",
"336 38 CURVE SMOOTH"
);
},
{
closed = 1;
nodes = (
"376 367 OFFCURVE",
"391 353 OFFCURVE",
"409 353 CURVE SMOOTH",
"427 353 OFFCURVE",
"442 368 OFFCURVE",
"442 386 CURVE SMOOTH",
"442 404 OFFCURVE",
"427 419 OFFCURVE",
"409 419 CURVE SMOOTH",
"391 419 OFFCURVE",
"376 404 OFFCURVE",
"376 386 CURVE SMOOTH"
);
},
{
closed = 1;
nodes = (
"385 107 OFFCURVE",
"399 120 OFFCURVE",
"415 120 CURVE SMOOTH",
"430 120 OFFCURVE",
"443 106 OFFCURVE",
"443 91 CURVE SMOOTH",
"443 76 OFFCURVE",
"430 63 OFFCURVE",
"415 63 CURVE SMOOTH",
"399 63 OFFCURVE",
"387 76 OFFCURVE",
"387 91 CURVE SMOOTH"
);
},
{
closed = 1;
nodes = (
"389 278 OFFCURVE",
"405 262 OFFCURVE",
"424 262 CURVE SMOOTH",
"443 262 OFFCURVE",
"459 276 OFFCURVE",
"459 297 CURVE SMOOTH",
"459 316 OFFCURVE",
"443 332 OFFCURVE",
"424 332 CURVE SMOOTH",
"404 332 OFFCURVE",
"389 316 OFFCURVE",
"389 297 CURVE SMOOTH"
);
}
);
};
layerId = "197054AD-3E11-4C46-98D6-E9AEE179F0DA";
paths = (
{
closed = 1;
nodes = (
"148 268 OFFCURVE",
"161 255 OFFCURVE",
"177 255 CURVE SMOOTH",
"193 255 OFFCURVE",
"206 268 OFFCURVE",
"206 284 CURVE SMOOTH",
"206 300 OFFCURVE",
"193 313 OFFCURVE",
"177 313 CURVE SMOOTH",
"161 313 OFFCURVE",
"148 300 OFFCURVE",
"148 284 CURVE SMOOTH"
);
},
{
closed = 1;
nodes = (
"228 268 OFFCURVE",
"241 255 OFFCURVE",
"257 255 CURVE SMOOTH",
"273 255 OFFCURVE",
"286 268 OFFCURVE",
"286 284 CURVE SMOOTH",
"286 301 OFFCURVE",
"273 313 OFFCURVE",
"257 313 CURVE SMOOTH",
"241 313 OFFCURVE",
"228 300 OFFCURVE",
"228 284 CURVE SMOOTH"
);
},
{
closed = 1;
nodes = (
"308 268 OFFCURVE",
"321 255 OFFCURVE",
"337 255 CURVE SMOOTH",
"353 255 OFFCURVE",
"366 268 OFFCURVE",
"366 284 CURVE SMOOTH",
"366 300 OFFCURVE",
"352 313 OFFCURVE",
"337 313 CURVE SMOOTH",
"321 313 OFFCURVE",
"308 300 OFFCURVE",
"308 284 CURVE SMOOTH"
);
},
{
closed = 1;
nodes = (
"334 54 OFFCURVE",
"348 67 OFFCURVE",
"364 67 CURVE SMOOTH",
"379 67 OFFCURVE",
"392 53 OFFCURVE",
"392 38 CURVE SMOOTH",
"392 23 OFFCURVE",
"379 10 OFFCURVE",
"364 10 CURVE SMOOTH",
"348 10 OFFCURVE",
"336 23 OFFCURVE",
"336 38 CURVE SMOOTH"
);
},
{
closed = 1;
nodes = (
"385 107 OFFCURVE",
"399 120 OFFCURVE",
"415 120 CURVE SMOOTH",
"430 120 OFFCURVE",
"443 106 OFFCURVE",
"443 91 CURVE SMOOTH",
"443 76 OFFCURVE",
"430 63 OFFCURVE",
"415 63 CURVE SMOOTH",
"399 63 OFFCURVE",
"387 76 OFFCURVE",
"387 91 CURVE SMOOTH"
);
},
{
closed = 1;
nodes = (
"245 471 OFFCURVE",
"233 458 OFFCURVE",
"217 458 CURVE SMOOTH",
"202 458 OFFCURVE",
"189 471 OFFCURVE",
"189 487 CURVE SMOOTH",
"189 502 OFFCURVE",
"202 515 OFFCURVE",
"217 515 CURVE SMOOTH",
"233 515 OFFCURVE",
"245 502 OFFCURVE",
"245 487 CURVE SMOOTH"
);
},
{
closed = 1;
nodes = (
"55 274 OFFCURVE",
"71 260 OFFCURVE",
"89 260 CURVE SMOOTH",
"107 260 OFFCURVE",
"123 274 OFFCURVE",
"123 292 CURVE SMOOTH",
"123 311 OFFCURVE",
"109 326 OFFCURVE",
"89 326 CURVE SMOOTH",
"71 326 OFFCURVE",
"55 310 OFFCURVE",
"55 292 CURVE SMOOTH"
);
},
{
closed = 1;
nodes = (
"70 362 OFFCURVE",
"85 347 OFFCURVE",
"103 347 CURVE SMOOTH",
"121 347 OFFCURVE",
"136 361 OFFCURVE",
"136 380 CURVE SMOOTH",
"136 398 OFFCURVE",
"121 413 OFFCURVE",
"103 413 CURVE SMOOTH",
"85 413 OFFCURVE",
"70 398 OFFCURVE",
"70 380 CURVE SMOOTH"
);
},
{
closed = 1;
nodes = (
"117 467 OFFCURVE",
"130 482 OFFCURVE",
"148 482 CURVE SMOOTH",
"165 482 OFFCURVE",
"179 467 OFFCURVE",
"179 451 CURVE SMOOTH",
"179 434 OFFCURVE",
"165 420 OFFCURVE",
"148 420 CURVE SMOOTH",
"130 420 OFFCURVE",
"117 433 OFFCURVE",
"117 451 CURVE SMOOTH"
);
},
{
closed = 1;
nodes = (
"267 502 OFFCURVE",
"279 515 OFFCURVE",
"295 515 CURVE SMOOTH",
"310 515 OFFCURVE",
"323 502 OFFCURVE",
"323 487 CURVE SMOOTH",
"323 471 OFFCURVE",
"310 458 OFFCURVE",
"295 458 CURVE SMOOTH",
"279 458 OFFCURVE",
"267 471 OFFCURVE",
"267 487 CURVE SMOOTH"
);
},
{
closed = 1;
nodes = (
"333 467 OFFCURVE",
"347 482 OFFCURVE",
"364 482 CURVE SMOOTH",
"382 482 OFFCURVE",
"395 467 OFFCURVE",
"395 451 CURVE SMOOTH",
"395 433 OFFCURVE",
"382 420 OFFCURVE",
"364 420 CURVE SMOOTH",
"347 420 OFFCURVE",
"333 434 OFFCURVE",
"333 451 CURVE SMOOTH"
);
},
{
closed = 1;
nodes = (
"376 361 OFFCURVE",
"391 347 OFFCURVE",
"409 347 CURVE SMOOTH",
"427 347 OFFCURVE",
"442 362 OFFCURVE",
"442 380 CURVE SMOOTH",
"442 398 OFFCURVE",
"427 413 OFFCURVE",
"409 413 CURVE SMOOTH",
"391 413 OFFCURVE",
"376 398 OFFCURVE",
"376 380 CURVE SMOOTH"
);
},
{
closed = 1;
nodes = (
"389 274 OFFCURVE",
"405 260 OFFCURVE",
"423 260 CURVE SMOOTH",
"441 260 OFFCURVE",
"457 275 OFFCURVE",
"457 292 CURVE SMOOTH",
"457 310 OFFCURVE",
"441 326 OFFCURVE",
"423 326 CURVE SMOOTH",
"404 326 OFFCURVE",
"389 310 OFFCURVE",
"389 292 CURVE SMOOTH"
);
},
{
closed = 1;
nodes = (
"245 -2 OFFCURVE",
"233 -15 OFFCURVE",
"217 -15 CURVE SMOOTH",
"202 -15 OFFCURVE",
"189 -2 OFFCURVE",
"189 13 CURVE SMOOTH",
"189 29 OFFCURVE",
"202 42 OFFCURVE",
"217 42 CURVE SMOOTH",
"233 42 OFFCURVE",
"245 29 OFFCURVE",
"245 13 CURVE SMOOTH"
);
},
{
closed = 1;
nodes = (
"55 190 OFFCURVE",
"71 174 OFFCURVE",
"89 174 CURVE SMOOTH",
"109 174 OFFCURVE",
"123 189 OFFCURVE",
"123 208 CURVE SMOOTH",
"123 226 OFFCURVE",
"107 240 OFFCURVE",
"89 240 CURVE SMOOTH",
"71 240 OFFCURVE",
"55 226 OFFCURVE",
"55 208 CURVE SMOOTH"
);
},
{
closed = 1;
nodes = (
"70 102 OFFCURVE",
"85 87 OFFCURVE",
"103 87 CURVE SMOOTH",
"121 87 OFFCURVE",
"136 102 OFFCURVE",
"136 120 CURVE SMOOTH",
"136 139 OFFCURVE",
"121 153 OFFCURVE",
"103 153 CURVE SMOOTH",
"85 153 OFFCURVE",
"70 138 OFFCURVE",
"70 120 CURVE SMOOTH"
);
},
{
closed = 1;
nodes = (
"117 67 OFFCURVE",
"130 80 OFFCURVE",
"148 80 CURVE SMOOTH",
"165 80 OFFCURVE",
"179 66 OFFCURVE",
"179 49 CURVE SMOOTH",
"179 33 OFFCURVE",
"165 18 OFFCURVE",
"148 18 CURVE SMOOTH",
"130 18 OFFCURVE",
"117 33 OFFCURVE",
"117 49 CURVE SMOOTH"
);
},
{
closed = 1;
nodes = (
"267 29 OFFCURVE",
"279 42 OFFCURVE",
"295 42 CURVE SMOOTH",
"310 42 OFFCURVE",
"323 29 OFFCURVE",
"323 13 CURVE SMOOTH",
"323 -2 OFFCURVE",
"310 -15 OFFCURVE",
"295 -15 CURVE SMOOTH",
"279 -15 OFFCURVE",
"267 -2 OFFCURVE",
"267 13 CURVE SMOOTH"
);
}
);
width = 512;
}
);
note = e;
unicode = 0065;
},
{
glyphname = i;
lastChange = "2021-09-02 00:40:44 +0000";
layers = (
{
layerId = "197054AD-3E11-4C46-98D6-E9AEE179F0DA";
paths = (
{
closed = 1;
nodes = (
"70 584 OFFCURVE",
"87 567 OFFCURVE",
"107 567 CURVE SMOOTH",
"127 567 OFFCURVE",
"145 584 OFFCURVE",
"145 605 CURVE SMOOTH",
"145 625 OFFCURVE",
"127 642 OFFCURVE",
"107 642 CURVE SMOOTH",
"87 642 OFFCURVE",
"70 625 OFFCURVE",
"70 605 CURVE SMOOTH"
);
},
{
closed = 1;
nodes = (
"75 15 OFFCURVE",
"88 0 OFFCURVE",
"107 0 CURVE SMOOTH",
"125 1 OFFCURVE",
"140 15 OFFCURVE",
"140 33 CURVE SMOOTH",
"140 51 OFFCURVE",
"125 65 OFFCURVE",
"107 65 CURVE SMOOTH",
"88 65 OFFCURVE",
"75 51 OFFCURVE",
"75 33 CURVE SMOOTH"
);
},
{
closed = 1;
nodes = (
"75 101 OFFCURVE",
"88 87 OFFCURVE",
"107 87 CURVE SMOOTH",
"125 87 OFFCURVE",
"140 101 OFFCURVE",
"140 120 CURVE SMOOTH",
"140 136 OFFCURVE",
"125 152 OFFCURVE",
"107 152 CURVE SMOOTH",
"88 152 OFFCURVE",
"75 137 OFFCURVE",
"75 120 CURVE SMOOTH"
);
},
{
closed = 1;
nodes = (
"75 224 OFFCURVE",
"88 239 OFFCURVE",
"107 239 CURVE SMOOTH",
"125 239 OFFCURVE",
"140 224 OFFCURVE",
"140 207 CURVE SMOOTH",
"140 188 OFFCURVE",
"125 174 OFFCURVE",
"107 174 CURVE SMOOTH",
"88 174 OFFCURVE",
"75 189 OFFCURVE",
"75 207 CURVE SMOOTH"
);
},
{
closed = 1;
nodes = (
"75 311 OFFCURVE",
"89 326 OFFCURVE",
"107 326 CURVE SMOOTH",
"126 326 OFFCURVE",
"140 311 OFFCURVE",
"140 294 CURVE SMOOTH",
"140 275 OFFCURVE",
"125 261 OFFCURVE",
"107 261 CURVE SMOOTH",
"89 261 OFFCURVE",
"75 276 OFFCURVE",
"75 294 CURVE SMOOTH"
);
},
{
closed = 1;
nodes = (
"75 398 OFFCURVE",
"88 413 OFFCURVE",
"107 413 CURVE SMOOTH",
"125 413 OFFCURVE",
"140 398 OFFCURVE",
"140 381 CURVE SMOOTH",
"140 362 OFFCURVE",
"125 348 OFFCURVE",
"107 348 CURVE SMOOTH",
"88 348 OFFCURVE",
"75 363 OFFCURVE",
"75 381 CURVE SMOOTH"
);
},
{
closed = 1;
nodes = (
"75 485 OFFCURVE",
"89 500 OFFCURVE",
"107 500 CURVE SMOOTH",
"125 500 OFFCURVE",
"140 485 OFFCURVE",
"140 468 CURVE SMOOTH",
"140 450 OFFCURVE",
"124 435 OFFCURVE",
"107 435 CURVE SMOOTH",
"89 435 OFFCURVE",
"75 450 OFFCURVE",
"75 468 CURVE SMOOTH"
);
}
);
width = 215;
}
);
note = i;
unicode = 0069;
},
{
glyphname = l;
lastChange = "2021-09-02 00:42:10 +0000";
layers = (
{
layerId = "197054AD-3E11-4C46-98D6-E9AEE179F0DA";
paths = (
{
closed = 1;
nodes = (
"70 396 OFFCURVE",
"85 411 OFFCURVE",
"103 411 CURVE SMOOTH",
"122 411 OFFCURVE",
"135 396 OFFCURVE",
"135 379 CURVE SMOOTH",
"135 361 OFFCURVE",
"122 346 OFFCURVE",
"103 346 CURVE SMOOTH",
"85 346 OFFCURVE",
"70 360 OFFCURVE",
"70 379 CURVE SMOOTH"
);
},
{
closed = 1;
nodes = (
"75 93 OFFCURVE",
"90 79 OFFCURVE",
"108 79 CURVE SMOOTH",
"127 79 OFFCURVE",
"140 93 OFFCURVE",
"140 112 CURVE SMOOTH",
"140 129 OFFCURVE",
"127 144 OFFCURVE",
"108 144 CURVE SMOOTH",
"90 144 OFFCURVE",
"75 128 OFFCURVE",
"75 112 CURVE SMOOTH"
);
},
{
closed = 1;
nodes = (
"70 218 OFFCURVE",
"85 233 OFFCURVE",
"103 233 CURVE SMOOTH",
"122 233 OFFCURVE",
"135 218 OFFCURVE",
"135 201 CURVE SMOOTH",
"135 183 OFFCURVE",
"122 168 OFFCURVE",
"103 168 CURVE SMOOTH",
"85 168 OFFCURVE",
"70 182 OFFCURVE",
"70 201 CURVE SMOOTH"
);
},
{
closed = 1;
nodes = (
"70 307 OFFCURVE",
"84 322 OFFCURVE",
"103 322 CURVE SMOOTH",
"121 322 OFFCURVE",
"135 307 OFFCURVE",
"135 290 CURVE SMOOTH",
"135 272 OFFCURVE",
"121 257 OFFCURVE",
"103 257 CURVE SMOOTH",
"85 257 OFFCURVE",
"70 271 OFFCURVE",
"70 290 CURVE SMOOTH"
);
},
{
closed = 1;
nodes = (
"70 485 OFFCURVE",
"85 500 OFFCURVE",
"103 500 CURVE SMOOTH",
"121 500 OFFCURVE",
"135 485 OFFCURVE",
"135 468 CURVE SMOOTH",
"135 450 OFFCURVE",
"121 435 OFFCURVE",
"103 435 CURVE SMOOTH",
"86 435 OFFCURVE",
"70 450 OFFCURVE",
"70 468 CURVE SMOOTH"
);
},
{
closed = 1;
nodes = (
"70 572 OFFCURVE",
"85 587 OFFCURVE",
"103 587 CURVE SMOOTH",
"122 587 OFFCURVE",
"135 572 OFFCURVE",
"135 555 CURVE SMOOTH",
"135 537 OFFCURVE",
"122 522 OFFCURVE",
"103 522 CURVE SMOOTH",
"85 522 OFFCURVE",
"70 536 OFFCURVE",
"70 555 CURVE SMOOTH"
);
},
{
closed = 1;
nodes = (
"70 659 OFFCURVE",
"85 674 OFFCURVE",
"103 674 CURVE SMOOTH",
"121 674 OFFCURVE",
"135 659 OFFCURVE",
"135 642 CURVE SMOOTH",
"135 624 OFFCURVE",
"121 609 OFFCURVE",
"103 609 CURVE SMOOTH",
"86 609 OFFCURVE",
"70 624 OFFCURVE",
"70 642 CURVE SMOOTH"
);
},
{
closed = 1;
nodes = (
"165 0 OFFCURVE",
"180 15 OFFCURVE",
"180 33 CURVE SMOOTH",
"180 50 OFFCURVE",
"165 65 OFFCURVE",
"148 65 CURVE SMOOTH",
"130 65 OFFCURVE",
"115 50 OFFCURVE",
"115 33 CURVE SMOOTH",
"115 15 OFFCURVE",
"130 0 OFFCURVE",
"148 0 CURVE SMOOTH"
);
}
);
width = 225;
}
);
note = l;
unicode = 006C;
},
{
glyphname = n;
lastChange = "2021-09-01 22:57:51 +0000";
layers = (
{
layerId = "197054AD-3E11-4C46-98D6-E9AEE179F0DA";
paths = (
{
closed = 1;
nodes = (
"130 362 OFFCURVE",
"115 348 OFFCURVE",
"97 348 CURVE SMOOTH",
"78 348 OFFCURVE",
"65 363 OFFCURVE",
"65 381 CURVE SMOOTH",
"65 398 OFFCURVE",
"78 413 OFFCURVE",
"97 413 CURVE SMOOTH",
"115 413 OFFCURVE",
"130 398 OFFCURVE",
"130 381 CURVE SMOOTH"
);
},
{
closed = 1;
nodes = (
"45 485 OFFCURVE",
"59 500 OFFCURVE",
"77 500 CURVE SMOOTH",
"95 500 OFFCURVE",
"110 485 OFFCURVE",
"110 468 CURVE SMOOTH",
"110 450 OFFCURVE",
"94 435 OFFCURVE",
"77 435 CURVE SMOOTH",
"59 435 OFFCURVE",
"45 450 OFFCURVE",
"45 468 CURVE SMOOTH"
);
},
{
closed = 1;
nodes = (
"65 15 OFFCURVE",
"78 0 OFFCURVE",
"97 0 CURVE SMOOTH",
"115 1 OFFCURVE",
"130 15 OFFCURVE",
"130 33 CURVE SMOOTH",
"130 51 OFFCURVE",
"115 65 OFFCURVE",
"97 65 CURVE SMOOTH",
"78 65 OFFCURVE",
"65 51 OFFCURVE",
"65 33 CURVE SMOOTH"
);
},
{
closed = 1;
nodes = (
"65 101 OFFCURVE",
"78 87 OFFCURVE",
"97 87 CURVE SMOOTH",
"115 87 OFFCURVE",
"130 101 OFFCURVE",
"130 120 CURVE SMOOTH",
"130 136 OFFCURVE",
"115 152 OFFCURVE",
"97 152 CURVE SMOOTH",
"78 152 OFFCURVE",
"65 137 OFFCURVE",
"65 120 CURVE SMOOTH"
);
},
{
closed = 1;
nodes = (
"65 224 OFFCURVE",
"78 239 OFFCURVE",
"97 239 CURVE SMOOTH",
"115 239 OFFCURVE",
"130 224 OFFCURVE",
"130 207 CURVE SMOOTH",
"130 188 OFFCURVE",
"115 174 OFFCURVE",
"97 174 CURVE SMOOTH",
"78 174 OFFCURVE",
"65 189 OFFCURVE",
"65 207 CURVE SMOOTH"
);
},
{
closed = 1;
nodes = (
"65 311 OFFCURVE",
"79 326 OFFCURVE",
"97 326 CURVE SMOOTH",
"116 326 OFFCURVE",
"130 311 OFFCURVE",
"130 294 CURVE SMOOTH",
"130 275 OFFCURVE",
"115 261 OFFCURVE",
"97 261 CURVE SMOOTH",
"79 261 OFFCURVE",
"65 276 OFFCURVE",
"65 294 CURVE SMOOTH"
);
},
{
closed = 1;
nodes = (
"133 446 OFFCURVE",
"145 458 OFFCURVE",
"159 458 CURVE SMOOTH",
"174 458 OFFCURVE",
"185 445 OFFCURVE",
"185 432 CURVE SMOOTH",
"185 417 OFFCURVE",
"174 405 OFFCURVE",
"159 405 CURVE SMOOTH",
"145 405 OFFCURVE",
"133 417 OFFCURVE",
"133 432 CURVE SMOOTH"
);
},
{
closed = 1;
nodes = (
"190 493 OFFCURVE",
"202 505 OFFCURVE",
"216 505 CURVE SMOOTH",
"231 505 OFFCURVE",
"242 493 OFFCURVE",
"242 479 CURVE SMOOTH",
"242 464 OFFCURVE",
"231 452 OFFCURVE",
"216 452 CURVE SMOOTH",
"202 452 OFFCURVE",
"190 464 OFFCURVE",
"190 479 CURVE SMOOTH"
);
},
{
closed = 1;
nodes = (
"262 502 OFFCURVE",
"274 515 OFFCURVE",
"290 515 CURVE SMOOTH",
"305 515 OFFCURVE",
"318 502 OFFCURVE",
"318 487 CURVE SMOOTH",
"318 471 OFFCURVE",
"305 458 OFFCURVE",
"290 458 CURVE SMOOTH",
"274 458 OFFCURVE",
"260 471 OFFCURVE",
"262 487 CURVE SMOOTH"
);
},
{
closed = 1;
nodes = (
"330 473 OFFCURVE",
"345 488 OFFCURVE",
"361 488 CURVE SMOOTH",
"379 488 OFFCURVE",
"392 473 OFFCURVE",
"392 457 CURVE SMOOTH",
"392 439 OFFCURVE",
"379 426 OFFCURVE",
"361 426 CURVE SMOOTH",
"344 426 OFFCURVE",
"330 440 OFFCURVE",
"330 457 CURVE SMOOTH"
);
},
{
closed = 1;
nodes = (
"373 367 OFFCURVE",
"388 353 OFFCURVE",
"406 353 CURVE SMOOTH",
"424 353 OFFCURVE",
"439 368 OFFCURVE",
"439 386 CURVE SMOOTH",
"439 404 OFFCURVE",
"424 419 OFFCURVE",
"406 419 CURVE SMOOTH",
"388 419 OFFCURVE",
"373 404 OFFCURVE",
"373 386 CURVE SMOOTH"
);
},
{
closed = 1;
nodes = (
"377 15 OFFCURVE",
"390 0 OFFCURVE",
"409 0 CURVE SMOOTH",
"427 1 OFFCURVE",
"442 15 OFFCURVE",
"442 33 CURVE SMOOTH",
"442 51 OFFCURVE",
"427 65 OFFCURVE",
"409 65 CURVE SMOOTH",
"390 65 OFFCURVE",
"377 51 OFFCURVE",
"377 33 CURVE SMOOTH"
);
},
{
closed = 1;
nodes = (
"377 101 OFFCURVE",
"390 87 OFFCURVE",
"409 87 CURVE SMOOTH",
"427 87 OFFCURVE",
"442 101 OFFCURVE",
"442 120 CURVE SMOOTH",
"442 136 OFFCURVE",
"427 152 OFFCURVE",
"409 152 CURVE SMOOTH",
"390 152 OFFCURVE",
"377 137 OFFCURVE",
"377 120 CURVE SMOOTH"
);
},
{
closed = 1;
nodes = (
"377 224 OFFCURVE",
"390 239 OFFCURVE",
"409 239 CURVE SMOOTH",
"427 239 OFFCURVE",
"442 224 OFFCURVE",
"442 207 CURVE SMOOTH",
"442 188 OFFCURVE",
"427 174 OFFCURVE",
"409 174 CURVE SMOOTH",
"390 174 OFFCURVE",
"377 189 OFFCURVE",
"377 207 CURVE SMOOTH"
);
},
{
closed = 1;
nodes = (
"377 311 OFFCURVE",
"390 326 OFFCURVE",
"409 326 CURVE SMOOTH",
"427 326 OFFCURVE",
"442 311 OFFCURVE",
"442 294 CURVE SMOOTH",
"442 275 OFFCURVE",
"427 261 OFFCURVE",
"409 261 CURVE SMOOTH",
"390 261 OFFCURVE",
"377 276 OFFCURVE",
"377 294 CURVE SMOOTH"
);
}
);
width = 502;
}
);
note = n;
unicode = 006E;
},
{
glyphname = o;
lastChange = "2021-09-01 23:28:40 +0000";
layers = (
{
layerId = "197054AD-3E11-4C46-98D6-E9AEE179F0DA";
paths = (
{
closed = 1;
nodes = (
"245 -2 OFFCURVE",
"233 -15 OFFCURVE",
"217 -15 CURVE SMOOTH",
"202 -15 OFFCURVE",
"189 -2 OFFCURVE",
"189 13 CURVE SMOOTH",
"189 29 OFFCURVE",
"202 42 OFFCURVE",
"217 42 CURVE SMOOTH",
"233 42 OFFCURVE",
"245 29 OFFCURVE",
"245 13 CURVE SMOOTH"
);
},
{
closed = 1;
nodes = (
"55 190 OFFCURVE",
"71 174 OFFCURVE",
"89 174 CURVE SMOOTH",
"109 174 OFFCURVE",
"123 189 OFFCURVE",
"123 208 CURVE SMOOTH",
"123 226 OFFCURVE",
"107 240 OFFCURVE",
"89 240 CURVE SMOOTH",
"71 240 OFFCURVE",
"55 226 OFFCURVE",
"55 208 CURVE SMOOTH"
);
},
{
closed = 1;
nodes = (
"70 102 OFFCURVE",
"85 87 OFFCURVE",
"103 87 CURVE SMOOTH",
"121 87 OFFCURVE",
"136 102 OFFCURVE",
"136 120 CURVE SMOOTH",
"136 139 OFFCURVE",
"121 153 OFFCURVE",
"103 153 CURVE SMOOTH",
"85 153 OFFCURVE",
"70 138 OFFCURVE",
"70 120 CURVE SMOOTH"
);
},
{
closed = 1;
nodes = (
"117 67 OFFCURVE",
"130 80 OFFCURVE",
"148 80 CURVE SMOOTH",
"165 80 OFFCURVE",
"179 66 OFFCURVE",
"179 49 CURVE SMOOTH",
"179 33 OFFCURVE",
"165 18 OFFCURVE",
"148 18 CURVE SMOOTH",
"130 18 OFFCURVE",
"117 33 OFFCURVE",
"117 49 CURVE SMOOTH"
);
},
{
closed = 1;
nodes = (
"267 29 OFFCURVE",
"279 42 OFFCURVE",
"295 42 CURVE SMOOTH",
"310 42 OFFCURVE",
"323 29 OFFCURVE",
"323 13 CURVE SMOOTH",
"323 -2 OFFCURVE",
"310 -15 OFFCURVE",
"295 -15 CURVE SMOOTH",
"279 -15 OFFCURVE",
"267 -2 OFFCURVE",
"267 13 CURVE SMOOTH"
);
},
{
closed = 1;
nodes = (
"333 66 OFFCURVE",
"347 80 OFFCURVE",
"364 80 CURVE SMOOTH",
"382 80 OFFCURVE",
"395 67 OFFCURVE",
"395 49 CURVE SMOOTH",
"395 33 OFFCURVE",
"382 18 OFFCURVE",
"364 18 CURVE SMOOTH",
"347 18 OFFCURVE",
"333 33 OFFCURVE",
"333 49 CURVE SMOOTH"
);
},
{
closed = 1;
nodes = (
"376 102 OFFCURVE",
"391 87 OFFCURVE",
"409 87 CURVE SMOOTH",
"427 87 OFFCURVE",
"442 102 OFFCURVE",
"442 120 CURVE SMOOTH",
"442 138 OFFCURVE",
"427 153 OFFCURVE",
"409 153 CURVE SMOOTH",
"391 153 OFFCURVE",
"376 139 OFFCURVE",
"376 120 CURVE SMOOTH"
);
},
{
closed = 1;
nodes = (
"389 190 OFFCURVE",
"404 174 OFFCURVE",
"423 174 CURVE SMOOTH",
"441 174 OFFCURVE",
"457 190 OFFCURVE",
"457 208 CURVE SMOOTH",
"457 225 OFFCURVE",
"441 240 OFFCURVE",
"423 240 CURVE SMOOTH",
"405 240 OFFCURVE",
"389 226 OFFCURVE",
"389 208 CURVE SMOOTH"
);
},
{
closed = 1;
nodes = (
"245 471 OFFCURVE",
"233 458 OFFCURVE",
"217 458 CURVE SMOOTH",
"202 458 OFFCURVE",
"189 471 OFFCURVE",
"189 487 CURVE SMOOTH",
"189 502 OFFCURVE",
"202 515 OFFCURVE",
"217 515 CURVE SMOOTH",
"233 515 OFFCURVE",
"245 502 OFFCURVE",
"245 487 CURVE SMOOTH"
);
},
{
closed = 1;
nodes = (
"55 274 OFFCURVE",
"71 260 OFFCURVE",
"89 260 CURVE SMOOTH",
"107 260 OFFCURVE",
"123 274 OFFCURVE",
"123 292 CURVE SMOOTH",
"123 311 OFFCURVE",
"109 326 OFFCURVE",
"89 326 CURVE SMOOTH",
"71 326 OFFCURVE",
"55 310 OFFCURVE",
"55 292 CURVE SMOOTH"
);
},
{
closed = 1;
nodes = (
"70 362 OFFCURVE",
"85 347 OFFCURVE",
"103 347 CURVE SMOOTH",
"121 347 OFFCURVE",
"136 361 OFFCURVE",
"136 380 CURVE SMOOTH",
"136 398 OFFCURVE",
"121 413 OFFCURVE",
"103 413 CURVE SMOOTH",
"85 413 OFFCURVE",
"70 398 OFFCURVE",
"70 380 CURVE SMOOTH"
);
},
{
closed = 1;
nodes = (
"117 467 OFFCURVE",
"130 482 OFFCURVE",
"148 482 CURVE SMOOTH",
"165 482 OFFCURVE",
"179 467 OFFCURVE",
"179 451 CURVE SMOOTH",
"179 434 OFFCURVE",
"165 420 OFFCURVE",
"148 420 CURVE SMOOTH",
"130 420 OFFCURVE",
"117 433 OFFCURVE",
"117 451 CURVE SMOOTH"
);
},
{
closed = 1;
nodes = (
"267 502 OFFCURVE",
"279 515 OFFCURVE",
"295 515 CURVE SMOOTH",
"310 515 OFFCURVE",
"323 502 OFFCURVE",
"323 487 CURVE SMOOTH",
"323 471 OFFCURVE",
"310 458 OFFCURVE",
"295 458 CURVE SMOOTH",
"279 458 OFFCURVE",
"267 471 OFFCURVE",
"267 487 CURVE SMOOTH"
);
},
{
closed = 1;
nodes = (
"333 467 OFFCURVE",
"347 482 OFFCURVE",
"364 482 CURVE SMOOTH",
"382 482 OFFCURVE",
"395 467 OFFCURVE",
"395 451 CURVE SMOOTH",
"395 433 OFFCURVE",
"382 420 OFFCURVE",
"364 420 CURVE SMOOTH",
"347 420 OFFCURVE",
"333 434 OFFCURVE",
"333 451 CURVE SMOOTH"
);
},
{
closed = 1;
nodes = (
"376 361 OFFCURVE",
"391 347 OFFCURVE",
"409 347 CURVE SMOOTH",
"427 347 OFFCURVE",
"442 362 OFFCURVE",
"442 380 CURVE SMOOTH",
"442 398 OFFCURVE",
"427 413 OFFCURVE",
"409 413 CURVE SMOOTH",
"391 413 OFFCURVE",
"376 398 OFFCURVE",
"376 380 CURVE SMOOTH"
);
},
{
closed = 1;
nodes = (
"389 274 OFFCURVE",
"405 260 OFFCURVE",
"423 260 CURVE SMOOTH",
"441 260 OFFCURVE",
"457 275 OFFCURVE",
"457 292 CURVE SMOOTH",
"457 310 OFFCURVE",
"441 326 OFFCURVE",
"423 326 CURVE SMOOTH",
"404 326 OFFCURVE",
"389 310 OFFCURVE",
"389 292 CURVE SMOOTH"
);
}
);
width = 512;
}
);
note = o;
unicode = 006F;
},
{
glyphname = oacute;
lastChange = "2021-09-02 00:38:21 +0000";
layers = (
{
components = (
{
name = o;
}
);
layerId = "197054AD-3E11-4C46-98D6-E9AEE179F0DA";
paths = (
{
closed = 1;
nodes = (
"180 618 OFFCURVE",
"192 630 OFFCURVE",
"206 630 CURVE SMOOTH",
"220 630 OFFCURVE",
"232 617 OFFCURVE",
"232 604 CURVE SMOOTH",
"232 590 OFFCURVE",
"220 578 OFFCURVE",
"206 578 CURVE SMOOTH",
"192 578 OFFCURVE",
"180 590 OFFCURVE",
"180 604 CURVE SMOOTH"
);
},
{
closed = 1;
nodes = (
"240 648 OFFCURVE",
"254 661 OFFCURVE",
"268 661 CURVE SMOOTH",
"283 661 OFFCURVE",
"296 648 OFFCURVE",
"296 633 CURVE SMOOTH",
"296 618 OFFCURVE",
"283 605 OFFCURVE",
"268 605 CURVE SMOOTH",
"254 605 OFFCURVE",
"240 618 OFFCURVE",
"240 633 CURVE SMOOTH"
);
},
{
closed = 1;
nodes = (
"304 678 OFFCURVE",
"318 692 OFFCURVE",
"334 692 CURVE SMOOTH",
"350 692 OFFCURVE",
"364 678 OFFCURVE",
"364 662 CURVE SMOOTH",
"364 645 OFFCURVE",
"351 632 OFFCURVE",
"334 632 CURVE SMOOTH",
"318 632 OFFCURVE",
"304 645 OFFCURVE",
"304 662 CURVE SMOOTH"
);
}
);
width = 512;
}
);
note = oacute;
unicode = 00F3;
},
{
glyphname = q;
lastChange = "2021-09-02 00:39:12 +0000";
layers = (
{
layerId = "197054AD-3E11-4C46-98D6-E9AEE179F0DA";
paths = (
{
closed = 1;
nodes = (
"267 502 OFFCURVE",
"280 515 OFFCURVE",
"296 515 CURVE SMOOTH",
"311 515 OFFCURVE",
"324 502 OFFCURVE",
"324 487 CURVE SMOOTH",
"324 471 OFFCURVE",
"311 458 OFFCURVE",
"296 458 CURVE SMOOTH",
"280 458 OFFCURVE",
"267 471 OFFCURVE",
"267 487 CURVE SMOOTH"
);
},
{
closed = 1;
nodes = (
"50 184 OFFCURVE",
"66 168 OFFCURVE",
"85 168 CURVE SMOOTH",
"105 168 OFFCURVE",
"120 184 OFFCURVE",
"120 203 CURVE SMOOTH",
"120 222 OFFCURVE",
"104 238 OFFCURVE",
"85 238 CURVE SMOOTH",
"66 238 OFFCURVE",
"50 224 OFFCURVE",
"50 203 CURVE SMOOTH"
);
},
{
closed = 1;
nodes = (
"50 277 OFFCURVE",
"66 260 OFFCURVE",
"85 260 CURVE SMOOTH",
"104 260 OFFCURVE",
"120 276 OFFCURVE",
"120 295 CURVE SMOOTH",
"120 314 OFFCURVE",
"105 330 OFFCURVE",
"85 330 CURVE SMOOTH",
"66 330 OFFCURVE",
"50 314 OFFCURVE",
"50 295 CURVE SMOOTH"
);
},
{
closed = 1;
nodes = (
"67 96 OFFCURVE",
"82 81 OFFCURVE",
"100 81 CURVE SMOOTH",
"118 81 OFFCURVE",
"133 96 OFFCURVE",
"133 114 CURVE SMOOTH",
"133 133 OFFCURVE",
"118 147 OFFCURVE",
"100 147 CURVE SMOOTH",
"82 147 OFFCURVE",
"67 132 OFFCURVE",
"67 114 CURVE SMOOTH"
);
},
{
closed = 1;
nodes = (
"67 368 OFFCURVE",
"82 353 OFFCURVE",
"100 353 CURVE SMOOTH",
"118 353 OFFCURVE",
"133 367 OFFCURVE",
"133 386 CURVE SMOOTH",
"133 404 OFFCURVE",
"118 419 OFFCURVE",
"100 419 CURVE SMOOTH",
"82 419 OFFCURVE",
"67 404 OFFCURVE",
"67 386 CURVE SMOOTH"
);
},
{
closed = 1;
nodes = (
"116 469 OFFCURVE",
"129 484 OFFCURVE",
"147 484 CURVE SMOOTH",
"163 484 OFFCURVE",
"178 469 OFFCURVE",
"178 453 CURVE SMOOTH",
"178 436 OFFCURVE",
"164 422 OFFCURVE",
"147 422 CURVE SMOOTH",
"129 422 OFFCURVE",
"116 435 OFFCURVE",
"116 453 CURVE SMOOTH"
);
},
{
closed = 1;
nodes = (
"127 61 OFFCURVE",
"140 74 OFFCURVE",
"158 74 CURVE SMOOTH",
"175 74 OFFCURVE",
"189 60 OFFCURVE",
"189 43 CURVE SMOOTH",
"189 27 OFFCURVE",
"174 12 OFFCURVE",
"158 12 CURVE SMOOTH",
"140 12 OFFCURVE",
"127 27 OFFCURVE",
"127 43 CURVE SMOOTH"
);
},
{
closed = 1;
nodes = (
"190 502 OFFCURVE",
"203 515 OFFCURVE",
"218 515 CURVE SMOOTH",
"234 515 OFFCURVE",
"246 502 OFFCURVE",
"246 487 CURVE SMOOTH",
"246 471 OFFCURVE",
"234 458 OFFCURVE",
"218 458 CURVE SMOOTH",
"203 458 OFFCURVE",
"190 471 OFFCURVE",
"190 487 CURVE SMOOTH"
);
},
{
closed = 1;
nodes = (
"201 29 OFFCURVE",
"214 42 OFFCURVE",
"229 42 CURVE SMOOTH",
"245 42 OFFCURVE",
"259 29 OFFCURVE",
"257 13 CURVE SMOOTH",
"257 -2 OFFCURVE",
"245 -15 OFFCURVE",
"229 -15 CURVE SMOOTH",
"214 -15 OFFCURVE",
"201 -2 OFFCURVE",
"201 13 CURVE SMOOTH"
);
},
{
closed = 1;
nodes = (
"275 36 OFFCURVE",
"288 48 OFFCURVE",
"303 48 CURVE SMOOTH",
"317 48 OFFCURVE",
"329 36 OFFCURVE",
"329 21 CURVE SMOOTH",
"329 7 OFFCURVE",
"317 -5 OFFCURVE",
"303 -5 CURVE SMOOTH",
"288 -5 OFFCURVE",
"277 7 OFFCURVE",
"277 21 CURVE"
);
},
{
closed = 1;
nodes = (
"332 80 OFFCURVE",
"345 92 OFFCURVE",
"360 92 CURVE SMOOTH",
"374 92 OFFCURVE",
"386 80 OFFCURVE",
"386 65 CURVE SMOOTH",
"386 51 OFFCURVE",
"374 39 OFFCURVE",
"360 39 CURVE SMOOTH",
"345 39 OFFCURVE",
"334 51 OFFCURVE",
"334 65 CURVE"
);
},
{
closed = 1;
nodes = (
"338 462 OFFCURVE",
"351 474 OFFCURVE",
"367 474 CURVE SMOOTH",
"382 474 OFFCURVE",
"394 462 OFFCURVE",
"394 446 CURVE SMOOTH",
"394 431 OFFCURVE",
"382 419 OFFCURVE",
"367 419 CURVE SMOOTH",
"351 419 OFFCURVE",
"340 431 OFFCURVE",
"340 446 CURVE SMOOTH"
);
},
{
closed = 1;
nodes = (
"402 -124 OFFCURVE",
"418 -109 OFFCURVE",
"435 -109 CURVE SMOOTH",
"453 -109 OFFCURVE",
"467 -124 OFFCURVE",
"467 -142 CURVE SMOOTH",
"467 -159 OFFCURVE",
"453 -174 OFFCURVE",
"435 -174 CURVE SMOOTH",
"417 -174 OFFCURVE",
"402 -159 OFFCURVE",
"402 -142 CURVE SMOOTH"
);
},
{
closed = 1;
nodes = (
"402 -36 OFFCURVE",
"417 -22 OFFCURVE",
"435 -22 CURVE SMOOTH",
"454 -22 OFFCURVE",
"467 -37 OFFCURVE",
"467 -55 CURVE SMOOTH",
"467 -72 OFFCURVE",
"454 -87 OFFCURVE",
"435 -87 CURVE SMOOTH",
"417 -87 OFFCURVE",
"402 -72 OFFCURVE",
"402 -55 CURVE SMOOTH"
);
},
{
closed = 1;
nodes = (
"402 50 OFFCURVE",
"418 65 OFFCURVE",
"435 65 CURVE SMOOTH",
"453 65 OFFCURVE",
"467 50 OFFCURVE",
"467 32 CURVE SMOOTH",
"467 15 OFFCURVE",
"453 0 OFFCURVE",
"435 0 CURVE SMOOTH",
"417 0 OFFCURVE",
"402 15 OFFCURVE",
"402 32 CURVE SMOOTH"
);
},
{
closed = 1;
nodes = (
"402 138 OFFCURVE",
"417 152 OFFCURVE",
"435 152 CURVE SMOOTH",
"454 152 OFFCURVE",
"467 137 OFFCURVE",
"467 119 CURVE SMOOTH",
"467 102 OFFCURVE",
"454 87 OFFCURVE",
"435 87 CURVE SMOOTH",
"417 87 OFFCURVE",
"402 102 OFFCURVE",
"402 119 CURVE SMOOTH"
);
},
{
closed = 1;
nodes = (
"402 225 OFFCURVE",
"417 239 OFFCURVE",
"435 239 CURVE SMOOTH",
"453 239 OFFCURVE",
"467 224 OFFCURVE",
"467 206 CURVE SMOOTH",
"467 189 OFFCURVE",
"453 174 OFFCURVE",
"435 174 CURVE SMOOTH",
"416 174 OFFCURVE",
"402 189 OFFCURVE",
"402 206 CURVE SMOOTH"
);
},
{
closed = 1;
nodes = (
"402 312 OFFCURVE",
"417 326 OFFCURVE",
"435 326 CURVE SMOOTH",
"454 326 OFFCURVE",
"467 311 OFFCURVE",
"467 293 CURVE SMOOTH",
"467 276 OFFCURVE",
"454 261 OFFCURVE",
"435 261 CURVE SMOOTH",
"417 261 OFFCURVE",
"402 276 OFFCURVE",
"402 293 CURVE SMOOTH"
);
},
{
closed = 1;
nodes = (
"402 364 OFFCURVE",
"417 348 OFFCURVE",
"435 348 CURVE SMOOTH",
"454 348 OFFCURVE",
"467 363 OFFCURVE",
"467 380 CURVE SMOOTH",
"467 399 OFFCURVE",
"454 413 OFFCURVE",
"435 413 CURVE SMOOTH",
"417 413 OFFCURVE",
"402 399 OFFCURVE",
"402 380 CURVE SMOOTH"
);
},
{
closed = 1;
nodes = (
"422 449 OFFCURVE",
"437 435 OFFCURVE",
"455 435 CURVE SMOOTH",
"474 435 OFFCURVE",
"487 449 OFFCURVE",
"487 467 CURVE SMOOTH",
"487 485 OFFCURVE",
"474 500 OFFCURVE",
"455 500 CURVE SMOOTH",
"437 499 OFFCURVE",
"422 485 OFFCURVE",
"422 467 CURVE SMOOTH"
);
}
);
width = 537;
}
);
note = q;
unicode = 0071;
},
{
glyphname = v;
lastChange = "2021-09-01 23:49:54 +0000";
layers = (
{
background = {
paths = (
{
closed = 1;
nodes = (
"241 -2 OFFCURVE",
"229 -15 OFFCURVE",
"213 -15 CURVE SMOOTH",
"198 -15 OFFCURVE",
"185 -2 OFFCURVE",
"185 13 CURVE SMOOTH",
"185 29 OFFCURVE",
"198 42 OFFCURVE",
"213 42 CURVE SMOOTH",
"229 42 OFFCURVE",
"241 29 OFFCURVE",
"241 13 CURVE SMOOTH"
);
},
{
closed = 1;
nodes = (
"51 190 OFFCURVE",
"67 174 OFFCURVE",
"85 174 CURVE SMOOTH",
"105 174 OFFCURVE",
"119 189 OFFCURVE",
"119 208 CURVE SMOOTH",
"119 226 OFFCURVE",
"103 240 OFFCURVE",
"85 240 CURVE SMOOTH",
"67 240 OFFCURVE",
"51 226 OFFCURVE",
"51 208 CURVE SMOOTH"
);
},
{
closed = 1;
nodes = (
"66 102 OFFCURVE",
"81 87 OFFCURVE",
"99 87 CURVE SMOOTH",
"117 87 OFFCURVE",
"132 102 OFFCURVE",
"132 120 CURVE SMOOTH",
"132 139 OFFCURVE",
"117 153 OFFCURVE",
"99 153 CURVE SMOOTH",
"81 153 OFFCURVE",
"66 138 OFFCURVE",
"66 120 CURVE SMOOTH"
);
},
{
closed = 1;
nodes = (
"113 67 OFFCURVE",
"126 80 OFFCURVE",
"144 80 CURVE SMOOTH",
"161 80 OFFCURVE",
"175 66 OFFCURVE",
"175 49 CURVE SMOOTH",
"175 33 OFFCURVE",
"161 18 OFFCURVE",
"144 18 CURVE SMOOTH",
"126 18 OFFCURVE",
"113 33 OFFCURVE",
"113 49 CURVE SMOOTH"
);
},
{
closed = 1;
nodes = (
"263 29 OFFCURVE",
"275 42 OFFCURVE",
"291 42 CURVE SMOOTH",
"306 42 OFFCURVE",
"319 29 OFFCURVE",
"319 13 CURVE SMOOTH",
"319 -2 OFFCURVE",
"306 -15 OFFCURVE",
"291 -15 CURVE SMOOTH",
"275 -15 OFFCURVE",
"263 -2 OFFCURVE",
"263 13 CURVE SMOOTH"
);
},
{
closed = 1;
nodes = (
"329 66 OFFCURVE",
"343 80 OFFCURVE",
"360 80 CURVE SMOOTH",
"378 80 OFFCURVE",
"391 67 OFFCURVE",
"391 49 CURVE SMOOTH",
"391 33 OFFCURVE",
"378 18 OFFCURVE",
"360 18 CURVE SMOOTH",
"343 18 OFFCURVE",
"329 33 OFFCURVE",
"329 49 CURVE SMOOTH"
);
},
{
closed = 1;
nodes = (
"372 102 OFFCURVE",
"387 87 OFFCURVE",
"405 87 CURVE SMOOTH",
"423 87 OFFCURVE",
"438 102 OFFCURVE",
"438 120 CURVE SMOOTH",
"438 138 OFFCURVE",
"423 153 OFFCURVE",
"405 153 CURVE SMOOTH",
"387 153 OFFCURVE",
"372 139 OFFCURVE",
"372 120 CURVE SMOOTH"
);
},
{
closed = 1;
nodes = (
"385 190 OFFCURVE",
"400 174 OFFCURVE",
"419 174 CURVE SMOOTH",
"437 174 OFFCURVE",
"453 190 OFFCURVE",
"453 208 CURVE SMOOTH",
"453 225 OFFCURVE",
"437 240 OFFCURVE",
"419 240 CURVE SMOOTH",
"401 240 OFFCURVE",
"385 226 OFFCURVE",
"385 208 CURVE SMOOTH"
);
},
{
closed = 1;
nodes = (
"241 471 OFFCURVE",
"229 458 OFFCURVE",
"213 458 CURVE SMOOTH",
"198 458 OFFCURVE",
"185 471 OFFCURVE",
"185 487 CURVE SMOOTH",
"185 502 OFFCURVE",
"198 515 OFFCURVE",
"213 515 CURVE SMOOTH",
"229 515 OFFCURVE",
"241 502 OFFCURVE",
"241 487 CURVE SMOOTH"
);
},
{
closed = 1;
nodes = (
"51 274 OFFCURVE",
"67 260 OFFCURVE",
"85 260 CURVE SMOOTH",
"103 260 OFFCURVE",
"119 274 OFFCURVE",
"119 292 CURVE SMOOTH",
"119 311 OFFCURVE",
"105 326 OFFCURVE",
"85 326 CURVE SMOOTH",
"67 326 OFFCURVE",
"51 310 OFFCURVE",
"51 292 CURVE SMOOTH"
);
},
{
closed = 1;
nodes = (
"66 362 OFFCURVE",
"81 347 OFFCURVE",
"99 347 CURVE SMOOTH",
"117 347 OFFCURVE",
"132 361 OFFCURVE",
"132 380 CURVE SMOOTH",
"132 398 OFFCURVE",
"117 413 OFFCURVE",
"99 413 CURVE SMOOTH",
"81 413 OFFCURVE",
"66 398 OFFCURVE",
"66 380 CURVE SMOOTH"
);
},
{
closed = 1;
nodes = (
"113 467 OFFCURVE",
"126 482 OFFCURVE",
"144 482 CURVE SMOOTH",
"161 482 OFFCURVE",
"175 467 OFFCURVE",
"175 451 CURVE SMOOTH",
"175 434 OFFCURVE",
"161 420 OFFCURVE",
"144 420 CURVE SMOOTH",
"126 420 OFFCURVE",
"113 433 OFFCURVE",
"113 451 CURVE SMOOTH"
);
},
{
closed = 1;
nodes = (
"263 502 OFFCURVE",
"275 515 OFFCURVE",
"291 515 CURVE SMOOTH",
"306 515 OFFCURVE",
"319 502 OFFCURVE",
"319 487 CURVE SMOOTH",
"319 471 OFFCURVE",
"306 458 OFFCURVE",
"291 458 CURVE SMOOTH",
"275 458 OFFCURVE",
"263 471 OFFCURVE",
"263 487 CURVE SMOOTH"
);
},
{
closed = 1;
nodes = (
"329 467 OFFCURVE",
"343 482 OFFCURVE",
"360 482 CURVE SMOOTH",
"378 482 OFFCURVE",
"391 467 OFFCURVE",
"391 451 CURVE SMOOTH",
"391 433 OFFCURVE",
"378 420 OFFCURVE",
"360 420 CURVE SMOOTH",
"343 420 OFFCURVE",
"329 434 OFFCURVE",
"329 451 CURVE SMOOTH"
);
},
{
closed = 1;
nodes = (
"372 361 OFFCURVE",
"387 347 OFFCURVE",
"405 347 CURVE SMOOTH",
"423 347 OFFCURVE",
"438 362 OFFCURVE",
"438 380 CURVE SMOOTH",
"438 398 OFFCURVE",
"423 413 OFFCURVE",
"405 413 CURVE SMOOTH",
"387 413 OFFCURVE",
"372 398 OFFCURVE",
"372 380 CURVE SMOOTH"
);
},
{
closed = 1;
nodes = (
"385 274 OFFCURVE",
"401 260 OFFCURVE",
"419 260 CURVE SMOOTH",
"437 260 OFFCURVE",
"453 275 OFFCURVE",
"453 292 CURVE SMOOTH",
"453 310 OFFCURVE",
"437 326 OFFCURVE",
"419 326 CURVE SMOOTH",
"400 326 OFFCURVE",
"385 310 OFFCURVE",
"385 292 CURVE SMOOTH"
);
}
);
};
guideLines = (
{
angle = 90;
position = "{51, 555}";
},
{
angle = 90;
position = "{453, 555}";
}
);
layerId = "197054AD-3E11-4C46-98D6-E9AEE179F0DA";
paths = (
{
closed = 1;
nodes = (
"50 446 OFFCURVE",
"67 430 OFFCURVE",
"85 430 CURVE SMOOTH",
"104 430 OFFCURVE",
"120 446 OFFCURVE",
"120 466 CURVE SMOOTH",
"120 484 OFFCURVE",
"104 500 OFFCURVE",
"85 500 CURVE SMOOTH",
"67 500 OFFCURVE",
"50 484 OFFCURVE",
"50 466 CURVE SMOOTH"
);
},
{
closed = 1;
nodes = (
"224 4 OFFCURVE",
"236 -8 OFFCURVE",
"252 -8 CURVE SMOOTH",
"268 -8 OFFCURVE",
"280 4 OFFCURVE",
"280 20 CURVE SMOOTH",
"280 35 OFFCURVE",
"268 48 OFFCURVE",
"252 48 CURVE SMOOTH",
"236 48 OFFCURVE",
"224 36 OFFCURVE",
"224 20 CURVE SMOOTH"
);
},
{
closed = 1;
nodes = (
"70 359 OFFCURVE",
"85 344 OFFCURVE",
"103 344 CURVE SMOOTH",
"122 344 OFFCURVE",
"138 359 OFFCURVE",
"138 378 CURVE SMOOTH",
"138 397 OFFCURVE",
"121 412 OFFCURVE",
"103 412 CURVE SMOOTH",
"85 412 OFFCURVE",
"70 397 OFFCURVE",
"70 378 CURVE SMOOTH"
);
},
{
closed = 1;
nodes = (
"91 279 OFFCURVE",
"106 264 OFFCURVE",
"123 264 CURVE SMOOTH",
"141 264 OFFCURVE",
"157 279 OFFCURVE",
"157 297 CURVE SMOOTH",
"157 315 OFFCURVE",
"141 330 OFFCURVE",
"123 330 CURVE SMOOTH",
"106 330 OFFCURVE",
"91 315 OFFCURVE",
"91 297 CURVE SMOOTH"
);
},
{
closed = 1;
nodes = (
"112 197 OFFCURVE",
"126 183 OFFCURVE",
"143 183 CURVE SMOOTH",
"161 183 OFFCURVE",
"176 197 OFFCURVE",
"176 215 CURVE SMOOTH",
"176 233 OFFCURVE",
"161 247 OFFCURVE",
"143 247 CURVE SMOOTH",
"126 247 OFFCURVE",
"112 233 OFFCURVE",
"112 215 CURVE SMOOTH"
);
},
{
closed = 1;
nodes = (
"134 122 OFFCURVE",
"148 108 OFFCURVE",
"163 108 CURVE SMOOTH",
"179 108 OFFCURVE",
"194 122 OFFCURVE",
"194 138 CURVE SMOOTH",
"194 154 OFFCURVE",
"180 168 OFFCURVE",
"163 168 CURVE SMOOTH",
"148 168 OFFCURVE",
"134 154 OFFCURVE",
"134 138 CURVE SMOOTH"
);
},
{
closed = 1;
nodes = (
"155 48 OFFCURVE",
"168 35 OFFCURVE",
"183 35 CURVE SMOOTH",
"199 35 OFFCURVE",
"213 48 OFFCURVE",
"213 64 CURVE SMOOTH",
"213 79 OFFCURVE",
"199 93 OFFCURVE",
"183 93 CURVE SMOOTH",
"168 93 OFFCURVE",
"155 80 OFFCURVE",
"155 64 CURVE SMOOTH"
);
},
{
closed = 1;
nodes = (
"453 484 OFFCURVE",
"437 500 OFFCURVE",
"419 500 CURVE SMOOTH",
"400 500 OFFCURVE",
"385 485 OFFCURVE",
"385 466 CURVE SMOOTH",
"385 447 OFFCURVE",
"400 432 OFFCURVE",
"419 432 CURVE SMOOTH",
"437 432 OFFCURVE",
"453 447 OFFCURVE",
"453 466 CURVE SMOOTH"
);
},
{
closed = 1;
nodes = (
"433 397 OFFCURVE",
"418 412 OFFCURVE",
"401 412 CURVE SMOOTH",
"384 412 OFFCURVE",
"367 397 OFFCURVE",
"367 379 CURVE SMOOTH",
"367 361 OFFCURVE",
"384 346 OFFCURVE",
"401 346 CURVE SMOOTH",
"418 346 OFFCURVE",
"433 361 OFFCURVE",
"433 379 CURVE SMOOTH"
);
},
{
closed = 1;
nodes = (
"411 313 OFFCURVE",
"398 328 OFFCURVE",
"380 328 CURVE SMOOTH",
"362 328 OFFCURVE",
"347 314 OFFCURVE",
"347 296 CURVE SMOOTH",
"347 278 OFFCURVE",
"362 264 OFFCURVE",
"380 264 CURVE SMOOTH",
"397 264 OFFCURVE",
"411 278 OFFCURVE",
"411 296 CURVE SMOOTH"
);
},
{
closed = 1;
nodes = (
"389 233 OFFCURVE",
"376 246 OFFCURVE",
"359 246 CURVE SMOOTH",
"341 246 OFFCURVE",
"327 233 OFFCURVE",
"327 215 CURVE SMOOTH",
"327 197 OFFCURVE",
"341 184 OFFCURVE",
"359 184 CURVE SMOOTH",
"376 184 OFFCURVE",
"389 197 OFFCURVE",
"389 215 CURVE SMOOTH"
);
},
{
closed = 1;
nodes = (
"366 153 OFFCURVE",
"353 167 OFFCURVE",
"338 167 CURVE SMOOTH",
"321 167 OFFCURVE",
"308 154 OFFCURVE",
"308 138 CURVE SMOOTH",
"308 122 OFFCURVE",
"323 109 OFFCURVE",
"338 109 CURVE SMOOTH",
"353 109 OFFCURVE",
"366 122 OFFCURVE",
"366 138 CURVE SMOOTH"
);
},
{
closed = 1;
nodes = (
"344 79 OFFCURVE",
"331 92 OFFCURVE",
"317 92 CURVE SMOOTH",
"302 92 OFFCURVE",
"288 79 OFFCURVE",
"288 64 CURVE SMOOTH",
"288 49 OFFCURVE",
"302 36 OFFCURVE",
"317 36 CURVE SMOOTH",
"331 36 OFFCURVE",
"344 49 OFFCURVE",
"344 64 CURVE SMOOTH"
);
}
);
width = 503;
}
);
note = v;
unicode = 0076;
},
{
glyphname = B;
lastChange = "2021-09-01 14:27:39 +0000";
layers = (
{
layerId = "197054AD-3E11-4C46-98D6-E9AEE179F0DA";
paths = (
{
closed = 1;
nodes = (
"70 398 OFFCURVE",
"85 413 OFFCURVE",
"103 413 CURVE SMOOTH",
"122 413 OFFCURVE",
"135 398 OFFCURVE",
"135 381 CURVE SMOOTH",
"135 363 OFFCURVE",
"122 348 OFFCURVE",
"103 348 CURVE SMOOTH",
"85 348 OFFCURVE",
"70 362 OFFCURVE",
"70 381 CURVE SMOOTH"
);
},
{
closed = 1;
nodes = (
"70 101 OFFCURVE",
"85 87 OFFCURVE",
"103 87 CURVE SMOOTH",
"122 87 OFFCURVE",
"135 101 OFFCURVE",
"135 120 CURVE SMOOTH",
"135 137 OFFCURVE",
"122 152 OFFCURVE",
"103 152 CURVE SMOOTH",
"85 152 OFFCURVE",
"70 136 OFFCURVE",
"70 120 CURVE SMOOTH"
);
},
{
closed = 1;
nodes = (
"70 224 OFFCURVE",
"85 239 OFFCURVE",
"103 239 CURVE SMOOTH",
"122 239 OFFCURVE",
"135 224 OFFCURVE",
"135 207 CURVE SMOOTH",
"135 189 OFFCURVE",
"122 174 OFFCURVE",
"103 174 CURVE SMOOTH",
"85 174 OFFCURVE",
"70 188 OFFCURVE",
"70 207 CURVE SMOOTH"
);
},
{
closed = 1;
nodes = (
"70 311 OFFCURVE",
"84 326 OFFCURVE",
"103 326 CURVE SMOOTH",
"121 326 OFFCURVE",
"135 311 OFFCURVE",
"135 294 CURVE SMOOTH",
"135 276 OFFCURVE",
"121 261 OFFCURVE",
"103 261 CURVE SMOOTH",
"85 261 OFFCURVE",
"70 275 OFFCURVE",
"70 294 CURVE SMOOTH"
);
},
{
closed = 1;
nodes = (
"70 485 OFFCURVE",
"85 500 OFFCURVE",
"103 500 CURVE SMOOTH",
"121 500 OFFCURVE",
"135 485 OFFCURVE",
"135 468 CURVE SMOOTH",
"135 450 OFFCURVE",
"121 435 OFFCURVE",
"103 435 CURVE SMOOTH",
"86 435 OFFCURVE",
"70 450 OFFCURVE",
"70 468 CURVE SMOOTH"
);
},
{
closed = 1;
nodes = (
"70 572 OFFCURVE",
"85 587 OFFCURVE",
"103 587 CURVE SMOOTH",
"122 587 OFFCURVE",
"135 572 OFFCURVE",
"135 555 CURVE SMOOTH",
"135 537 OFFCURVE",
"122 522 OFFCURVE",
"103 522 CURVE SMOOTH",
"85 522 OFFCURVE",
"70 536 OFFCURVE",
"70 555 CURVE SMOOTH"
);
},
{
closed = 1;
nodes = (
"70 659 OFFCURVE",
"85 674 OFFCURVE",
"103 674 CURVE SMOOTH",
"121 674 OFFCURVE",
"135 659 OFFCURVE",
"135 642 CURVE SMOOTH",
"135 624 OFFCURVE",
"121 609 OFFCURVE",
"103 609 CURVE SMOOTH",
"86 609 OFFCURVE",
"70 624 OFFCURVE",
"70 642 CURVE SMOOTH"
);
},
{
closed = 1;
nodes = (
"150 337 OFFCURVE",
"164 323 OFFCURVE",
"180 323 CURVE SMOOTH",
"196 323 OFFCURVE",
"210 337 OFFCURVE",
"210 353 CURVE SMOOTH",
"210 369 OFFCURVE",
"196 383 OFFCURVE",
"180 383 CURVE SMOOTH",
"164 383 OFFCURVE",
"150 369 OFFCURVE",
"150 353 CURVE SMOOTH"
);
},
{
closed = 1;
nodes = (
"156 14 OFFCURVE",
"170 0 OFFCURVE",
"186 0 CURVE SMOOTH",
"202 0 OFFCURVE",
"216 14 OFFCURVE",
"216 30 CURVE SMOOTH",
"216 46 OFFCURVE",
"202 60 OFFCURVE",
"186 60 CURVE SMOOTH",
"170 60 OFFCURVE",
"156 46 OFFCURVE",
"156 30 CURVE SMOOTH"
);
},
{
closed = 1;
nodes = (
"156 628 OFFCURVE",
"170 614 OFFCURVE",
"186 614 CURVE SMOOTH",
"202 614 OFFCURVE",
"216 627 OFFCURVE",
"216 644 CURVE SMOOTH",
"216 660 OFFCURVE",
"202 674 OFFCURVE",
"186 674 CURVE SMOOTH",
"170 674 OFFCURVE",
"156 660 OFFCURVE",
"156 644 CURVE SMOOTH"
);
},
{
closed = 1;
nodes = (
"230 337 OFFCURVE",
"244 323 OFFCURVE",
"260 323 CURVE SMOOTH",
"276 323 OFFCURVE",
"290 337 OFFCURVE",
"290 353 CURVE SMOOTH",
"290 370 OFFCURVE",
"276 383 OFFCURVE",
"260 383 CURVE SMOOTH",
"244 383 OFFCURVE",
"230 369 OFFCURVE",
"230 353 CURVE SMOOTH"
);
},
{
closed = 1;
nodes = (
"237 14 OFFCURVE",
"251 0 OFFCURVE",
"267 0 CURVE SMOOTH",
"283 0 OFFCURVE",
"297 14 OFFCURVE",
"297 30 CURVE SMOOTH",
"297 46 OFFCURVE",
"283 60 OFFCURVE",
"267 60 CURVE SMOOTH",
"251 60 OFFCURVE",
"237 46 OFFCURVE",
"237 30 CURVE SMOOTH"
);
},
{
closed = 1;
nodes = (
"237 628 OFFCURVE",
"251 614 OFFCURVE",
"267 614 CURVE SMOOTH",
"283 614 OFFCURVE",
"297 627 OFFCURVE",
"297 644 CURVE SMOOTH",
"297 660 OFFCURVE",
"283 674 OFFCURVE",
"267 674 CURVE SMOOTH",
"251 674 OFFCURVE",
"237 660 OFFCURVE",
"237 644 CURVE SMOOTH"
);
},
{
closed = 1;
nodes = (
"390 337 OFFCURVE",
"404 323 OFFCURVE",
"420 323 CURVE SMOOTH",
"436 323 OFFCURVE",
"450 337 OFFCURVE",
"450 353 CURVE SMOOTH",
"450 369 OFFCURVE",
"436 383 OFFCURVE",
"420 383 CURVE SMOOTH",
"404 383 OFFCURVE",
"390 369 OFFCURVE",
"390 353 CURVE SMOOTH"
);
},
{
closed = 1;
nodes = (
"400 19 OFFCURVE",
"415 4 OFFCURVE",
"432 4 CURVE SMOOTH",
"449 4 OFFCURVE",
"464 19 OFFCURVE",
"464 36 CURVE SMOOTH",
"464 53 OFFCURVE",
"449 68 OFFCURVE",
"432 68 CURVE SMOOTH",
"415 68 OFFCURVE",
"400 53 OFFCURVE",
"400 36 CURVE SMOOTH"
);
},
{
closed = 1;
nodes = (
"398 619 OFFCURVE",
"412 606 OFFCURVE",
"429 606 CURVE SMOOTH",
"446 606 OFFCURVE",
"460 620 OFFCURVE",
"460 637 CURVE SMOOTH",
"460 654 OFFCURVE",
"446 668 OFFCURVE",
"429 668 CURVE SMOOTH",
"412 668 OFFCURVE",
"398 654 OFFCURVE",
"398 637 CURVE SMOOTH"
);
},
{
closed = 1;
nodes = (
"451 395 OFFCURVE",
"466 380 OFFCURVE",
"483 380 CURVE SMOOTH",
"500 380 OFFCURVE",
"515 395 OFFCURVE",
"515 412 CURVE SMOOTH",
"515 428 OFFCURVE",
"500 444 OFFCURVE",
"483 444 CURVE SMOOTH",
"466 444 OFFCURVE",
"451 429 OFFCURVE",
"451 412 CURVE SMOOTH"
);
},
{
closed = 1;
nodes = (
"463 568 OFFCURVE",
"478 553 OFFCURVE",
"495 553 CURVE SMOOTH",
"512 553 OFFCURVE",
"527 568 OFFCURVE",
"527 585 CURVE SMOOTH",
"527 602 OFFCURVE",
"513 617 OFFCURVE",
"495 617 CURVE SMOOTH",
"478 617 OFFCURVE",
"463 602 OFFCURVE",
"463 585 CURVE"
);
},
{
closed = 1;
nodes = (
"459 299 OFFCURVE",
"474 284 OFFCURVE",
"492 284 CURVE SMOOTH",
"510 284 OFFCURVE",
"525 299 OFFCURVE",
"525 317 CURVE SMOOTH",
"525 334 OFFCURVE",
"510 350 OFFCURVE",
"492 350 CURVE SMOOTH",
"474 350 OFFCURVE",
"459 335 OFFCURVE",
"459 317 CURVE SMOOTH"
);
},
{
closed = 1;
nodes = (
"473 479 OFFCURVE",
"489 463 OFFCURVE",
"508 463 CURVE SMOOTH",
"527 463 OFFCURVE",
"543 479 OFFCURVE",
"543 498 CURVE SMOOTH",
"543 517 OFFCURVE",
"527 533 OFFCURVE",
"508 533 CURVE SMOOTH",
"489 533 OFFCURVE",
"473 517 OFFCURVE",
"473 498 CURVE SMOOTH"
);
},
{
closed = 1;
nodes = (
"511 138 OFFCURVE",
"527 122 OFFCURVE",
"546 122 CURVE SMOOTH",
"565 122 OFFCURVE",
"581 138 OFFCURVE",
"581 157 CURVE SMOOTH",
"581 176 OFFCURVE",
"565 192 OFFCURVE",
"546 192 CURVE SMOOTH",
"527 192 OFFCURVE",
"511 176 OFFCURVE",
"511 157 CURVE SMOOTH"
);
},
{
closed = 1;
nodes = (
"508 226 OFFCURVE",
"524 210 OFFCURVE",
"543 210 CURVE SMOOTH",
"562 210 OFFCURVE",
"578 228 OFFCURVE",
"578 245 CURVE SMOOTH",
"578 264 OFFCURVE",
"562 280 OFFCURVE",
"543 280 CURVE SMOOTH",
"524 280 OFFCURVE",
"508 264 OFFCURVE",
"508 245 CURVE SMOOTH"
);
},
{
closed = 1;
nodes = (
"310 337 OFFCURVE",
"324 323 OFFCURVE",
"340 323 CURVE SMOOTH",
"356 323 OFFCURVE",
"370 337 OFFCURVE",
"370 353 CURVE SMOOTH",
"370 370 OFFCURVE",
"356 383 OFFCURVE",
"340 383 CURVE SMOOTH",
"324 383 OFFCURVE",
"310 369 OFFCURVE",
"310 353 CURVE SMOOTH"
);
},
{
closed = 1;
nodes = (
"318 14 OFFCURVE",
"332 0 OFFCURVE",
"348 0 CURVE SMOOTH",
"364 0 OFFCURVE",
"378 14 OFFCURVE",
"378 30 CURVE SMOOTH",
"378 46 OFFCURVE",
"364 60 OFFCURVE",
"348 60 CURVE SMOOTH",
"332 60 OFFCURVE",
"318 46 OFFCURVE",
"318 30 CURVE SMOOTH"
);
},
{
closed = 1;
nodes = (
"318 628 OFFCURVE",
"332 614 OFFCURVE",
"348 614 CURVE SMOOTH",
"364 614 OFFCURVE",
"378 628 OFFCURVE",
"378 644 CURVE SMOOTH",
"378 660 OFFCURVE",
"364 674 OFFCURVE",
"348 674 CURVE SMOOTH",
"332 674 OFFCURVE",
"318 660 OFFCURVE",
"318 644 CURVE SMOOTH"
);
},
{
closed = 1;
nodes = (
"70 14 OFFCURVE",
"85 0 OFFCURVE",
"103 0 CURVE SMOOTH",
"122 0 OFFCURVE",
"135 14 OFFCURVE",
"135 33 CURVE SMOOTH",
"135 50 OFFCURVE",
"122 65 OFFCURVE",
"103 65 CURVE SMOOTH",
"85 65 OFFCURVE",
"70 49 OFFCURVE",
"70 33 CURVE SMOOTH"
);
},
{
closed = 1;
nodes = (
"472 61 OFFCURVE",
"487 46 OFFCURVE",
"505 46 CURVE SMOOTH",
"523 46 OFFCURVE",
"538 61 OFFCURVE",
"538 79 CURVE SMOOTH",
"538 97 OFFCURVE",
"523 112 OFFCURVE",
"505 112 CURVE SMOOTH",
"487 112 OFFCURVE",
"472 97 OFFCURVE",
"472 79 CURVE SMOOTH"
);
}
);
width = 631;
}
);
note = B;
unicode = 0042;
},
{
glyphname = a;
lastChange = "2021-09-01 22:22:21 +0000";
layers = (
{
layerId = "197054AD-3E11-4C46-98D6-E9AEE179F0DA";
paths = (
{
closed = 1;
nodes = (
"337 101 OFFCURVE",
"350 87 OFFCURVE",
"369 87 CURVE SMOOTH",
"387 87 OFFCURVE",
"402 101 OFFCURVE",
"402 120 CURVE SMOOTH",
"402 136 OFFCURVE",
"387 152 OFFCURVE",
"369 152 CURVE SMOOTH",
"350 152 OFFCURVE",
"337 137 OFFCURVE",
"337 120 CURVE SMOOTH"
);
},
{
closed = 1;
nodes = (
"48 164 OFFCURVE",
"64 148 OFFCURVE",
"83 148 CURVE SMOOTH",
"102 148 OFFCURVE",
"118 164 OFFCURVE",
"118 183 CURVE SMOOTH",
"118 202 OFFCURVE",
"103 218 OFFCURVE",
"83 218 CURVE SMOOTH",
"64 218 OFFCURVE",
"48 202 OFFCURVE",
"48 183 CURVE SMOOTH"
);
},
{
closed = 1;
nodes = (
"50 70 OFFCURVE",
"66 54 OFFCURVE",
"85 54 CURVE SMOOTH",
"106 54 OFFCURVE",
"120 69 OFFCURVE",
"120 89 CURVE SMOOTH",
"120 107 OFFCURVE",
"104 124 OFFCURVE",
"85 124 CURVE SMOOTH",
"66 124 OFFCURVE",
"50 108 OFFCURVE",
"50 89 CURVE SMOOTH"
);
},
{
closed = 1;
nodes = (
"81 467 OFFCURVE",
"94 480 OFFCURVE",
"109 480 CURVE SMOOTH",
"125 480 OFFCURVE",
"137 467 OFFCURVE",
"137 452 CURVE SMOOTH",
"139 436 OFFCURVE",
"125 423 OFFCURVE",
"109 423 CURVE SMOOTH",
"94 423 OFFCURVE",
"81 436 OFFCURVE",
"81 452 CURVE SMOOTH"
);
},
{
closed = 1;
nodes = (
"109 269 OFFCURVE",
"122 284 OFFCURVE",
"140 284 CURVE SMOOTH",
"157 284 OFFCURVE",
"173 269 OFFCURVE",
"173 252 CURVE SMOOTH",
"173 234 OFFCURVE",
"157 220 OFFCURVE",
"140 220 CURVE SMOOTH",
"122 220 OFFCURVE",
"109 234 OFFCURVE",
"109 252 CURVE SMOOTH"
);
},
{
closed = 1;
nodes = (
"111 -1 OFFCURVE",
"126 -16 OFFCURVE",
"145 -16 CURVE SMOOTH",
"164 -16 OFFCURVE",
"179 -1 OFFCURVE",
"179 18 CURVE SMOOTH",
"179 38 OFFCURVE",
"164 52 OFFCURVE",
"145 52 CURVE SMOOTH",
"126 52 OFFCURVE",
"111 37 OFFCURVE",
"111 18 CURVE SMOOTH"
);
},
{
closed = 1;
nodes = (
"148 494 OFFCURVE",
"161 507 OFFCURVE",
"176 507 CURVE SMOOTH",
"192 507 OFFCURVE",
"204 494 OFFCURVE",
"204 479 CURVE SMOOTH",
"206 463 OFFCURVE",
"192 450 OFFCURVE",
"176 450 CURVE SMOOTH",
"161 450 OFFCURVE",
"148 463 OFFCURVE",
"148 479 CURVE SMOOTH"
);
},
{
closed = 1;
nodes = (
"190 288 OFFCURVE",
"204 302 OFFCURVE",
"221 302 CURVE SMOOTH",
"237 302 OFFCURVE",
"251 288 OFFCURVE",
"251 272 CURVE SMOOTH",
"251 255 OFFCURVE",
"237 242 OFFCURVE",
"221 242 CURVE SMOOTH",
"204 242 OFFCURVE",
"190 255 OFFCURVE",
"190 272 CURVE SMOOTH"
);
},
{
closed = 1;
nodes = (
"203 38 OFFCURVE",
"216 52 OFFCURVE",
"235 52 CURVE SMOOTH",
"253 52 OFFCURVE",
"267 38 OFFCURVE",
"267 20 CURVE SMOOTH",
"267 0 OFFCURVE",
"253 -13 OFFCURVE",
"235 -13 CURVE SMOOTH",
"216 -13 OFFCURVE",
"203 1 OFFCURVE",
"203 20 CURVE SMOOTH"
);
},
{
closed = 1;
nodes = (
"222 502 OFFCURVE",
"234 515 OFFCURVE",
"250 515 CURVE SMOOTH",
"265 515 OFFCURVE",
"278 502 OFFCURVE",
"278 487 CURVE SMOOTH",
"278 471 OFFCURVE",
"265 458 OFFCURVE",
"250 458 CURVE SMOOTH",
"234 458 OFFCURVE",
"220 471 OFFCURVE",
"222 487 CURVE SMOOTH"
);
},
{
closed = 1;
nodes = (
"273 277 OFFCURVE",
"285 290 OFFCURVE",
"301 290 CURVE SMOOTH",
"316 290 OFFCURVE",
"329 277 OFFCURVE",
"329 262 CURVE SMOOTH",
"329 246 OFFCURVE",
"316 233 OFFCURVE",
"301 233 CURVE SMOOTH",
"285 233 OFFCURVE",
"273 246 OFFCURVE",
"273 262 CURVE SMOOTH"
);
},
{
closed = 1;
nodes = (
"277 80 OFFCURVE",
"289 93 OFFCURVE",
"307 93 CURVE SMOOTH",
"324 93 OFFCURVE",
"337 80 OFFCURVE",
"337 63 CURVE SMOOTH",
"337 45 OFFCURVE",
"324 32 OFFCURVE",
"307 32 CURVE SMOOTH",
"289 32 OFFCURVE",
"277 45 OFFCURVE",
"277 63 CURVE SMOOTH"
);
},
{
closed = 1;
nodes = (
"290 473 OFFCURVE",
"305 488 OFFCURVE",
"321 488 CURVE SMOOTH",
"339 488 OFFCURVE",
"352 473 OFFCURVE",
"352 457 CURVE SMOOTH",
"352 439 OFFCURVE",
"339 426 OFFCURVE",
"321 426 CURVE SMOOTH",
"304 426 OFFCURVE",
"290 440 OFFCURVE",
"290 457 CURVE SMOOTH"
);
},
{
closed = 1;
nodes = (
"333 367 OFFCURVE",
"348 353 OFFCURVE",
"366 353 CURVE SMOOTH",
"384 353 OFFCURVE",
"399 368 OFFCURVE",
"399 386 CURVE SMOOTH",
"399 404 OFFCURVE",
"384 419 OFFCURVE",
"366 419 CURVE SMOOTH",
"348 419 OFFCURVE",
"333 404 OFFCURVE",
"333 386 CURVE SMOOTH"
);
},
{
closed = 1;
nodes = (
"337 224 OFFCURVE",
"350 239 OFFCURVE",
"369 239 CURVE SMOOTH",
"387 239 OFFCURVE",
"402 224 OFFCURVE",
"402 207 CURVE SMOOTH",
"402 188 OFFCURVE",
"387 174 OFFCURVE",
"369 174 CURVE SMOOTH",
"350 174 OFFCURVE",
"337 189 OFFCURVE",
"337 207 CURVE SMOOTH"
);
},
{
closed = 1;
nodes = (
"337 311 OFFCURVE",
"350 326 OFFCURVE",
"369 326 CURVE SMOOTH",
"387 326 OFFCURVE",
"402 311 OFFCURVE",
"402 294 CURVE SMOOTH",
"402 275 OFFCURVE",
"387 261 OFFCURVE",
"369 261 CURVE SMOOTH",
"350 261 OFFCURVE",
"337 276 OFFCURVE",
"337 294 CURVE SMOOTH"
);
},
{
closed = 1;
nodes = (
"357 15 OFFCURVE",
"370 0 OFFCURVE",
"389 0 CURVE SMOOTH",
"407 1 OFFCURVE",
"422 15 OFFCURVE",
"422 33 CURVE SMOOTH",
"422 52 OFFCURVE",
"407 65 OFFCURVE",
"389 65 CURVE SMOOTH",
"370 65 OFFCURVE",
"357 51 OFFCURVE",
"357 33 CURVE SMOOTH"
);
}
);
width = 474;
}
);
note = a.002;
unicode = 0061;
},
{
glyphname = c;
lastChange = "2021-09-01 21:58:50 +0000";
layers = (
{
background = {
paths = (
{
closed = 1;
nodes = (
"651 -2 OFFCURVE",
"639 -15 OFFCURVE",
"623 -15 CURVE SMOOTH",
"608 -15 OFFCURVE",
"595 -2 OFFCURVE",
"595 13 CURVE SMOOTH",
"595 29 OFFCURVE",
"608 42 OFFCURVE",
"623 42 CURVE SMOOTH",
"639 42 OFFCURVE",
"651 29 OFFCURVE",
"651 13 CURVE SMOOTH"
);
},
{
closed = 1;
nodes = (
"460 186 OFFCURVE",
"476 170 OFFCURVE",
"495 170 CURVE SMOOTH",
"515 170 OFFCURVE",
"530 186 OFFCURVE",
"530 205 CURVE SMOOTH",
"530 224 OFFCURVE",
"514 240 OFFCURVE",
"495 240 CURVE SMOOTH",
"476 240 OFFCURVE",
"460 224 OFFCURVE",
"460 205 CURVE SMOOTH"
);
},
{
closed = 1;
nodes = (
"460 276 OFFCURVE",
"476 260 OFFCURVE",
"495 260 CURVE SMOOTH",
"514 260 OFFCURVE",
"530 276 OFFCURVE",
"530 295 CURVE SMOOTH",
"530 314 OFFCURVE",
"515 330 OFFCURVE",
"495 330 CURVE SMOOTH",
"476 330 OFFCURVE",
"460 314 OFFCURVE",
"460 295 CURVE SMOOTH"
);
},
{
closed = 1;
nodes = (
"477 96 OFFCURVE",
"492 81 OFFCURVE",
"510 81 CURVE SMOOTH",
"528 81 OFFCURVE",
"543 96 OFFCURVE",
"543 114 CURVE SMOOTH",
"543 133 OFFCURVE",
"528 147 OFFCURVE",
"510 147 CURVE SMOOTH",
"492 147 OFFCURVE",
"477 132 OFFCURVE",
"477 114 CURVE SMOOTH"
);
},
{
closed = 1;
nodes = (
"477 368 OFFCURVE",
"492 353 OFFCURVE",
"510 353 CURVE SMOOTH",
"528 353 OFFCURVE",
"543 367 OFFCURVE",
"543 386 CURVE SMOOTH",
"543 404 OFFCURVE",
"528 419 OFFCURVE",
"510 419 CURVE SMOOTH",
"492 419 OFFCURVE",
"477 404 OFFCURVE",
"477 386 CURVE SMOOTH"
);
},
{
closed = 1;
nodes = (
"526 65 OFFCURVE",
"539 78 OFFCURVE",
"557 78 CURVE SMOOTH",
"574 78 OFFCURVE",
"588 64 OFFCURVE",
"588 47 CURVE SMOOTH",
"588 31 OFFCURVE",
"573 16 OFFCURVE",
"557 16 CURVE SMOOTH",
"539 16 OFFCURVE",
"526 31 OFFCURVE",
"526 47 CURVE SMOOTH"
);
},
{
closed = 1;
nodes = (
"526 469 OFFCURVE",
"539 484 OFFCURVE",
"557 484 CURVE SMOOTH",
"573 484 OFFCURVE",
"588 469 OFFCURVE",
"588 453 CURVE SMOOTH",
"588 436 OFFCURVE",
"574 422 OFFCURVE",
"557 422 CURVE SMOOTH",
"539 422 OFFCURVE",
"526 435 OFFCURVE",
"526 453 CURVE SMOOTH"
);
},
{
closed = 1;
nodes = (
"595 502 OFFCURVE",
"608 515 OFFCURVE",
"623 515 CURVE SMOOTH",
"639 515 OFFCURVE",
"651 502 OFFCURVE",
"651 487 CURVE SMOOTH",
"653 471 OFFCURVE",
"639 458 OFFCURVE",
"623 458 CURVE SMOOTH",
"608 458 OFFCURVE",
"595 471 OFFCURVE",
"595 487 CURVE SMOOTH"
);
},
{
closed = 1;
nodes = (
"673 29 OFFCURVE",
"685 42 OFFCURVE",
"701 42 CURVE SMOOTH",
"716 42 OFFCURVE",
"729 29 OFFCURVE",
"729 13 CURVE SMOOTH",
"729 -2 OFFCURVE",
"716 -15 OFFCURVE",
"701 -15 CURVE SMOOTH",
"685 -15 OFFCURVE",
"673 -2 OFFCURVE",
"673 13 CURVE SMOOTH"
);
},
{
closed = 1;
nodes = (
"673 502 OFFCURVE",
"685 515 OFFCURVE",
"701 515 CURVE SMOOTH",
"716 515 OFFCURVE",
"729 502 OFFCURVE",
"729 487 CURVE SMOOTH",
"729 471 OFFCURVE",
"716 458 OFFCURVE",
"701 458 CURVE SMOOTH",
"685 458 OFFCURVE",
"671 471 OFFCURVE",
"673 487 CURVE SMOOTH"
);
},
{
closed = 1;
nodes = (
"741 477 OFFCURVE",
"753 490 OFFCURVE",
"769 490 CURVE SMOOTH",
"784 490 OFFCURVE",
"797 477 OFFCURVE",
"797 462 CURVE SMOOTH",
"797 447 OFFCURVE",
"784 433 OFFCURVE",
"769 433 CURVE SMOOTH",
"753 433 OFFCURVE",
"739 446 OFFCURVE",
"741 462 CURVE SMOOTH"
);
},
{
closed = 1;
nodes = (
"742 53 OFFCURVE",
"754 66 OFFCURVE",
"769 66 CURVE SMOOTH",
"783 66 OFFCURVE",
"796 53 OFFCURVE",
"796 38 CURVE SMOOTH",
"796 24 OFFCURVE",
"783 11 OFFCURVE",
"769 11 CURVE SMOOTH",
"754 11 OFFCURVE",
"742 24 OFFCURVE",
"742 38 CURVE"
);
},
{
closed = 1;
nodes = (
"742 403 OFFCURVE",
"754 416 OFFCURVE",
"770 416 CURVE SMOOTH",
"785 416 OFFCURVE",
"798 403 OFFCURVE",
"798 388 CURVE SMOOTH",
"798 373 OFFCURVE",
"785 359 OFFCURVE",
"770 359 CURVE SMOOTH",
"754 359 OFFCURVE",
"740 372 OFFCURVE",
"742 388 CURVE SMOOTH"
);
}
);
};
layerId = "197054AD-3E11-4C46-98D6-E9AEE179F0DA";
paths = (
{
closed = 1;
nodes = (
"245 -2 OFFCURVE",
"233 -15 OFFCURVE",
"217 -15 CURVE SMOOTH",
"202 -15 OFFCURVE",
"189 -2 OFFCURVE",
"189 13 CURVE SMOOTH",
"189 29 OFFCURVE",
"202 42 OFFCURVE",
"217 42 CURVE SMOOTH",
"233 42 OFFCURVE",
"245 29 OFFCURVE",
"245 13 CURVE SMOOTH"
);
},
{
closed = 1;
nodes = (
"55 190 OFFCURVE",
"71 174 OFFCURVE",
"89 174 CURVE SMOOTH",
"109 174 OFFCURVE",
"123 189 OFFCURVE",
"123 208 CURVE SMOOTH",
"123 226 OFFCURVE",
"107 240 OFFCURVE",
"89 240 CURVE SMOOTH",
"71 240 OFFCURVE",
"55 226 OFFCURVE",
"55 208 CURVE SMOOTH"
);
},
{
closed = 1;
nodes = (
"70 102 OFFCURVE",
"85 87 OFFCURVE",
"103 87 CURVE SMOOTH",
"121 87 OFFCURVE",
"136 102 OFFCURVE",
"136 120 CURVE SMOOTH",
"136 139 OFFCURVE",
"121 153 OFFCURVE",
"103 153 CURVE SMOOTH",
"85 153 OFFCURVE",
"70 138 OFFCURVE",
"70 120 CURVE SMOOTH"
);
},
{
closed = 1;
nodes = (
"117 67 OFFCURVE",
"130 80 OFFCURVE",
"148 80 CURVE SMOOTH",
"165 80 OFFCURVE",
"179 66 OFFCURVE",
"179 49 CURVE SMOOTH",
"179 33 OFFCURVE",
"165 18 OFFCURVE",
"148 18 CURVE SMOOTH",
"130 18 OFFCURVE",
"117 33 OFFCURVE",
"117 49 CURVE SMOOTH"
);
},
{
closed = 1;
nodes = (
"267 29 OFFCURVE",
"279 42 OFFCURVE",
"295 42 CURVE SMOOTH",
"310 42 OFFCURVE",
"323 29 OFFCURVE",
"323 13 CURVE SMOOTH",
"323 -2 OFFCURVE",
"310 -15 OFFCURVE",
"295 -15 CURVE SMOOTH",
"279 -15 OFFCURVE",
"267 -2 OFFCURVE",
"267 13 CURVE SMOOTH"
);
},
{
closed = 1;
nodes = (
"245 471 OFFCURVE",
"233 458 OFFCURVE",
"217 458 CURVE SMOOTH",
"202 458 OFFCURVE",
"189 471 OFFCURVE",
"189 487 CURVE SMOOTH",
"189 502 OFFCURVE",
"202 515 OFFCURVE",
"217 515 CURVE SMOOTH",
"233 515 OFFCURVE",
"245 502 OFFCURVE",
"245 487 CURVE SMOOTH"
);
},
{
closed = 1;
nodes = (
"55 274 OFFCURVE",
"71 260 OFFCURVE",
"89 260 CURVE SMOOTH",
"107 260 OFFCURVE",
"123 274 OFFCURVE",
"123 292 CURVE SMOOTH",
"123 311 OFFCURVE",
"109 326 OFFCURVE",
"89 326 CURVE SMOOTH",
"71 326 OFFCURVE",
"55 310 OFFCURVE",
"55 292 CURVE SMOOTH"
);
},
{
closed = 1;
nodes = (
"70 362 OFFCURVE",
"85 347 OFFCURVE",
"103 347 CURVE SMOOTH",
"121 347 OFFCURVE",
"136 361 OFFCURVE",
"136 380 CURVE SMOOTH",
"136 398 OFFCURVE",
"121 413 OFFCURVE",
"103 413 CURVE SMOOTH",
"85 413 OFFCURVE",
"70 398 OFFCURVE",
"70 380 CURVE SMOOTH"
);
},
{
closed = 1;
nodes = (
"117 467 OFFCURVE",
"130 482 OFFCURVE",
"148 482 CURVE SMOOTH",
"165 482 OFFCURVE",
"179 467 OFFCURVE",
"179 451 CURVE SMOOTH",
"179 434 OFFCURVE",
"165 420 OFFCURVE",
"148 420 CURVE SMOOTH",
"130 420 OFFCURVE",
"117 433 OFFCURVE",
"117 451 CURVE SMOOTH"
);
},
{
closed = 1;
nodes = (
"267 502 OFFCURVE",
"279 515 OFFCURVE",
"295 515 CURVE SMOOTH",
"310 515 OFFCURVE",
"323 502 OFFCURVE",
"323 487 CURVE SMOOTH",
"323 471 OFFCURVE",
"310 458 OFFCURVE",
"295 458 CURVE SMOOTH",
"279 458 OFFCURVE",
"267 471 OFFCURVE",
"267 487 CURVE SMOOTH"
);
},
{
closed = 1;
nodes = (
"335 477 OFFCURVE",
"347 490 OFFCURVE",
"363 490 CURVE SMOOTH",
"378 490 OFFCURVE",
"391 477 OFFCURVE",
"391 462 CURVE SMOOTH",
"391 447 OFFCURVE",
"378 433 OFFCURVE",
"363 433 CURVE SMOOTH",
"347 433 OFFCURVE",
"333 446 OFFCURVE",
"335 462 CURVE SMOOTH"
);
},
{
closed = 1;
nodes = (
"336 53 OFFCURVE",
"348 66 OFFCURVE",
"363 66 CURVE SMOOTH",
"377 66 OFFCURVE",
"390 53 OFFCURVE",
"390 38 CURVE SMOOTH",
"390 24 OFFCURVE",
"377 11 OFFCURVE",
"363 11 CURVE SMOOTH",
"348 11 OFFCURVE",
"336 24 OFFCURVE",
"336 38 CURVE"
);
},
{
closed = 1;
nodes = (
"335 398 OFFCURVE",
"347 411 OFFCURVE",
"363 411 CURVE SMOOTH",
"378 411 OFFCURVE",
"391 398 OFFCURVE",
"391 383 CURVE SMOOTH",
"391 368 OFFCURVE",
"378 354 OFFCURVE",
"363 354 CURVE SMOOTH",
"347 354 OFFCURVE",
"333 367 OFFCURVE",
"335 383 CURVE SMOOTH"
);
}
);
width = 443;
}
);
note = c;
unicode = 0063;
},
{
glyphname = d;
lastChange = "2021-09-01 22:34:12 +0000";
layers = (
{
layerId = "197054AD-3E11-4C46-98D6-E9AEE179F0DA";
paths = (
{
closed = 1;
nodes = (
"271 29 OFFCURVE",
"284 42 OFFCURVE",
"300 42 CURVE SMOOTH",
"315 42 OFFCURVE",
"328 29 OFFCURVE",
"328 13 CURVE SMOOTH",
"328 -2 OFFCURVE",
"315 -15 OFFCURVE",
"300 -15 CURVE SMOOTH",
"284 -15 OFFCURVE",
"271 -2 OFFCURVE",
"271 13 CURVE SMOOTH"
);
},
{
closed = 1;
nodes = (
"54 186 OFFCURVE",
"70 170 OFFCURVE",
"89 170 CURVE SMOOTH",
"109 170 OFFCURVE",
"124 186 OFFCURVE",
"124 205 CURVE SMOOTH",
"124 224 OFFCURVE",
"108 240 OFFCURVE",
"89 240 CURVE SMOOTH",
"70 240 OFFCURVE",
"54 223 OFFCURVE",
"54 205 CURVE SMOOTH"
);
},
{
closed = 1;
nodes = (
"54 276 OFFCURVE",
"70 262 OFFCURVE",
"89 262 CURVE SMOOTH",
"108 262 OFFCURVE",
"124 278 OFFCURVE",
"124 297 CURVE SMOOTH",
"124 316 OFFCURVE",
"109 332 OFFCURVE",
"89 332 CURVE SMOOTH",
"70 332 OFFCURVE",
"54 316 OFFCURVE",
"54 297 CURVE SMOOTH"
);
},
{
closed = 1;
nodes = (
"71 96 OFFCURVE",
"86 81 OFFCURVE",
"104 81 CURVE SMOOTH",
"122 81 OFFCURVE",
"137 96 OFFCURVE",
"137 114 CURVE SMOOTH",
"137 133 OFFCURVE",
"122 147 OFFCURVE",
"104 147 CURVE SMOOTH",
"86 147 OFFCURVE",
"71 132 OFFCURVE",
"71 114 CURVE SMOOTH"
);
},
{
closed = 1;
nodes = (
"71 368 OFFCURVE",
"86 353 OFFCURVE",
"104 353 CURVE SMOOTH",
"122 353 OFFCURVE",
"137 367 OFFCURVE",
"137 386 CURVE SMOOTH",
"137 404 OFFCURVE",
"122 419 OFFCURVE",
"104 419 CURVE SMOOTH",
"86 419 OFFCURVE",
"71 404 OFFCURVE",
"71 386 CURVE SMOOTH"
);
},
{
closed = 1;
nodes = (
"120 65 OFFCURVE",
"133 78 OFFCURVE",
"151 78 CURVE SMOOTH",
"168 78 OFFCURVE",
"182 64 OFFCURVE",
"182 47 CURVE SMOOTH",
"182 31 OFFCURVE",
"167 16 OFFCURVE",
"151 16 CURVE SMOOTH",
"133 16 OFFCURVE",
"120 31 OFFCURVE",
"120 47 CURVE SMOOTH"
);
},
{
closed = 1;
nodes = (
"131 473 OFFCURVE",
"144 488 OFFCURVE",
"162 488 CURVE SMOOTH",
"178 488 OFFCURVE",
"193 473 OFFCURVE",
"193 457 CURVE SMOOTH",
"193 440 OFFCURVE",
"179 426 OFFCURVE",
"162 426 CURVE SMOOTH",
"144 426 OFFCURVE",
"131 439 OFFCURVE",
"131 457 CURVE SMOOTH"
);
},
{
closed = 1;
nodes = (
"194 29 OFFCURVE",
"207 42 OFFCURVE",
"222 42 CURVE SMOOTH",
"238 42 OFFCURVE",
"250 29 OFFCURVE",
"250 13 CURVE SMOOTH",
"250 -2 OFFCURVE",
"238 -15 OFFCURVE",
"222 -15 CURVE SMOOTH",
"207 -15 OFFCURVE",
"194 -2 OFFCURVE",
"194 13 CURVE SMOOTH"
);
},
{
closed = 1;
nodes = (
"205 502 OFFCURVE",
"218 515 OFFCURVE",
"233 515 CURVE SMOOTH",
"249 515 OFFCURVE",
"261 502 OFFCURVE",
"261 487 CURVE SMOOTH",
"263 471 OFFCURVE",
"249 458 OFFCURVE",
"233 458 CURVE SMOOTH",
"218 458 OFFCURVE",
"205 471 OFFCURVE",
"205 487 CURVE SMOOTH"
);
},
{
closed = 1;
nodes = (
"281 493 OFFCURVE",
"292 505 OFFCURVE",
"307 505 CURVE SMOOTH",
"321 505 OFFCURVE",
"333 493 OFFCURVE",
"333 479 CURVE SMOOTH",
"333 464 OFFCURVE",
"321 452 OFFCURVE",
"307 452 CURVE SMOOTH",
"292 452 OFFCURVE",
"279 464 OFFCURVE",
"281 479 CURVE"
);
},
{
closed = 1;
nodes = (
"348 453 OFFCURVE",
"359 465 OFFCURVE",
"374 465 CURVE SMOOTH",
"388 465 OFFCURVE",
"400 453 OFFCURVE",
"400 439 CURVE SMOOTH",
"400 424 OFFCURVE",
"388 412 OFFCURVE",
"374 412 CURVE SMOOTH",
"359 412 OFFCURVE",
"346 424 OFFCURVE",
"348 439 CURVE"
);
},
{
closed = 1;
nodes = (
"346 71 OFFCURVE",
"357 83 OFFCURVE",
"373 83 CURVE SMOOTH",
"388 83 OFFCURVE",
"400 71 OFFCURVE",
"400 56 CURVE SMOOTH",
"400 40 OFFCURVE",
"388 28 OFFCURVE",
"373 28 CURVE SMOOTH",
"357 28 OFFCURVE",
"344 40 OFFCURVE",
"346 56 CURVE SMOOTH"
);
},
{
closed = 1;
nodes = (
"406 101 OFFCURVE",
"421 87 OFFCURVE",
"439 87 CURVE SMOOTH",
"458 87 OFFCURVE",
"471 101 OFFCURVE",
"471 120 CURVE SMOOTH",
"471 137 OFFCURVE",
"458 152 OFFCURVE",
"439 152 CURVE SMOOTH",
"421 152 OFFCURVE",
"406 136 OFFCURVE",
"406 120 CURVE SMOOTH"
);
},
{
closed = 1;
nodes = (
"406 224 OFFCURVE",
"421 239 OFFCURVE",
"439 239 CURVE SMOOTH",
"458 239 OFFCURVE",
"471 224 OFFCURVE",
"471 207 CURVE SMOOTH",
"471 189 OFFCURVE",
"458 174 OFFCURVE",
"439 174 CURVE SMOOTH",
"421 174 OFFCURVE",
"406 188 OFFCURVE",
"406 207 CURVE SMOOTH"
);
},
{
closed = 1;
nodes = (
"406 311 OFFCURVE",
"420 326 OFFCURVE",
"439 326 CURVE SMOOTH",
"457 326 OFFCURVE",
"471 311 OFFCURVE",
"471 294 CURVE SMOOTH",
"471 276 OFFCURVE",
"457 261 OFFCURVE",
"439 261 CURVE SMOOTH",
"421 261 OFFCURVE",
"406 275 OFFCURVE",
"406 294 CURVE SMOOTH"
);
},
{
closed = 1;
nodes = (
"406 398 OFFCURVE",
"421 413 OFFCURVE",
"439 413 CURVE SMOOTH",
"458 413 OFFCURVE",
"471 398 OFFCURVE",
"471 381 CURVE SMOOTH",
"471 363 OFFCURVE",
"458 348 OFFCURVE",
"439 348 CURVE SMOOTH",
"421 348 OFFCURVE",
"406 362 OFFCURVE",
"406 381 CURVE SMOOTH"
);
},
{
closed = 1;
nodes = (
"406 485 OFFCURVE",
"421 500 OFFCURVE",
"439 500 CURVE SMOOTH",
"457 500 OFFCURVE",
"471 485 OFFCURVE",
"471 468 CURVE SMOOTH",
"471 450 OFFCURVE",
"457 435 OFFCURVE",
"439 435 CURVE SMOOTH",
"422 435 OFFCURVE",
"406 450 OFFCURVE",
"406 468 CURVE SMOOTH"
);
},
{
closed = 1;
nodes = (
"406 572 OFFCURVE",
"421 587 OFFCURVE",
"439 587 CURVE SMOOTH",
"458 587 OFFCURVE",
"471 572 OFFCURVE",
"471 555 CURVE SMOOTH",
"471 537 OFFCURVE",
"458 522 OFFCURVE",
"439 522 CURVE SMOOTH",
"421 522 OFFCURVE",
"406 536 OFFCURVE",
"406 555 CURVE SMOOTH"
);
},
{
closed = 1;
nodes = (
"406 659 OFFCURVE",
"421 674 OFFCURVE",
"439 674 CURVE SMOOTH",
"457 674 OFFCURVE",
"471 659 OFFCURVE",
"471 642 CURVE SMOOTH",
"471 624 OFFCURVE",
"457 609 OFFCURVE",
"439 609 CURVE SMOOTH",
"422 609 OFFCURVE",
"406 624 OFFCURVE",
"406 642 CURVE SMOOTH"
);
},
{
closed = 1;
nodes = (
"426 15 OFFCURVE",
"441 1 OFFCURVE",
"459 0 CURVE SMOOTH",
"478 0 OFFCURVE",
"491 15 OFFCURVE",
"491 33 CURVE SMOOTH",
"491 51 OFFCURVE",
"478 65 OFFCURVE",
"459 65 CURVE SMOOTH",
"441 65 OFFCURVE",
"426 51 OFFCURVE",
"426 33 CURVE SMOOTH"
);
}
);
width = 543;
}
);
note = d;
unicode = 0064;
},
{
glyphname = f;
lastChange = "2021-09-01 22:50:49 +0000";
layers = (
{
layerId = "197054AD-3E11-4C46-98D6-E9AEE179F0DA";
paths = (
{
closed = 1;
nodes = (
"134 400 OFFCURVE",
"149 415 OFFCURVE",
"167 415 CURVE SMOOTH",
"186 415 OFFCURVE",
"199 400 OFFCURVE",
"199 383 CURVE SMOOTH",
"199 365 OFFCURVE",
"186 350 OFFCURVE",
"167 350 CURVE SMOOTH",
"149 350 OFFCURVE",
"134 364 OFFCURVE",
"134 383 CURVE SMOOTH"
);
},
{
closed = 1;
nodes = (
"56 455 OFFCURVE",
"69 442 OFFCURVE",
"85 442 CURVE SMOOTH",
"101 442 OFFCURVE",
"114 455 OFFCURVE",
"114 471 CURVE SMOOTH",
"114 487 OFFCURVE",
"100 500 OFFCURVE",
"85 500 CURVE SMOOTH",
"69 500 OFFCURVE",
"56 487 OFFCURVE",
"56 471 CURVE SMOOTH"
);
},
{
closed = 1;
nodes = (
"134 15 OFFCURVE",
"149 1 OFFCURVE",
"167 0 CURVE SMOOTH",
"186 0 OFFCURVE",
"199 15 OFFCURVE",
"199 33 CURVE SMOOTH",
"199 51 OFFCURVE",
"186 65 OFFCURVE",
"167 65 CURVE SMOOTH",
"149 65 OFFCURVE",
"134 51 OFFCURVE",
"134 33 CURVE SMOOTH"
);
},
{
closed = 1;
nodes = (
"134 101 OFFCURVE",
"149 87 OFFCURVE",
"167 87 CURVE SMOOTH",
"186 87 OFFCURVE",
"199 101 OFFCURVE",
"199 120 CURVE SMOOTH",
"199 137 OFFCURVE",
"186 152 OFFCURVE",
"167 152 CURVE SMOOTH",
"149 152 OFFCURVE",
"134 136 OFFCURVE",
"134 120 CURVE SMOOTH"
);
},
{
closed = 1;
nodes = (
"134 225 OFFCURVE",
"149 240 OFFCURVE",
"167 240 CURVE SMOOTH",
"186 240 OFFCURVE",
"199 225 OFFCURVE",
"199 208 CURVE SMOOTH",
"199 190 OFFCURVE",
"186 175 OFFCURVE",
"167 175 CURVE SMOOTH",
"149 175 OFFCURVE",
"134 189 OFFCURVE",
"134 208 CURVE SMOOTH"
);
},
{
closed = 1;
nodes = (
"134 312 OFFCURVE",
"148 327 OFFCURVE",
"167 327 CURVE SMOOTH",
"185 327 OFFCURVE",
"199 312 OFFCURVE",
"199 295 CURVE SMOOTH",
"199 277 OFFCURVE",
"185 262 OFFCURVE",
"167 262 CURVE SMOOTH",
"149 262 OFFCURVE",
"134 276 OFFCURVE",
"134 295 CURVE SMOOTH"
);
},
{
closed = 1;
nodes = (
"134 488 OFFCURVE",
"149 503 OFFCURVE",
"167 503 CURVE SMOOTH",
"185 503 OFFCURVE",
"199 488 OFFCURVE",
"199 471 CURVE SMOOTH",
"199 453 OFFCURVE",
"185 438 OFFCURVE",
"167 438 CURVE SMOOTH",
"150 438 OFFCURVE",
"134 453 OFFCURVE",
"134 471 CURVE SMOOTH"
);
},
{
closed = 1;
nodes = (
"134 541 OFFCURVE",
"149 526 OFFCURVE",
"167 526 CURVE SMOOTH",
"185 526 OFFCURVE",
"200 540 OFFCURVE",
"200 559 CURVE SMOOTH",
"200 577 OFFCURVE",
"185 592 OFFCURVE",
"167 592 CURVE SMOOTH",
"149 592 OFFCURVE",
"134 577 OFFCURVE",
"134 559 CURVE SMOOTH"
);
},
{
closed = 1;
nodes = (
"181 646 OFFCURVE",
"194 661 OFFCURVE",
"212 661 CURVE SMOOTH",
"228 661 OFFCURVE",
"243 646 OFFCURVE",
"243 630 CURVE SMOOTH",
"243 613 OFFCURVE",
"229 599 OFFCURVE",
"212 599 CURVE SMOOTH",
"194 599 OFFCURVE",
"181 612 OFFCURVE",
"181 630 CURVE SMOOTH"
);
},
{
closed = 1;
nodes = (
"219 455 OFFCURVE",
"232 442 OFFCURVE",
"248 442 CURVE SMOOTH",
"264 442 OFFCURVE",
"277 455 OFFCURVE",
"277 471 CURVE SMOOTH",
"277 487 OFFCURVE",
"264 500 OFFCURVE",
"248 500 CURVE SMOOTH",
"232 500 OFFCURVE",
"219 487 OFFCURVE",
"219 471 CURVE SMOOTH"
);
},
{
closed = 1;
nodes = (
"254 676 OFFCURVE",
"267 689 OFFCURVE",
"283 689 CURVE SMOOTH",
"300 689 OFFCURVE",
"312 676 OFFCURVE",
"312 660 CURVE SMOOTH",
"312 643 OFFCURVE",
"300 630 OFFCURVE",
"283 630 CURVE SMOOTH",
"267 630 OFFCURVE",
"254 643 OFFCURVE",
"254 660 CURVE SMOOTH"
);
},
{
closed = 1;
nodes = (
"297 455 OFFCURVE",
"310 442 OFFCURVE",
"326 442 CURVE SMOOTH",
"342 442 OFFCURVE",
"355 455 OFFCURVE",
"355 471 CURVE SMOOTH",
"355 487 OFFCURVE",
"342 500 OFFCURVE",
"326 500 CURVE SMOOTH",
"310 500 OFFCURVE",
"297 487 OFFCURVE",
"297 471 CURVE SMOOTH"
);
},
{
closed = 1;
nodes = (
"330 668 OFFCURVE",
"342 680 OFFCURVE",
"359 680 CURVE SMOOTH",
"375 681 OFFCURVE",
"388 668 OFFCURVE",
"388 652 CURVE SMOOTH",
"388 635 OFFCURVE",
"375 623 OFFCURVE",
"359 623 CURVE SMOOTH",
"342 623 OFFCURVE",
"330 635 OFFCURVE",
"330 652 CURVE SMOOTH"
);
}
);
width = 348;
}
);
note = f;
unicode = 0066;
},
{
glyphname = g;
lastChange = "2021-09-02 02:56:35 +0000";
layers = (
{
background = {
paths = (
{
closed = 1;
nodes = (
"269 502 OFFCURVE",
"282 515 OFFCURVE",
"298 515 CURVE SMOOTH",
"313 515 OFFCURVE",
"326 502 OFFCURVE",
"326 487 CURVE SMOOTH",
"326 471 OFFCURVE",
"313 458 OFFCURVE",
"298 458 CURVE SMOOTH",
"282 458 OFFCURVE",
"269 471 OFFCURVE",
"269 487 CURVE SMOOTH"
);
},
{
closed = 1;
nodes = (
"52 184 OFFCURVE",
"68 168 OFFCURVE",
"87 168 CURVE SMOOTH",
"107 168 OFFCURVE",
"122 184 OFFCURVE",
"122 203 CURVE SMOOTH",
"122 222 OFFCURVE",
"106 238 OFFCURVE",
"87 238 CURVE SMOOTH",
"68 238 OFFCURVE",
"52 224 OFFCURVE",
"52 203 CURVE SMOOTH"
);
},
{
closed = 1;
nodes = (
"52 277 OFFCURVE",
"68 260 OFFCURVE",
"87 260 CURVE SMOOTH",
"106 260 OFFCURVE",
"122 276 OFFCURVE",
"122 295 CURVE SMOOTH",
"122 314 OFFCURVE",
"107 330 OFFCURVE",
"87 330 CURVE SMOOTH",
"68 330 OFFCURVE",
"52 314 OFFCURVE",
"52 295 CURVE SMOOTH"
);
},
{
closed = 1;
nodes = (
"69 95 OFFCURVE",
"84 81 OFFCURVE",
"102 81 CURVE SMOOTH",
"120 81 OFFCURVE",
"135 96 OFFCURVE",
"135 114 CURVE SMOOTH",
"135 133 OFFCURVE",
"120 147 OFFCURVE",
"102 147 CURVE SMOOTH",
"84 147 OFFCURVE",
"69 132 OFFCURVE",
"69 114 CURVE SMOOTH"
);
},
{
closed = 1;
nodes = (
"69 368 OFFCURVE",
"84 353 OFFCURVE",
"102 353 CURVE SMOOTH",
"120 353 OFFCURVE",
"135 367 OFFCURVE",
"135 386 CURVE SMOOTH",
"135 404 OFFCURVE",
"120 419 OFFCURVE",
"102 419 CURVE SMOOTH",
"84 419 OFFCURVE",
"69 404 OFFCURVE",
"69 386 CURVE SMOOTH"
);
},
{
closed = 1;
nodes = (
"109 -166 OFFCURVE",
"123 -153 OFFCURVE",
"138 -153 CURVE SMOOTH",
"154 -153 OFFCURVE",
"167 -166 OFFCURVE",
"167 -182 CURVE SMOOTH",
"167 -197 OFFCURVE",
"154 -211 OFFCURVE",
"138 -211 CURVE SMOOTH",
"122 -211 OFFCURVE",
"109 -197 OFFCURVE",
"109 -182 CURVE SMOOTH"
);
},
{
closed = 1;
nodes = (
"118 469 OFFCURVE",
"131 484 OFFCURVE",
"149 484 CURVE SMOOTH",
"165 484 OFFCURVE",
"180 469 OFFCURVE",
"180 453 CURVE SMOOTH",
"180 436 OFFCURVE",
"166 422 OFFCURVE",
"149 422 CURVE SMOOTH",
"131 422 OFFCURVE",
"118 435 OFFCURVE",
"118 453 CURVE SMOOTH"
);
},
{
closed = 1;
nodes = (
"129 68 OFFCURVE",
"142 81 OFFCURVE",
"160 81 CURVE SMOOTH",
"177 81 OFFCURVE",
"191 67 OFFCURVE",
"191 50 CURVE SMOOTH",
"191 34 OFFCURVE",
"176 19 OFFCURVE",
"160 19 CURVE SMOOTH",
"142 19 OFFCURVE",
"129 34 OFFCURVE",
"129 50 CURVE SMOOTH"
);
},
{
closed = 1;
nodes = (
"177 -207 OFFCURVE",
"191 -194 OFFCURVE",
"206 -194 CURVE SMOOTH",
"222 -194 OFFCURVE",
"235 -207 OFFCURVE",
"235 -223 CURVE SMOOTH",
"235 -238 OFFCURVE",
"222 -252 OFFCURVE",
"206 -252 CURVE SMOOTH",
"190 -252 OFFCURVE",
"177 -238 OFFCURVE",
"177 -223 CURVE SMOOTH"
);
},
{
closed = 1;
nodes = (
"192 502 OFFCURVE",
"205 515 OFFCURVE",
"220 515 CURVE SMOOTH",
"236 515 OFFCURVE",
"248 502 OFFCURVE",
"248 487 CURVE SMOOTH",
"248 471 OFFCURVE",
"236 458 OFFCURVE",
"220 458 CURVE SMOOTH",
"205 458 OFFCURVE",
"192 471 OFFCURVE",
"192 487 CURVE SMOOTH"
);
},
{
closed = 1;
nodes = (
"203 36 OFFCURVE",
"216 49 OFFCURVE",
"231 49 CURVE SMOOTH",
"247 49 OFFCURVE",
"259 36 OFFCURVE",
"259 20 CURVE SMOOTH",
"259 5 OFFCURVE",
"247 -8 OFFCURVE",
"231 -8 CURVE SMOOTH",
"216 -8 OFFCURVE",
"203 5 OFFCURVE",
"203 20 CURVE SMOOTH"
);
},
{
closed = 1;
nodes = (
"257 -210 OFFCURVE",
"272 -196 OFFCURVE",
"288 -196 CURVE SMOOTH",
"306 -196 OFFCURVE",
"319 -210 OFFCURVE",
"319 -227 CURVE SMOOTH",
"319 -243 OFFCURVE",
"305 -258 OFFCURVE",
"288 -258 CURVE SMOOTH",
"271 -258 OFFCURVE",
"257 -243 OFFCURVE",
"257 -227 CURVE SMOOTH"
);
},
{
closed = 1;
nodes = (
"277 44 OFFCURVE",
"289 56 OFFCURVE",
"305 56 CURVE SMOOTH",
"320 56 OFFCURVE",
"333 44 OFFCURVE",
"333 28 CURVE SMOOTH",
"333 13 OFFCURVE",
"320 1 OFFCURVE",
"305 1 CURVE SMOOTH",
"289 1 OFFCURVE",
"277 13 OFFCURVE",
"277 28 CURVE SMOOTH"
);
},
{
closed = 1;
nodes = (
"339 -184 OFFCURVE",
"354 -170 OFFCURVE",
"370 -170 CURVE SMOOTH",
"387 -170 OFFCURVE",
"401 -184 OFFCURVE",
"401 -201 CURVE SMOOTH",
"401 -217 OFFCURVE",
"387 -232 OFFCURVE",
"370 -232 CURVE SMOOTH",
"353 -232 OFFCURVE",
"339 -217 OFFCURVE",
"339 -201 CURVE SMOOTH"
);
},
{
closed = 1;
nodes = (
"341 82 OFFCURVE",
"352 94 OFFCURVE",
"368 94 CURVE SMOOTH",
"383 94 OFFCURVE",
"395 82 OFFCURVE",
"395 66 CURVE SMOOTH",
"395 51 OFFCURVE",
"383 39 OFFCURVE",
"368 39 CURVE SMOOTH",
"352 39 OFFCURVE",
"341 51 OFFCURVE",
"341 66 CURVE SMOOTH"
);
},
{
closed = 1;
nodes = (
"340 462 OFFCURVE",
"353 474 OFFCURVE",
"369 474 CURVE SMOOTH",
"384 474 OFFCURVE",
"396 462 OFFCURVE",
"396 446 CURVE SMOOTH",
"396 431 OFFCURVE",
"384 419 OFFCURVE",
"369 419 CURVE SMOOTH",
"353 419 OFFCURVE",
"342 431 OFFCURVE",
"342 446 CURVE SMOOTH"
);
},
{
closed = 1;
nodes = (
"401 -124 OFFCURVE",
"417 -109 OFFCURVE",
"434 -109 CURVE SMOOTH",
"452 -109 OFFCURVE",
"466 -124 OFFCURVE",
"466 -142 CURVE SMOOTH",
"466 -159 OFFCURVE",
"452 -174 OFFCURVE",
"434 -174 CURVE SMOOTH",
"416 -174 OFFCURVE",
"401 -159 OFFCURVE",
"401 -142 CURVE SMOOTH"
);
},
{
closed = 1;
nodes = (
"404 -36 OFFCURVE",
"419 -22 OFFCURVE",
"437 -22 CURVE SMOOTH",
"456 -22 OFFCURVE",
"469 -37 OFFCURVE",
"469 -55 CURVE SMOOTH",
"469 -72 OFFCURVE",
"456 -87 OFFCURVE",
"437 -87 CURVE SMOOTH",
"419 -87 OFFCURVE",
"404 -72 OFFCURVE",
"404 -55 CURVE SMOOTH"
);
},
{
closed = 1;
nodes = (
"404 50 OFFCURVE",
"420 65 OFFCURVE",
"437 65 CURVE SMOOTH",
"455 65 OFFCURVE",
"469 50 OFFCURVE",
"469 32 CURVE SMOOTH",
"469 15 OFFCURVE",
"455 0 OFFCURVE",
"437 0 CURVE SMOOTH",
"419 0 OFFCURVE",
"404 15 OFFCURVE",
"404 32 CURVE SMOOTH"
);
},
{
closed = 1;
nodes = (
"404 138 OFFCURVE",
"419 152 OFFCURVE",
"437 152 CURVE SMOOTH",
"456 152 OFFCURVE",
"469 137 OFFCURVE",
"469 119 CURVE SMOOTH",
"469 102 OFFCURVE",
"456 87 OFFCURVE",
"437 87 CURVE SMOOTH",
"419 87 OFFCURVE",
"404 102 OFFCURVE",
"404 119 CURVE SMOOTH"
);
},
{
closed = 1;
nodes = (
"404 225 OFFCURVE",
"419 239 OFFCURVE",
"437 239 CURVE SMOOTH",
"455 239 OFFCURVE",
"469 224 OFFCURVE",
"469 206 CURVE SMOOTH",
"469 189 OFFCURVE",
"455 174 OFFCURVE",
"437 174 CURVE SMOOTH",
"418 174 OFFCURVE",
"404 189 OFFCURVE",
"404 206 CURVE SMOOTH"
);
},
{
closed = 1;
nodes = (
"404 312 OFFCURVE",
"419 326 OFFCURVE",
"437 326 CURVE SMOOTH",
"456 326 OFFCURVE",
"469 311 OFFCURVE",
"469 293 CURVE SMOOTH",
"469 276 OFFCURVE",
"456 261 OFFCURVE",
"437 261 CURVE SMOOTH",
"419 261 OFFCURVE",
"404 276 OFFCURVE",
"404 293 CURVE SMOOTH"
);
},
{
closed = 1;
nodes = (
"404 364 OFFCURVE",
"419 348 OFFCURVE",
"437 348 CURVE SMOOTH",
"456 348 OFFCURVE",
"469 363 OFFCURVE",
"469 380 CURVE SMOOTH",
"469 399 OFFCURVE",
"456 413 OFFCURVE",
"437 413 CURVE SMOOTH",
"419 413 OFFCURVE",
"404 399 OFFCURVE",
"404 380 CURVE SMOOTH"
);
},
{
closed = 1;
nodes = (
"424 449 OFFCURVE",
"439 435 OFFCURVE",
"457 435 CURVE SMOOTH",
"476 435 OFFCURVE",
"489 449 OFFCURVE",
"489 467 CURVE SMOOTH",
"489 485 OFFCURVE",
"476 500 OFFCURVE",
"457 500 CURVE SMOOTH",
"439 499 OFFCURVE",
"424 485 OFFCURVE",
"424 467 CURVE SMOOTH"
);
}
);
};
guideLines = (
{
position = "{541, -173}";
}
);
layerId = "197054AD-3E11-4C46-98D6-E9AEE179F0DA";
paths = (
{
closed = 1;
nodes = (
"269 502 OFFCURVE",
"282 515 OFFCURVE",
"298 515 CURVE SMOOTH",
"313 515 OFFCURVE",
"326 502 OFFCURVE",
"326 487 CURVE SMOOTH",
"326 471 OFFCURVE",
"313 458 OFFCURVE",
"298 458 CURVE SMOOTH",
"282 458 OFFCURVE",
"269 471 OFFCURVE",
"269 487 CURVE SMOOTH"
);
},
{
closed = 1;
nodes = (
"52 187 OFFCURVE",
"68 171 OFFCURVE",
"87 171 CURVE SMOOTH",
"107 171 OFFCURVE",
"122 187 OFFCURVE",
"122 206 CURVE SMOOTH",
"122 225 OFFCURVE",
"106 241 OFFCURVE",
"87 241 CURVE SMOOTH",
"68 241 OFFCURVE",
"52 227 OFFCURVE",
"52 206 CURVE SMOOTH"
);
},
{
closed = 1;
nodes = (
"52 280 OFFCURVE",
"68 263 OFFCURVE",
"87 263 CURVE SMOOTH",
"106 263 OFFCURVE",
"122 279 OFFCURVE",
"122 298 CURVE SMOOTH",
"122 317 OFFCURVE",
"107 333 OFFCURVE",
"87 333 CURVE SMOOTH",
"68 333 OFFCURVE",
"52 317 OFFCURVE",
"52 298 CURVE SMOOTH"
);
},
{
closed = 1;
nodes = (
"69 99 OFFCURVE",
"84 85 OFFCURVE",
"102 85 CURVE SMOOTH",
"120 85 OFFCURVE",
"135 100 OFFCURVE",
"135 118 CURVE SMOOTH",
"135 137 OFFCURVE",
"120 151 OFFCURVE",
"102 151 CURVE SMOOTH",
"84 151 OFFCURVE",
"69 136 OFFCURVE",
"69 118 CURVE SMOOTH"
);
},
{
closed = 1;
nodes = (
"69 368 OFFCURVE",
"84 353 OFFCURVE",
"102 353 CURVE SMOOTH",
"120 353 OFFCURVE",
"135 367 OFFCURVE",
"135 386 CURVE SMOOTH",
"135 404 OFFCURVE",
"120 419 OFFCURVE",
"102 419 CURVE SMOOTH",
"84 419 OFFCURVE",
"69 404 OFFCURVE",
"69 386 CURVE SMOOTH"
);
},
{
closed = 1;
nodes = (
"108 -91 OFFCURVE",
"122 -78 OFFCURVE",
"137 -78 CURVE SMOOTH",
"153 -78 OFFCURVE",
"166 -91 OFFCURVE",
"166 -107 CURVE SMOOTH",
"166 -122 OFFCURVE",
"153 -136 OFFCURVE",
"137 -136 CURVE SMOOTH",
"121 -136 OFFCURVE",
"108 -122 OFFCURVE",
"108 -107 CURVE SMOOTH"
);
},
{
closed = 1;
nodes = (
"118 469 OFFCURVE",
"131 484 OFFCURVE",
"149 484 CURVE SMOOTH",
"165 484 OFFCURVE",
"180 469 OFFCURVE",
"180 453 CURVE SMOOTH",
"180 436 OFFCURVE",
"166 422 OFFCURVE",
"149 422 CURVE SMOOTH",
"131 422 OFFCURVE",
"118 435 OFFCURVE",
"118 453 CURVE SMOOTH"
);
},
{
closed = 1;
nodes = (
"129 72 OFFCURVE",
"142 85 OFFCURVE",
"160 85 CURVE SMOOTH",
"177 85 OFFCURVE",
"191 71 OFFCURVE",
"191 54 CURVE SMOOTH",
"191 38 OFFCURVE",
"176 23 OFFCURVE",
"160 23 CURVE SMOOTH",
"142 23 OFFCURVE",
"129 38 OFFCURVE",
"129 54 CURVE SMOOTH"
);
},
{
closed = 1;
nodes = (
"176 -132 OFFCURVE",
"190 -119 OFFCURVE",
"205 -119 CURVE SMOOTH",
"221 -119 OFFCURVE",
"234 -132 OFFCURVE",
"234 -148 CURVE SMOOTH",
"234 -163 OFFCURVE",
"221 -177 OFFCURVE",
"205 -177 CURVE SMOOTH",
"189 -177 OFFCURVE",
"176 -163 OFFCURVE",
"176 -148 CURVE SMOOTH"
);
},
{
closed = 1;
nodes = (
"192 502 OFFCURVE",
"205 515 OFFCURVE",
"220 515 CURVE SMOOTH",
"236 515 OFFCURVE",
"248 502 OFFCURVE",
"248 487 CURVE SMOOTH",
"248 471 OFFCURVE",
"236 458 OFFCURVE",
"220 458 CURVE SMOOTH",
"205 458 OFFCURVE",
"192 471 OFFCURVE",
"192 487 CURVE SMOOTH"
);
},
{
closed = 1;
nodes = (
"205 43 OFFCURVE",
"218 56 OFFCURVE",
"233 56 CURVE SMOOTH",
"249 56 OFFCURVE",
"261 43 OFFCURVE",
"261 27 CURVE SMOOTH",
"261 12 OFFCURVE",
"249 -1 OFFCURVE",
"233 -1 CURVE SMOOTH",
"218 -1 OFFCURVE",
"205 12 OFFCURVE",
"205 27 CURVE SMOOTH"
);
},
{
closed = 1;
nodes = (
"256 -135 OFFCURVE",
"271 -121 OFFCURVE",
"287 -121 CURVE SMOOTH",
"305 -121 OFFCURVE",
"318 -135 OFFCURVE",
"318 -152 CURVE SMOOTH",
"318 -168 OFFCURVE",
"304 -183 OFFCURVE",
"287 -183 CURVE SMOOTH",
"270 -183 OFFCURVE",
"256 -168 OFFCURVE",
"256 -152 CURVE SMOOTH"
);
},
{
closed = 1;
nodes = (
"279 48 OFFCURVE",
"291 60 OFFCURVE",
"307 60 CURVE SMOOTH",
"322 60 OFFCURVE",
"335 48 OFFCURVE",
"335 32 CURVE SMOOTH",
"335 17 OFFCURVE",
"322 5 OFFCURVE",
"307 5 CURVE SMOOTH",
"291 5 OFFCURVE",
"279 17 OFFCURVE",
"279 32 CURVE SMOOTH"
);
},
{
closed = 1;
nodes = (
"338 -109 OFFCURVE",
"353 -95 OFFCURVE",
"369 -95 CURVE SMOOTH",
"386 -95 OFFCURVE",
"400 -109 OFFCURVE",
"400 -126 CURVE SMOOTH",
"400 -142 OFFCURVE",
"386 -157 OFFCURVE",
"369 -157 CURVE SMOOTH",
"352 -157 OFFCURVE",
"338 -142 OFFCURVE",
"338 -126 CURVE SMOOTH"
);
},
{
closed = 1;
nodes = (
"343 88 OFFCURVE",
"354 100 OFFCURVE",
"370 100 CURVE SMOOTH",
"385 100 OFFCURVE",
"397 88 OFFCURVE",
"397 72 CURVE SMOOTH",
"397 57 OFFCURVE",
"385 45 OFFCURVE",
"370 45 CURVE SMOOTH",
"354 45 OFFCURVE",
"343 57 OFFCURVE",
"343 72 CURVE SMOOTH"
);
},
{
closed = 1;
nodes = (
"340 462 OFFCURVE",
"353 474 OFFCURVE",
"369 474 CURVE SMOOTH",
"384 474 OFFCURVE",
"396 462 OFFCURVE",
"396 446 CURVE SMOOTH",
"396 431 OFFCURVE",
"384 419 OFFCURVE",
"369 419 CURVE SMOOTH",
"353 419 OFFCURVE",
"342 431 OFFCURVE",
"342 446 CURVE SMOOTH"
);
},
{
closed = 1;
nodes = (
"398 -46 OFFCURVE",
"414 -31 OFFCURVE",
"431 -31 CURVE SMOOTH",
"449 -31 OFFCURVE",
"463 -46 OFFCURVE",
"463 -64 CURVE SMOOTH",
"463 -81 OFFCURVE",
"449 -96 OFFCURVE",
"431 -96 CURVE SMOOTH",
"413 -96 OFFCURVE",
"398 -81 OFFCURVE",
"398 -64 CURVE SMOOTH"
);
},
{
closed = 1;
nodes = (
"404 41 OFFCURVE",
"420 56 OFFCURVE",
"437 56 CURVE SMOOTH",
"455 56 OFFCURVE",
"469 41 OFFCURVE",
"469 23 CURVE SMOOTH",
"469 6 OFFCURVE",
"455 -9 OFFCURVE",
"437 -9 CURVE SMOOTH",
"419 -9 OFFCURVE",
"404 5 OFFCURVE",
"404 23 CURVE SMOOTH"
);
},
{
closed = 1;
nodes = (
"404 132 OFFCURVE",
"419 146 OFFCURVE",
"437 146 CURVE SMOOTH",
"456 146 OFFCURVE",
"469 131 OFFCURVE",
"469 113 CURVE SMOOTH",
"469 96 OFFCURVE",
"456 81 OFFCURVE",
"437 81 CURVE SMOOTH",
"419 81 OFFCURVE",
"404 96 OFFCURVE",
"404 113 CURVE SMOOTH"
);
},
{
closed = 1;
nodes = (
"404 221 OFFCURVE",
"419 235 OFFCURVE",
"437 235 CURVE SMOOTH",
"455 235 OFFCURVE",
"469 220 OFFCURVE",
"469 202 CURVE SMOOTH",
"469 185 OFFCURVE",
"455 170 OFFCURVE",
"437 170 CURVE SMOOTH",
"418 170 OFFCURVE",
"404 185 OFFCURVE",
"404 202 CURVE SMOOTH"
);
},
{
closed = 1;
nodes = (
"404 310 OFFCURVE",
"419 324 OFFCURVE",
"437 324 CURVE SMOOTH",
"456 324 OFFCURVE",
"469 309 OFFCURVE",
"469 291 CURVE SMOOTH",
"469 274 OFFCURVE",
"456 259 OFFCURVE",
"437 259 CURVE SMOOTH",
"419 259 OFFCURVE",
"404 274 OFFCURVE",
"404 291 CURVE SMOOTH"
);
},
{
closed = 1;
nodes = (
"404 364 OFFCURVE",
"419 348 OFFCURVE",
"437 348 CURVE SMOOTH",
"456 348 OFFCURVE",
"469 363 OFFCURVE",
"469 380 CURVE SMOOTH",
"469 399 OFFCURVE",
"456 413 OFFCURVE",
"437 413 CURVE SMOOTH",
"419 413 OFFCURVE",
"404 399 OFFCURVE",
"404 380 CURVE SMOOTH"
);
},
{
closed = 1;
nodes = (
"424 449 OFFCURVE",
"439 435 OFFCURVE",
"457 435 CURVE SMOOTH",
"476 435 OFFCURVE",
"489 449 OFFCURVE",
"489 467 CURVE SMOOTH",
"489 485 OFFCURVE",
"476 500 OFFCURVE",
"457 500 CURVE SMOOTH",
"439 499 OFFCURVE",
"424 485 OFFCURVE",
"424 467 CURVE SMOOTH"
);
}
);
width = 539;
}
);
note = g;
unicode = 0067;
},
{
glyphname = h;
lastChange = "2021-09-01 22:52:03 +0000";
layers = (
{
layerId = "197054AD-3E11-4C46-98D6-E9AEE179F0DA";
paths = (
{
closed = 1;
nodes = (
"127 362 OFFCURVE",
"112 348 OFFCURVE",
"94 348 CURVE SMOOTH",
"75 348 OFFCURVE",
"62 363 OFFCURVE",
"62 381 CURVE SMOOTH",
"62 398 OFFCURVE",
"75 413 OFFCURVE",
"94 413 CURVE SMOOTH",
"112 413 OFFCURVE",
"127 398 OFFCURVE",
"127 381 CURVE SMOOTH"
);
},
{
closed = 1;
nodes = (
"62 15 OFFCURVE",
"75 0 OFFCURVE",
"94 0 CURVE SMOOTH",
"112 1 OFFCURVE",
"127 15 OFFCURVE",
"127 33 CURVE SMOOTH",
"127 51 OFFCURVE",
"112 65 OFFCURVE",
"94 65 CURVE SMOOTH",
"75 65 OFFCURVE",
"62 51 OFFCURVE",
"62 33 CURVE SMOOTH"
);
},
{
closed = 1;
nodes = (
"62 101 OFFCURVE",
"75 87 OFFCURVE",
"94 87 CURVE SMOOTH",
"112 87 OFFCURVE",
"127 101 OFFCURVE",
"127 120 CURVE SMOOTH",
"127 136 OFFCURVE",
"112 152 OFFCURVE",
"94 152 CURVE SMOOTH",
"75 152 OFFCURVE",
"62 137 OFFCURVE",
"62 120 CURVE SMOOTH"
);
},
{
closed = 1;
nodes = (
"62 224 OFFCURVE",
"75 239 OFFCURVE",
"94 239 CURVE SMOOTH",
"112 239 OFFCURVE",
"127 224 OFFCURVE",
"127 207 CURVE SMOOTH",
"127 188 OFFCURVE",
"112 174 OFFCURVE",
"94 174 CURVE SMOOTH",
"75 174 OFFCURVE",
"62 189 OFFCURVE",
"62 207 CURVE SMOOTH"
);
},
{
closed = 1;
nodes = (
"62 311 OFFCURVE",
"76 326 OFFCURVE",
"94 326 CURVE SMOOTH",
"113 326 OFFCURVE",
"127 311 OFFCURVE",
"127 294 CURVE SMOOTH",
"127 275 OFFCURVE",
"112 261 OFFCURVE",
"94 261 CURVE SMOOTH",
"76 261 OFFCURVE",
"62 276 OFFCURVE",
"62 294 CURVE SMOOTH"
);
},
{
closed = 1;
nodes = (
"62 451 OFFCURVE",
"75 437 OFFCURVE",
"94 437 CURVE SMOOTH",
"112 437 OFFCURVE",
"127 451 OFFCURVE",
"127 470 CURVE SMOOTH",
"127 486 OFFCURVE",
"112 502 OFFCURVE",
"94 502 CURVE SMOOTH",
"75 502 OFFCURVE",
"62 487 OFFCURVE",
"62 470 CURVE SMOOTH"
);
},
{
closed = 1;
nodes = (
"62 576 OFFCURVE",
"75 591 OFFCURVE",
"94 591 CURVE SMOOTH",
"112 591 OFFCURVE",
"127 576 OFFCURVE",
"127 559 CURVE SMOOTH",
"127 540 OFFCURVE",
"112 526 OFFCURVE",
"94 526 CURVE SMOOTH",
"75 526 OFFCURVE",
"62 541 OFFCURVE",
"62 559 CURVE SMOOTH"
);
},
{
closed = 1;
nodes = (
"62 663 OFFCURVE",
"76 678 OFFCURVE",
"94 678 CURVE SMOOTH",
"113 678 OFFCURVE",
"127 663 OFFCURVE",
"127 646 CURVE SMOOTH",
"127 627 OFFCURVE",
"112 613 OFFCURVE",
"94 613 CURVE SMOOTH",
"76 613 OFFCURVE",
"62 628 OFFCURVE",
"62 646 CURVE SMOOTH"
);
},
{
closed = 1;
nodes = (
"130 446 OFFCURVE",
"142 458 OFFCURVE",
"156 458 CURVE SMOOTH",
"171 458 OFFCURVE",
"182 446 OFFCURVE",
"182 432 CURVE",
"184 417 OFFCURVE",
"171 405 OFFCURVE",
"156 405 CURVE SMOOTH",
"142 405 OFFCURVE",
"130 417 OFFCURVE",
"130 432 CURVE SMOOTH"
);
},
{
closed = 1;
nodes = (
"187 493 OFFCURVE",
"199 505 OFFCURVE",
"213 505 CURVE SMOOTH",
"228 505 OFFCURVE",
"239 493 OFFCURVE",
"239 479 CURVE",
"241 464 OFFCURVE",
"228 452 OFFCURVE",
"213 452 CURVE SMOOTH",
"199 452 OFFCURVE",
"187 464 OFFCURVE",
"187 479 CURVE SMOOTH"
);
},
{
closed = 1;
nodes = (
"259 502 OFFCURVE",
"271 515 OFFCURVE",
"287 515 CURVE SMOOTH",
"302 515 OFFCURVE",
"315 502 OFFCURVE",
"315 487 CURVE SMOOTH",
"315 471 OFFCURVE",
"302 458 OFFCURVE",
"287 458 CURVE SMOOTH",
"271 458 OFFCURVE",
"257 471 OFFCURVE",
"259 487 CURVE SMOOTH"
);
},
{
closed = 1;
nodes = (
"327 473 OFFCURVE",
"342 488 OFFCURVE",
"358 488 CURVE SMOOTH",
"376 488 OFFCURVE",
"389 473 OFFCURVE",
"389 457 CURVE SMOOTH",
"389 439 OFFCURVE",
"376 426 OFFCURVE",
"358 426 CURVE SMOOTH",
"341 426 OFFCURVE",
"327 440 OFFCURVE",
"327 457 CURVE SMOOTH"
);
},
{
closed = 1;
nodes = (
"370 367 OFFCURVE",
"385 353 OFFCURVE",
"403 353 CURVE SMOOTH",
"421 353 OFFCURVE",
"436 368 OFFCURVE",
"436 386 CURVE SMOOTH",
"436 404 OFFCURVE",
"421 419 OFFCURVE",
"403 419 CURVE SMOOTH",
"385 419 OFFCURVE",
"370 404 OFFCURVE",
"370 386 CURVE SMOOTH"
);
},
{
closed = 1;
nodes = (
"374 15 OFFCURVE",
"387 0 OFFCURVE",
"406 0 CURVE SMOOTH",
"424 1 OFFCURVE",
"439 15 OFFCURVE",
"439 33 CURVE SMOOTH",
"439 51 OFFCURVE",
"424 65 OFFCURVE",
"406 65 CURVE SMOOTH",
"387 65 OFFCURVE",
"374 51 OFFCURVE",
"374 33 CURVE SMOOTH"
);
},
{
closed = 1;
nodes = (
"374 101 OFFCURVE",
"387 87 OFFCURVE",
"406 87 CURVE SMOOTH",
"424 87 OFFCURVE",
"439 101 OFFCURVE",
"439 120 CURVE SMOOTH",
"439 136 OFFCURVE",
"424 152 OFFCURVE",
"406 152 CURVE SMOOTH",
"387 152 OFFCURVE",
"374 137 OFFCURVE",
"374 120 CURVE SMOOTH"
);
},
{
closed = 1;
nodes = (
"374 224 OFFCURVE",
"387 239 OFFCURVE",
"406 239 CURVE SMOOTH",
"424 239 OFFCURVE",
"439 224 OFFCURVE",
"439 207 CURVE SMOOTH",
"439 188 OFFCURVE",
"424 174 OFFCURVE",
"406 174 CURVE SMOOTH",
"387 174 OFFCURVE",
"374 189 OFFCURVE",
"374 207 CURVE SMOOTH"
);
},
{
closed = 1;
nodes = (
"374 311 OFFCURVE",
"387 326 OFFCURVE",
"406 326 CURVE SMOOTH",
"424 326 OFFCURVE",
"439 311 OFFCURVE",
"439 294 CURVE SMOOTH",
"439 275 OFFCURVE",
"424 261 OFFCURVE",
"406 261 CURVE SMOOTH",
"387 261 OFFCURVE",
"374 276 OFFCURVE",
"374 294 CURVE SMOOTH"
);
}
);
width = 499;
}
);
note = h;
unicode = 0068;
},
{
glyphname = m;
lastChange = "2021-09-01 22:30:45 +0000";
layers = (
{
layerId = "197054AD-3E11-4C46-98D6-E9AEE179F0DA";
paths = (
{
closed = 1;
nodes = (
"130 362 OFFCURVE",
"115 348 OFFCURVE",
"97 348 CURVE SMOOTH",
"78 348 OFFCURVE",
"65 363 OFFCURVE",
"65 381 CURVE SMOOTH",
"65 398 OFFCURVE",
"78 413 OFFCURVE",
"97 413 CURVE SMOOTH",
"115 413 OFFCURVE",
"130 398 OFFCURVE",
"130 381 CURVE SMOOTH"
);
},
{
closed = 1;
nodes = (
"45 485 OFFCURVE",
"59 500 OFFCURVE",
"77 500 CURVE SMOOTH",
"95 500 OFFCURVE",
"110 485 OFFCURVE",
"110 468 CURVE SMOOTH",
"110 450 OFFCURVE",
"94 435 OFFCURVE",
"77 435 CURVE SMOOTH",
"59 435 OFFCURVE",
"45 450 OFFCURVE",
"45 468 CURVE SMOOTH"
);
},
{
closed = 1;
nodes = (
"65 15 OFFCURVE",
"78 0 OFFCURVE",
"97 0 CURVE SMOOTH",
"115 1 OFFCURVE",
"130 15 OFFCURVE",
"130 33 CURVE SMOOTH",
"130 51 OFFCURVE",
"115 65 OFFCURVE",
"97 65 CURVE SMOOTH",
"78 65 OFFCURVE",
"65 51 OFFCURVE",
"65 33 CURVE SMOOTH"
);
},
{
closed = 1;
nodes = (
"65 101 OFFCURVE",
"78 87 OFFCURVE",
"97 87 CURVE SMOOTH",
"115 87 OFFCURVE",
"130 101 OFFCURVE",
"130 120 CURVE SMOOTH",
"130 136 OFFCURVE",
"115 152 OFFCURVE",
"97 152 CURVE SMOOTH",
"78 152 OFFCURVE",
"65 137 OFFCURVE",
"65 120 CURVE SMOOTH"
);
},
{
closed = 1;
nodes = (
"65 224 OFFCURVE",
"78 239 OFFCURVE",
"97 239 CURVE SMOOTH",
"115 239 OFFCURVE",
"130 224 OFFCURVE",
"130 207 CURVE SMOOTH",
"130 188 OFFCURVE",
"115 174 OFFCURVE",
"97 174 CURVE SMOOTH",
"78 174 OFFCURVE",
"65 189 OFFCURVE",
"65 207 CURVE SMOOTH"
);
},
{
closed = 1;
nodes = (
"65 311 OFFCURVE",
"79 326 OFFCURVE",
"97 326 CURVE SMOOTH",
"116 326 OFFCURVE",
"130 311 OFFCURVE",
"130 294 CURVE SMOOTH",
"130 275 OFFCURVE",
"115 261 OFFCURVE",
"97 261 CURVE SMOOTH",
"79 261 OFFCURVE",
"65 276 OFFCURVE",
"65 294 CURVE SMOOTH"
);
},
{
closed = 1;
nodes = (
"130 452 OFFCURVE",
"142 464 OFFCURVE",
"156 464 CURVE SMOOTH",
"171 464 OFFCURVE",
"182 452 OFFCURVE",
"182 438 CURVE",
"184 423 OFFCURVE",
"171 411 OFFCURVE",
"156 411 CURVE SMOOTH",
"142 411 OFFCURVE",
"130 423 OFFCURVE",
"130 438 CURVE SMOOTH"
);
},
{
closed = 1;
nodes = (
"187 493 OFFCURVE",
"199 505 OFFCURVE",
"213 505 CURVE SMOOTH",
"228 505 OFFCURVE",
"239 493 OFFCURVE",
"239 479 CURVE",
"241 464 OFFCURVE",
"228 452 OFFCURVE",
"213 452 CURVE SMOOTH",
"199 452 OFFCURVE",
"187 464 OFFCURVE",
"187 479 CURVE SMOOTH"
);
},
{
closed = 1;
nodes = (
"259 502 OFFCURVE",
"271 515 OFFCURVE",
"287 515 CURVE SMOOTH",
"302 515 OFFCURVE",
"315 502 OFFCURVE",
"315 487 CURVE SMOOTH",
"315 471 OFFCURVE",
"302 458 OFFCURVE",
"287 458 CURVE SMOOTH",
"271 458 OFFCURVE",
"257 471 OFFCURVE",
"259 487 CURVE SMOOTH"
);
},
{
closed = 1;
nodes = (
"327 473 OFFCURVE",
"342 488 OFFCURVE",
"358 488 CURVE SMOOTH",
"376 488 OFFCURVE",
"389 473 OFFCURVE",
"389 457 CURVE SMOOTH",
"389 439 OFFCURVE",
"376 426 OFFCURVE",
"358 426 CURVE SMOOTH",
"341 426 OFFCURVE",
"327 440 OFFCURVE",
"327 457 CURVE SMOOTH"
);
},
{
closed = 1;
nodes = (
"380 364 OFFCURVE",
"394 351 OFFCURVE",
"411 351 CURVE SMOOTH",
"428 351 OFFCURVE",
"442 365 OFFCURVE",
"442 382 CURVE SMOOTH",
"442 399 OFFCURVE",
"428 413 OFFCURVE",
"411 413 CURVE SMOOTH",
"394 413 OFFCURVE",
"380 399 OFFCURVE",
"380 382 CURVE SMOOTH"
);
},
{
closed = 1;
nodes = (
"382 14 OFFCURVE",
"394 0 OFFCURVE",
"412 0 CURVE SMOOTH",
"429 0 OFFCURVE",
"444 14 OFFCURVE",
"444 31 CURVE SMOOTH",
"444 48 OFFCURVE",
"429 62 OFFCURVE",
"412 62 CURVE SMOOTH",
"394 62 OFFCURVE",
"382 48 OFFCURVE",
"382 31 CURVE SMOOTH"
);
},
{
closed = 1;
nodes = (
"382 100 OFFCURVE",
"394 87 OFFCURVE",
"412 87 CURVE SMOOTH",
"429 87 OFFCURVE",
"444 100 OFFCURVE",
"444 118 CURVE SMOOTH",
"444 133 OFFCURVE",
"429 149 OFFCURVE",
"412 149 CURVE SMOOTH",
"394 149 OFFCURVE",
"382 134 OFFCURVE",
"382 118 CURVE SMOOTH"
);
},
{
closed = 1;
nodes = (
"382 221 OFFCURVE",
"394 236 OFFCURVE",
"412 236 CURVE SMOOTH",
"429 236 OFFCURVE",
"444 222 OFFCURVE",
"444 205 CURVE SMOOTH",
"444 187 OFFCURVE",
"429 174 OFFCURVE",
"412 174 CURVE SMOOTH",
"394 174 OFFCURVE",
"382 188 OFFCURVE",
"382 205 CURVE SMOOTH"
);
},
{
closed = 1;
nodes = (
"382 308 OFFCURVE",
"394 323 OFFCURVE",
"412 323 CURVE SMOOTH",
"429 323 OFFCURVE",
"444 308 OFFCURVE",
"444 292 CURVE SMOOTH",
"444 274 OFFCURVE",
"429 261 OFFCURVE",
"412 261 CURVE SMOOTH",
"394 261 OFFCURVE",
"382 275 OFFCURVE",
"382 292 CURVE SMOOTH"
);
},
{
closed = 1;
nodes = (
"446 452 OFFCURVE",
"458 464 OFFCURVE",
"472 464 CURVE SMOOTH",
"487 464 OFFCURVE",
"498 452 OFFCURVE",
"498 438 CURVE SMOOTH",
"498 423 OFFCURVE",
"487 411 OFFCURVE",
"472 411 CURVE SMOOTH",
"458 411 OFFCURVE",
"446 423 OFFCURVE",
"446 438 CURVE SMOOTH"
);
},
{
closed = 1;
nodes = (
"508 493 OFFCURVE",
"520 505 OFFCURVE",
"534 505 CURVE SMOOTH",
"549 505 OFFCURVE",
"560 493 OFFCURVE",
"560 479 CURVE SMOOTH",
"560 464 OFFCURVE",
"549 452 OFFCURVE",
"534 452 CURVE SMOOTH",
"520 452 OFFCURVE",
"508 464 OFFCURVE",
"508 479 CURVE SMOOTH"
);
},
{
closed = 1;
nodes = (
"580 502 OFFCURVE",
"592 515 OFFCURVE",
"608 515 CURVE SMOOTH",
"623 515 OFFCURVE",
"636 502 OFFCURVE",
"636 487 CURVE SMOOTH",
"636 471 OFFCURVE",
"623 458 OFFCURVE",
"608 458 CURVE SMOOTH",
"592 458 OFFCURVE",
"578 471 OFFCURVE",
"580 487 CURVE SMOOTH"
);
},
{
closed = 1;
nodes = (
"648 473 OFFCURVE",
"663 488 OFFCURVE",
"679 488 CURVE SMOOTH",
"697 488 OFFCURVE",
"710 473 OFFCURVE",
"710 457 CURVE SMOOTH",
"710 439 OFFCURVE",
"697 426 OFFCURVE",
"679 426 CURVE SMOOTH",
"662 426 OFFCURVE",
"648 440 OFFCURVE",
"648 457 CURVE SMOOTH"
);
},
{
closed = 1;
nodes = (
"689 367 OFFCURVE",
"704 353 OFFCURVE",
"722 353 CURVE SMOOTH",
"740 353 OFFCURVE",
"755 368 OFFCURVE",
"755 386 CURVE SMOOTH",
"755 404 OFFCURVE",
"740 419 OFFCURVE",
"722 419 CURVE SMOOTH",
"704 419 OFFCURVE",
"689 404 OFFCURVE",
"689 386 CURVE SMOOTH"
);
},
{
closed = 1;
nodes = (
"693 15 OFFCURVE",
"706 0 OFFCURVE",
"725 0 CURVE SMOOTH",
"743 1 OFFCURVE",
"758 15 OFFCURVE",
"758 33 CURVE SMOOTH",
"758 51 OFFCURVE",
"743 65 OFFCURVE",
"725 65 CURVE SMOOTH",
"706 65 OFFCURVE",
"693 51 OFFCURVE",
"693 33 CURVE SMOOTH"
);
},
{
closed = 1;
nodes = (
"693 101 OFFCURVE",
"706 87 OFFCURVE",
"725 87 CURVE SMOOTH",
"743 87 OFFCURVE",
"758 101 OFFCURVE",
"758 120 CURVE SMOOTH",
"758 136 OFFCURVE",
"743 152 OFFCURVE",
"725 152 CURVE SMOOTH",
"706 152 OFFCURVE",
"693 137 OFFCURVE",
"693 120 CURVE SMOOTH"
);
},
{
closed = 1;
nodes = (
"693 224 OFFCURVE",
"706 239 OFFCURVE",
"725 239 CURVE SMOOTH",
"743 239 OFFCURVE",
"758 224 OFFCURVE",
"758 207 CURVE SMOOTH",
"758 188 OFFCURVE",
"743 174 OFFCURVE",
"725 174 CURVE SMOOTH",
"706 174 OFFCURVE",
"693 189 OFFCURVE",
"693 207 CURVE SMOOTH"
);
},
{
closed = 1;
nodes = (
"693 311 OFFCURVE",
"706 326 OFFCURVE",
"725 326 CURVE SMOOTH",
"743 326 OFFCURVE",
"758 311 OFFCURVE",
"758 294 CURVE SMOOTH",
"758 275 OFFCURVE",
"743 261 OFFCURVE",
"725 261 CURVE SMOOTH",
"706 261 OFFCURVE",
"693 276 OFFCURVE",
"693 294 CURVE SMOOTH"
);
}
);
width = 818;
}
);
note = m;
unicode = 006D;
},
{
glyphname = r;
lastChange = "2021-09-01 22:43:41 +0000";
layers = (
{
layerId = "197054AD-3E11-4C46-98D6-E9AEE179F0DA";
paths = (
{
closed = 1;
nodes = (
"139 362 OFFCURVE",
"124 348 OFFCURVE",
"106 348 CURVE SMOOTH",
"87 348 OFFCURVE",
"74 363 OFFCURVE",
"74 381 CURVE SMOOTH",
"74 398 OFFCURVE",
"87 413 OFFCURVE",
"106 413 CURVE SMOOTH",
"124 413 OFFCURVE",
"139 398 OFFCURVE",
"139 381 CURVE SMOOTH"
);
},
{
closed = 1;
nodes = (
"54 485 OFFCURVE",
"68 500 OFFCURVE",
"86 500 CURVE SMOOTH",
"104 500 OFFCURVE",
"119 485 OFFCURVE",
"119 468 CURVE SMOOTH",
"119 450 OFFCURVE",
"103 435 OFFCURVE",
"86 435 CURVE SMOOTH",
"68 435 OFFCURVE",
"54 450 OFFCURVE",
"54 468 CURVE SMOOTH"
);
},
{
closed = 1;
nodes = (
"74 15 OFFCURVE",
"87 0 OFFCURVE",
"106 0 CURVE SMOOTH",
"124 1 OFFCURVE",
"139 15 OFFCURVE",
"139 33 CURVE SMOOTH",
"139 51 OFFCURVE",
"124 65 OFFCURVE",
"106 65 CURVE SMOOTH",
"87 65 OFFCURVE",
"74 51 OFFCURVE",
"74 33 CURVE SMOOTH"
);
},
{
closed = 1;
nodes = (
"74 101 OFFCURVE",
"87 87 OFFCURVE",
"106 87 CURVE SMOOTH",
"124 87 OFFCURVE",
"139 101 OFFCURVE",
"139 120 CURVE SMOOTH",
"139 136 OFFCURVE",
"124 152 OFFCURVE",
"106 152 CURVE SMOOTH",
"87 152 OFFCURVE",
"74 137 OFFCURVE",
"74 120 CURVE SMOOTH"
);
},
{
closed = 1;
nodes = (
"74 224 OFFCURVE",
"87 239 OFFCURVE",
"106 239 CURVE SMOOTH",
"124 239 OFFCURVE",
"139 224 OFFCURVE",
"139 207 CURVE SMOOTH",
"139 188 OFFCURVE",
"124 174 OFFCURVE",
"106 174 CURVE SMOOTH",
"87 174 OFFCURVE",
"74 189 OFFCURVE",
"74 207 CURVE SMOOTH"
);
},
{
closed = 1;
nodes = (
"74 311 OFFCURVE",
"88 326 OFFCURVE",
"106 326 CURVE SMOOTH",
"125 326 OFFCURVE",
"139 311 OFFCURVE",
"139 294 CURVE SMOOTH",
"139 275 OFFCURVE",
"124 261 OFFCURVE",
"106 261 CURVE SMOOTH",
"88 261 OFFCURVE",
"74 276 OFFCURVE",
"74 294 CURVE SMOOTH"
);
},
{
closed = 1;
nodes = (
"141 448 OFFCURVE",
"153 460 OFFCURVE",
"167 460 CURVE SMOOTH",
"182 460 OFFCURVE",
"193 448 OFFCURVE",
"193 434 CURVE SMOOTH",
"193 419 OFFCURVE",
"182 407 OFFCURVE",
"167 407 CURVE SMOOTH",
"153 407 OFFCURVE",
"141 419 OFFCURVE",
"141 434 CURVE SMOOTH"
);
},
{
closed = 1;
nodes = (
"202 487 OFFCURVE",
"215 500 OFFCURVE",
"232 500 CURVE SMOOTH",
"249 500 OFFCURVE",
"262 487 OFFCURVE",
"262 470 CURVE SMOOTH",
"262 452 OFFCURVE",
"250 439 OFFCURVE",
"232 439 CURVE SMOOTH",
"215 439 OFFCURVE",
"202 452 OFFCURVE",
"202 470 CURVE SMOOTH"
);
},
{
closed = 1;
nodes = (
"333 447 OFFCURVE",
"349 462 OFFCURVE",
"349 481 CURVE SMOOTH",
"349 499 OFFCURVE",
"333 515 OFFCURVE",
"315 515 CURVE SMOOTH",
"296 515 OFFCURVE",
"281 499 OFFCURVE",
"281 481 CURVE SMOOTH",
"281 462 OFFCURVE",
"296 447 OFFCURVE",
"315 447 CURVE SMOOTH"
);
}
);
width = 369;
}
);
note = R;
unicode = 0072;
},
{
glyphname = C;
lastChange = "2021-09-01 17:02:39 +0000";
layers = (
{
background = {
paths = (
{
closed = 1;
nodes = (
"371 666 OFFCURVE",
"384 679 OFFCURVE",
"401 679 CURVE SMOOTH",
"418 679 OFFCURVE",
"431 666 OFFCURVE",
"431 649 CURVE SMOOTH",
"431 632 OFFCURVE",
"418 619 OFFCURVE",
"401 619 CURVE SMOOTH",
"384 619 OFFCURVE",
"371 632 OFFCURVE",
"371 649 CURVE SMOOTH"
);
},
{
closed = 1;
nodes = (
"450 632 OFFCURVE",
"464 646 OFFCURVE",
"480 646 CURVE SMOOTH",
"497 646 OFFCURVE",
"510 632 OFFCURVE",
"510 616 CURVE SMOOTH",
"510 599 OFFCURVE",
"497 586 OFFCURVE",
"480 586 CURVE SMOOTH",
"464 586 OFFCURVE",
"450 599 OFFCURVE",
"450 616 CURVE SMOOTH"
);
},
{
closed = 1;
nodes = (
"371 32 OFFCURVE",
"384 45 OFFCURVE",
"401 45 CURVE SMOOTH",
"418 45 OFFCURVE",
"431 32 OFFCURVE",
"431 15 CURVE SMOOTH",
"431 -2 OFFCURVE",
"418 -15 OFFCURVE",
"401 -15 CURVE SMOOTH",
"384 -15 OFFCURVE",
"371 -2 OFFCURVE",
"371 15 CURVE SMOOTH"
);
},
{
closed = 1;
nodes = (
"449 64 OFFCURVE",
"463 77 OFFCURVE",
"478 77 CURVE SMOOTH",
"494 77 OFFCURVE",
"507 64 OFFCURVE",
"507 48 CURVE SMOOTH",
"507 33 OFFCURVE",
"494 19 OFFCURVE",
"478 19 CURVE SMOOTH",
"463 19 OFFCURVE",
"449 33 OFFCURVE",
"449 48 CURVE SMOOTH"
);
},
{
closed = 1;
nodes = (
"347 632 OFFCURVE",
"334 619 OFFCURVE",
"317 619 CURVE SMOOTH",
"300 619 OFFCURVE",
"287 632 OFFCURVE",
"287 649 CURVE SMOOTH",
"287 666 OFFCURVE",
"300 679 OFFCURVE",
"317 679 CURVE SMOOTH",
"334 679 OFFCURVE",
"347 666 OFFCURVE",
"347 649 CURVE SMOOTH"
);
},
{
closed = 1;
nodes = (
"268 597 OFFCURVE",
"253 583 OFFCURVE",
"235 583 CURVE SMOOTH",
"216 583 OFFCURVE",
"202 597 OFFCURVE",
"202 616 CURVE SMOOTH",
"202 634 OFFCURVE",
"216 649 OFFCURVE",
"235 649 CURVE SMOOTH",
"253 649 OFFCURVE",
"268 634 OFFCURVE",
"268 616 CURVE SMOOTH"
);
},
{
closed = 1;
nodes = (
"203 570 OFFCURVE",
"188 586 OFFCURVE",
"170 586 CURVE SMOOTH",
"152 586 OFFCURVE",
"137 570 OFFCURVE",
"137 553 CURVE SMOOTH",
"137 535 OFFCURVE",
"152 520 OFFCURVE",
"170 520 CURVE SMOOTH",
"188 520 OFFCURVE",
"203 535 OFFCURVE",
"203 553 CURVE SMOOTH"
);
},
{
closed = 1;
nodes = (
"167 490 OFFCURVE",
"151 505 OFFCURVE",
"131 505 CURVE SMOOTH",
"111 505 OFFCURVE",
"97 490 OFFCURVE",
"97 471 CURVE SMOOTH",
"97 452 OFFCURVE",
"111 436 OFFCURVE",
"131 436 CURVE SMOOTH",
"151 436 OFFCURVE",
"167 452 OFFCURVE",
"167 471 CURVE SMOOTH"
);
},
{
closed = 1;
nodes = (
"347 -2 OFFCURVE",
"334 -15 OFFCURVE",
"317 -15 CURVE SMOOTH",
"300 -15 OFFCURVE",
"287 -2 OFFCURVE",
"287 15 CURVE SMOOTH",
"287 32 OFFCURVE",
"300 45 OFFCURVE",
"317 45 CURVE SMOOTH",
"334 45 OFFCURVE",
"347 32 OFFCURVE",
"347 15 CURVE SMOOTH"
);
},
{
closed = 1;
nodes = (
"268 30 OFFCURVE",
"253 15 OFFCURVE",
"235 15 CURVE SMOOTH",
"216 15 OFFCURVE",
"202 30 OFFCURVE",
"202 48 CURVE SMOOTH",
"202 67 OFFCURVE",
"216 81 OFFCURVE",
"235 81 CURVE SMOOTH",
"253 81 OFFCURVE",
"268 67 OFFCURVE",
"268 48 CURVE SMOOTH"
);
},
{
closed = 1;
nodes = (
"203 129 OFFCURVE",
"188 144 OFFCURVE",
"170 144 CURVE SMOOTH",
"152 144 OFFCURVE",
"137 129 OFFCURVE",
"137 111 CURVE SMOOTH",
"137 94 OFFCURVE",
"152 78 OFFCURVE",
"170 78 CURVE SMOOTH",
"188 78 OFFCURVE",
"203 94 OFFCURVE",
"203 111 CURVE SMOOTH"
);
},
{
closed = 1;
nodes = (
"167 212 OFFCURVE",
"151 228 OFFCURVE",
"131 228 CURVE SMOOTH",
"111 228 OFFCURVE",
"97 212 OFFCURVE",
"97 193 CURVE SMOOTH",
"97 174 OFFCURVE",
"111 159 OFFCURVE",
"131 159 CURVE SMOOTH",
"151 159 OFFCURVE",
"167 174 OFFCURVE",
"167 193 CURVE SMOOTH"
);
},
{
closed = 1;
nodes = (
"140 343 OFFCURVE",
"156 359 OFFCURVE",
"156 378 CURVE SMOOTH",
"156 397 OFFCURVE",
"140 413 OFFCURVE",
"121 413 CURVE SMOOTH",
"102 413 OFFCURVE",
"86 397 OFFCURVE",
"86 378 CURVE SMOOTH",
"86 359 OFFCURVE",
"102 343 OFFCURVE",
"121 343 CURVE SMOOTH"
);
},
{
closed = 1;
nodes = (
"140 251 OFFCURVE",
"156 267 OFFCURVE",
"156 286 CURVE SMOOTH",
"156 305 OFFCURVE",
"140 321 OFFCURVE",
"121 321 CURVE SMOOTH",
"102 321 OFFCURVE",
"86 305 OFFCURVE",
"86 286 CURVE SMOOTH",
"86 267 OFFCURVE",
"102 251 OFFCURVE",
"121 251 CURVE SMOOTH"
);
},
{
closed = 1;
nodes = (
"450 549 OFFCURVE",
"464 564 OFFCURVE",
"480 564 CURVE SMOOTH",
"497 564 OFFCURVE",
"510 550 OFFCURVE",
"510 534 CURVE SMOOTH",
"510 517 OFFCURVE",
"497 504 OFFCURVE",
"480 504 CURVE SMOOTH",
"464 504 OFFCURVE",
"450 517 OFFCURVE",
"450 534 CURVE SMOOTH"
);
}
);
};
layerId = "197054AD-3E11-4C46-98D6-E9AEE179F0DA";
paths = (
{
closed = 1;
nodes = (
"357 675 OFFCURVE",
"370 688 OFFCURVE",
"387 688 CURVE SMOOTH",
"404 688 OFFCURVE",
"417 675 OFFCURVE",
"417 658 CURVE SMOOTH",
"417 641 OFFCURVE",
"404 628 OFFCURVE",
"387 628 CURVE SMOOTH",
"370 628 OFFCURVE",
"357 641 OFFCURVE",
"357 658 CURVE SMOOTH"
);
},
{
closed = 1;
nodes = (
"437 644 OFFCURVE",
"451 658 OFFCURVE",
"467 658 CURVE SMOOTH",
"484 658 OFFCURVE",
"497 644 OFFCURVE",
"497 628 CURVE SMOOTH",
"497 611 OFFCURVE",
"484 598 OFFCURVE",
"467 598 CURVE SMOOTH",
"451 598 OFFCURVE",
"437 611 OFFCURVE",
"437 628 CURVE SMOOTH"
);
},
{
closed = 1;
nodes = (
"497 553 OFFCURVE",
"511 539 OFFCURVE",
"527 539 CURVE SMOOTH",
"543 539 OFFCURVE",
"557 553 OFFCURVE",
"557 569 CURVE SMOOTH",
"557 584 OFFCURVE",
"543 599 OFFCURVE",
"527 599 CURVE SMOOTH",
"511 599 OFFCURVE",
"497 584 OFFCURVE",
"497 569 CURVE SMOOTH"
);
},
{
closed = 1;
nodes = (
"333 641 OFFCURVE",
"320 628 OFFCURVE",
"303 628 CURVE SMOOTH",
"286 628 OFFCURVE",
"273 641 OFFCURVE",
"273 658 CURVE SMOOTH",
"273 675 OFFCURVE",
"286 688 OFFCURVE",
"303 688 CURVE SMOOTH",
"320 688 OFFCURVE",
"333 675 OFFCURVE",
"333 658 CURVE SMOOTH"
);
},
{
closed = 1;
nodes = (
"253 606 OFFCURVE",
"238 592 OFFCURVE",
"220 592 CURVE SMOOTH",
"201 592 OFFCURVE",
"187 606 OFFCURVE",
"187 625 CURVE SMOOTH",
"187 643 OFFCURVE",
"201 658 OFFCURVE",
"220 658 CURVE SMOOTH",
"238 658 OFFCURVE",
"253 643 OFFCURVE",
"253 625 CURVE SMOOTH"
);
},
{
closed = 1;
nodes = (
"188 577 OFFCURVE",
"173 593 OFFCURVE",
"155 593 CURVE SMOOTH",
"137 593 OFFCURVE",
"122 577 OFFCURVE",
"122 560 CURVE SMOOTH",
"122 542 OFFCURVE",
"137 527 OFFCURVE",
"155 527 CURVE SMOOTH",
"173 527 OFFCURVE",
"188 542 OFFCURVE",
"188 560 CURVE SMOOTH"
);
},
{
closed = 1;
nodes = (
"152 496 OFFCURVE",
"136 511 OFFCURVE",
"116 511 CURVE SMOOTH",
"96 511 OFFCURVE",
"82 496 OFFCURVE",
"82 477 CURVE SMOOTH",
"82 458 OFFCURVE",
"96 442 OFFCURVE",
"116 442 CURVE SMOOTH",
"136 442 OFFCURVE",
"152 458 OFFCURVE",
"152 477 CURVE SMOOTH"
);
},
{
closed = 1;
nodes = (
"119 349 OFFCURVE",
"135 365 OFFCURVE",
"135 384 CURVE SMOOTH",
"135 403 OFFCURVE",
"119 419 OFFCURVE",
"100 419 CURVE SMOOTH",
"81 419 OFFCURVE",
"65 403 OFFCURVE",
"65 384 CURVE SMOOTH",
"65 365 OFFCURVE",
"81 349 OFFCURVE",
"100 349 CURVE SMOOTH"
);
},
{
closed = 1;
nodes = (
"357 33 OFFCURVE",
"370 46 OFFCURVE",
"387 46 CURVE SMOOTH",
"404 46 OFFCURVE",
"417 33 OFFCURVE",
"417 16 CURVE SMOOTH",
"417 -1 OFFCURVE",
"404 -14 OFFCURVE",
"387 -14 CURVE SMOOTH",
"370 -14 OFFCURVE",
"357 -1 OFFCURVE",
"357 16 CURVE SMOOTH"
);
},
{
closed = 1;
nodes = (
"438 67 OFFCURVE",
"453 81 OFFCURVE",
"470 81 CURVE SMOOTH",
"488 81 OFFCURVE",
"502 67 OFFCURVE",
"502 49 CURVE SMOOTH",
"502 32 OFFCURVE",
"488 17 OFFCURVE",
"470 17 CURVE SMOOTH",
"453 17 OFFCURVE",
"438 32 OFFCURVE",
"438 49 CURVE SMOOTH"
);
},
{
closed = 1;
nodes = (
"503 97 OFFCURVE",
"517 82 OFFCURVE",
"533 82 CURVE SMOOTH",
"549 82 OFFCURVE",
"563 97 OFFCURVE",
"563 112 CURVE SMOOTH",
"563 127 OFFCURVE",
"549 142 OFFCURVE",
"533 142 CURVE SMOOTH",
"517 142 OFFCURVE",
"503 128 OFFCURVE",
"503 112 CURVE SMOOTH"
);
},
{
closed = 1;
nodes = (
"333 -1 OFFCURVE",
"320 -14 OFFCURVE",
"303 -14 CURVE SMOOTH",
"286 -14 OFFCURVE",
"273 -1 OFFCURVE",
"273 16 CURVE SMOOTH",
"273 33 OFFCURVE",
"286 46 OFFCURVE",
"303 46 CURVE SMOOTH",
"320 46 OFFCURVE",
"333 33 OFFCURVE",
"333 16 CURVE SMOOTH"
);
},
{
closed = 1;
nodes = (
"253 31 OFFCURVE",
"238 16 OFFCURVE",
"220 16 CURVE SMOOTH",
"201 16 OFFCURVE",
"187 31 OFFCURVE",
"187 49 CURVE SMOOTH",
"187 68 OFFCURVE",
"201 82 OFFCURVE",
"220 82 CURVE SMOOTH",
"238 82 OFFCURVE",
"253 68 OFFCURVE",
"253 49 CURVE SMOOTH"
);
},
{
closed = 1;
nodes = (
"188 132 OFFCURVE",
"173 147 OFFCURVE",
"155 147 CURVE SMOOTH",
"137 147 OFFCURVE",
"122 132 OFFCURVE",
"122 114 CURVE SMOOTH",
"122 97 OFFCURVE",
"137 81 OFFCURVE",
"155 81 CURVE SMOOTH",
"173 81 OFFCURVE",
"188 97 OFFCURVE",
"188 114 CURVE SMOOTH"
);
},
{
closed = 1;
nodes = (
"152 216 OFFCURVE",
"136 232 OFFCURVE",
"116 232 CURVE SMOOTH",
"96 232 OFFCURVE",
"82 216 OFFCURVE",
"82 197 CURVE SMOOTH",
"82 178 OFFCURVE",
"96 163 OFFCURVE",
"116 163 CURVE SMOOTH",
"136 163 OFFCURVE",
"152 178 OFFCURVE",
"152 197 CURVE SMOOTH"
);
},
{
closed = 1;
nodes = (
"81 325 OFFCURVE",
"65 309 OFFCURVE",
"65 290 CURVE SMOOTH",
"65 271 OFFCURVE",
"81 255 OFFCURVE",
"100 255 CURVE SMOOTH",
"119 255 OFFCURVE",
"135 271 OFFCURVE",
"135 290 CURVE SMOOTH",
"135 309 OFFCURVE",
"119 325 OFFCURVE",
"100 325 CURVE SMOOTH"
);
},
{
closed = 1;
nodes = (
"497 471 OFFCURVE",
"511 457 OFFCURVE",
"527 457 CURVE SMOOTH",
"543 457 OFFCURVE",
"557 471 OFFCURVE",
"557 487 CURVE SMOOTH",
"557 502 OFFCURVE",
"543 517 OFFCURVE",
"527 517 CURVE SMOOTH",
"511 517 OFFCURVE",
"497 502 OFFCURVE",
"497 487 CURVE SMOOTH"
);
}
);
width = 633;
}
);
leftMetricsKey = O;
unicode = 0043;
},
{
glyphname = D;
lastChange = "2021-09-01 16:58:44 +0000";
layers = (
{
background = {
paths = (
{
closed = 1;
nodes = (
"114 363 OFFCURVE",
"133 344 OFFCURVE",
"156 344 CURVE SMOOTH",
"179 344 OFFCURVE",
"198 363 OFFCURVE",
"198 386 CURVE SMOOTH",
"198 410 OFFCURVE",
"179 428 OFFCURVE",
"156 428 CURVE SMOOTH",
"133 428 OFFCURVE",
"114 410 OFFCURVE",
"114 386 CURVE SMOOTH"
);
},
{
closed = 1;
nodes = (
"114 21 OFFCURVE",
"133 2 OFFCURVE",
"156 2 CURVE SMOOTH",
"179 2 OFFCURVE",
"198 21 OFFCURVE",
"198 44 CURVE SMOOTH",
"198 68 OFFCURVE",
"179 86 OFFCURVE",
"156 86 CURVE SMOOTH",
"133 86 OFFCURVE",
"114 68 OFFCURVE",
"114 44 CURVE SMOOTH"
);
},
{
closed = 1;
nodes = (
"114 137 OFFCURVE",
"133 118 OFFCURVE",
"156 118 CURVE SMOOTH",
"179 118 OFFCURVE",
"198 137 OFFCURVE",
"198 160 CURVE SMOOTH",
"198 184 OFFCURVE",
"179 202 OFFCURVE",
"156 202 CURVE SMOOTH",
"133 202 OFFCURVE",
"114 184 OFFCURVE",
"114 160 CURVE SMOOTH"
);
},
{
closed = 1;
nodes = (
"114 252 OFFCURVE",
"133 233 OFFCURVE",
"156 233 CURVE SMOOTH",
"179 233 OFFCURVE",
"198 252 OFFCURVE",
"198 275 CURVE SMOOTH",
"198 299 OFFCURVE",
"179 317 OFFCURVE",
"156 317 CURVE SMOOTH",
"133 317 OFFCURVE",
"114 299 OFFCURVE",
"114 275 CURVE SMOOTH"
);
},
{
closed = 1;
nodes = (
"114 476 OFFCURVE",
"133 457 OFFCURVE",
"156 457 CURVE SMOOTH",
"179 457 OFFCURVE",
"198 476 OFFCURVE",
"198 499 CURVE SMOOTH",
"198 523 OFFCURVE",
"179 541 OFFCURVE",
"156 541 CURVE SMOOTH",
"133 541 OFFCURVE",
"114 523 OFFCURVE",
"114 499 CURVE SMOOTH"
);
},
{
closed = 1;
nodes = (
"114 587 OFFCURVE",
"133 568 OFFCURVE",
"156 568 CURVE SMOOTH",
"179 568 OFFCURVE",
"198 587 OFFCURVE",
"198 610 CURVE SMOOTH",
"198 634 OFFCURVE",
"179 652 OFFCURVE",
"156 652 CURVE SMOOTH",
"133 652 OFFCURVE",
"114 634 OFFCURVE",
"114 610 CURVE SMOOTH"
);
},
{
closed = 1;
nodes = (
"230 50 OFFCURVE",
"243 63 OFFCURVE",
"260 63 CURVE SMOOTH",
"276 63 OFFCURVE",
"290 50 OFFCURVE",
"290 33 CURVE SMOOTH",
"290 17 OFFCURVE",
"276 3 OFFCURVE",
"260 3 CURVE SMOOTH",
"244 3 OFFCURVE",
"230 18 OFFCURVE",
"230 33 CURVE SMOOTH"
);
},
{
closed = 1;
nodes = (
"230 635 OFFCURVE",
"243 648 OFFCURVE",
"260 648 CURVE SMOOTH",
"276 648 OFFCURVE",
"290 635 OFFCURVE",
"290 618 CURVE SMOOTH",
"290 602 OFFCURVE",
"276 588 OFFCURVE",
"260 588 CURVE SMOOTH",
"244 588 OFFCURVE",
"230 603 OFFCURVE",
"230 618 CURVE SMOOTH"
);
},
{
closed = 1;
nodes = (
"327 47 OFFCURVE",
"340 60 OFFCURVE",
"357 60 CURVE SMOOTH",
"373 60 OFFCURVE",
"387 47 OFFCURVE",
"387 30 CURVE SMOOTH",
"387 14 OFFCURVE",
"373 0 OFFCURVE",
"357 0 CURVE SMOOTH",
"341 0 OFFCURVE",
"327 15 OFFCURVE",
"327 30 CURVE SMOOTH"
);
},
{
closed = 1;
nodes = (
"336 641 OFFCURVE",
"349 654 OFFCURVE",
"366 654 CURVE SMOOTH",
"382 654 OFFCURVE",
"396 641 OFFCURVE",
"396 624 CURVE SMOOTH",
"396 608 OFFCURVE",
"382 594 OFFCURVE",
"366 594 CURVE SMOOTH",
"350 594 OFFCURVE",
"336 609 OFFCURVE",
"336 624 CURVE SMOOTH"
);
},
{
closed = 1;
nodes = (
"416 593 OFFCURVE",
"435 610 OFFCURVE",
"456 610 CURVE SMOOTH",
"478 610 OFFCURVE",
"494 592 OFFCURVE",
"494 571 CURVE SMOOTH",
"494 550 OFFCURVE",
"477 532 OFFCURVE",
"455 532 CURVE SMOOTH",
"434 532 OFFCURVE",
"416 551 OFFCURVE",
"416 572 CURVE SMOOTH"
);
},
{
closed = 1;
nodes = (
"418 86 OFFCURVE",
"437 103 OFFCURVE",
"458 103 CURVE SMOOTH",
"480 103 OFFCURVE",
"496 85 OFFCURVE",
"496 64 CURVE SMOOTH",
"496 43 OFFCURVE",
"479 25 OFFCURVE",
"457 25 CURVE SMOOTH",
"436 25 OFFCURVE",
"418 44 OFFCURVE",
"418 65 CURVE SMOOTH"
);
},
{
closed = 1;
nodes = (
"473 460 OFFCURVE",
"492 441 OFFCURVE",
"515 441 CURVE SMOOTH",
"538 441 OFFCURVE",
"557 459 OFFCURVE",
"557 483 CURVE SMOOTH",
"557 506 OFFCURVE",
"539 525 OFFCURVE",
"516 525 CURVE SMOOTH",
"493 525 OFFCURVE",
"473 507 OFFCURVE",
"473 484 CURVE SMOOTH"
);
},
{
closed = 1;
nodes = (
"480 129 OFFCURVE",
"499 110 OFFCURVE",
"522 110 CURVE SMOOTH",
"545 110 OFFCURVE",
"564 128 OFFCURVE",
"564 152 CURVE SMOOTH",
"564 175 OFFCURVE",
"546 194 OFFCURVE",
"523 194 CURVE SMOOTH",
"500 194 OFFCURVE",
"480 176 OFFCURVE",
"480 153 CURVE SMOOTH"
);
},
{
closed = 1;
nodes = (
"491 237 OFFCURVE",
"510 218 OFFCURVE",
"533 218 CURVE SMOOTH",
"556 218 OFFCURVE",
"575 236 OFFCURVE",
"575 260 CURVE SMOOTH",
"575 283 OFFCURVE",
"557 302 OFFCURVE",
"534 302 CURVE SMOOTH",
"511 302 OFFCURVE",
"491 284 OFFCURVE",
"491 261 CURVE SMOOTH"
);
},
{
closed = 1;
nodes = (
"492 349 OFFCURVE",
"511 330 OFFCURVE",
"534 330 CURVE SMOOTH",
"557 330 OFFCURVE",
"576 348 OFFCURVE",
"576 372 CURVE SMOOTH",
"576 395 OFFCURVE",
"558 414 OFFCURVE",
"535 414 CURVE SMOOTH",
"512 414 OFFCURVE",
"492 396 OFFCURVE",
"492 373 CURVE SMOOTH"
);
},
{
closed = 1;
nodes = (
"650 398 OFFCURVE",
"665 413 OFFCURVE",
"683 413 CURVE SMOOTH",
"702 413 OFFCURVE",
"715 398 OFFCURVE",
"715 381 CURVE SMOOTH",
"715 363 OFFCURVE",
"702 348 OFFCURVE",
"683 348 CURVE SMOOTH",
"665 348 OFFCURVE",
"650 362 OFFCURVE",
"650 381 CURVE SMOOTH"
);
},
{
closed = 1;
nodes = (
"650 101 OFFCURVE",
"665 87 OFFCURVE",
"683 87 CURVE SMOOTH",
"702 87 OFFCURVE",
"715 101 OFFCURVE",
"715 120 CURVE SMOOTH",
"715 137 OFFCURVE",
"702 152 OFFCURVE",
"683 152 CURVE SMOOTH",
"665 152 OFFCURVE",
"650 136 OFFCURVE",
"650 120 CURVE SMOOTH"
);
},
{
closed = 1;
nodes = (
"650 224 OFFCURVE",
"665 239 OFFCURVE",
"683 239 CURVE SMOOTH",
"702 239 OFFCURVE",
"715 224 OFFCURVE",
"715 207 CURVE SMOOTH",
"715 189 OFFCURVE",
"702 174 OFFCURVE",
"683 174 CURVE SMOOTH",
"665 174 OFFCURVE",
"650 188 OFFCURVE",
"650 207 CURVE SMOOTH"
);
},
{
closed = 1;
nodes = (
"650 311 OFFCURVE",
"664 326 OFFCURVE",
"683 326 CURVE SMOOTH",
"701 326 OFFCURVE",
"715 311 OFFCURVE",
"715 294 CURVE SMOOTH",
"715 276 OFFCURVE",
"701 261 OFFCURVE",
"683 261 CURVE SMOOTH",
"665 261 OFFCURVE",
"650 275 OFFCURVE",
"650 294 CURVE SMOOTH"
);
},
{
closed = 1;
nodes = (
"650 485 OFFCURVE",
"665 500 OFFCURVE",
"683 500 CURVE SMOOTH",
"701 500 OFFCURVE",
"715 485 OFFCURVE",
"715 468 CURVE SMOOTH",
"715 450 OFFCURVE",
"701 435 OFFCURVE",
"683 435 CURVE SMOOTH",
"666 435 OFFCURVE",
"650 450 OFFCURVE",
"650 468 CURVE SMOOTH"
);
},
{
closed = 1;
nodes = (
"650 572 OFFCURVE",
"665 587 OFFCURVE",
"683 587 CURVE SMOOTH",
"702 587 OFFCURVE",
"715 572 OFFCURVE",
"715 555 CURVE SMOOTH",
"715 537 OFFCURVE",
"702 522 OFFCURVE",
"683 522 CURVE SMOOTH",
"665 522 OFFCURVE",
"650 536 OFFCURVE",
"650 555 CURVE SMOOTH"
);
},
{
closed = 1;
nodes = (
"650 659 OFFCURVE",
"665 674 OFFCURVE",
"683 674 CURVE SMOOTH",
"701 674 OFFCURVE",
"715 659 OFFCURVE",
"715 642 CURVE SMOOTH",
"715 624 OFFCURVE",
"701 609 OFFCURVE",
"683 609 CURVE SMOOTH",
"666 609 OFFCURVE",
"650 624 OFFCURVE",
"650 642 CURVE SMOOTH"
);
},
{
closed = 1;
nodes = (
"736 14 OFFCURVE",
"750 0 OFFCURVE",
"766 0 CURVE SMOOTH",
"782 0 OFFCURVE",
"796 14 OFFCURVE",
"796 30 CURVE SMOOTH",
"796 46 OFFCURVE",
"782 60 OFFCURVE",
"766 60 CURVE SMOOTH",
"750 60 OFFCURVE",
"736 46 OFFCURVE",
"736 30 CURVE SMOOTH"
);
},
{
closed = 1;
nodes = (
"817 14 OFFCURVE",
"831 0 OFFCURVE",
"847 0 CURVE SMOOTH",
"863 0 OFFCURVE",
"877 14 OFFCURVE",
"877 30 CURVE SMOOTH",
"877 46 OFFCURVE",
"863 60 OFFCURVE",
"847 60 CURVE SMOOTH",
"831 60 OFFCURVE",
"817 46 OFFCURVE",
"817 30 CURVE SMOOTH"
);
},
{
closed = 1;
nodes = (
"978 24 OFFCURVE",
"993 9 OFFCURVE",
"1010 9 CURVE SMOOTH",
"1027 9 OFFCURVE",
"1042 24 OFFCURVE",
"1042 41 CURVE SMOOTH",
"1042 58 OFFCURVE",
"1027 73 OFFCURVE",
"1010 73 CURVE SMOOTH",
"993 73 OFFCURVE",
"978 58 OFFCURVE",
"978 41 CURVE SMOOTH"
);
},
{
closed = 1;
nodes = (
"1094 136 OFFCURVE",
"1110 120 OFFCURVE",
"1129 120 CURVE SMOOTH",
"1148 120 OFFCURVE",
"1163 136 OFFCURVE",
"1163 155 CURVE SMOOTH",
"1163 174 OFFCURVE",
"1148 190 OFFCURVE",
"1129 190 CURVE SMOOTH",
"1110 190 OFFCURVE",
"1094 174 OFFCURVE",
"1094 155 CURVE SMOOTH"
);
},
{
closed = 1;
nodes = (
"898 14 OFFCURVE",
"912 0 OFFCURVE",
"928 0 CURVE SMOOTH",
"944 0 OFFCURVE",
"958 14 OFFCURVE",
"958 30 CURVE SMOOTH",
"958 46 OFFCURVE",
"944 60 OFFCURVE",
"928 60 CURVE SMOOTH",
"912 60 OFFCURVE",
"898 46 OFFCURVE",
"898 30 CURVE SMOOTH"
);
},
{
closed = 1;
nodes = (
"650 14 OFFCURVE",
"665 0 OFFCURVE",
"683 0 CURVE SMOOTH",
"702 0 OFFCURVE",
"715 14 OFFCURVE",
"715 33 CURVE SMOOTH",
"715 50 OFFCURVE",
"702 65 OFFCURVE",
"683 65 CURVE SMOOTH",
"665 65 OFFCURVE",
"650 49 OFFCURVE",
"650 33 CURVE SMOOTH"
);
},
{
closed = 1;
nodes = (
"1053 61 OFFCURVE",
"1068 46 OFFCURVE",
"1086 46 CURVE SMOOTH",
"1104 46 OFFCURVE",
"1119 61 OFFCURVE",
"1119 79 CURVE SMOOTH",
"1119 97 OFFCURVE",
"1104 112 OFFCURVE",
"1086 112 CURVE SMOOTH",
"1068 112 OFFCURVE",
"1053 97 OFFCURVE",
"1053 79 CURVE SMOOTH"
);
},
{
closed = 1;
nodes = (
"1104 226 OFFCURVE",
"1120 210 OFFCURVE",
"1139 210 CURVE SMOOTH",
"1158 210 OFFCURVE",
"1173 226 OFFCURVE",
"1173 245 CURVE SMOOTH",
"1173 264 OFFCURVE",
"1158 280 OFFCURVE",
"1139 280 CURVE SMOOTH",
"1120 280 OFFCURVE",
"1104 264 OFFCURVE",
"1104 245 CURVE SMOOTH"
);
},
{
closed = 1;
nodes = (
"1108 318 OFFCURVE",
"1124 302 OFFCURVE",
"1143 302 CURVE SMOOTH",
"1162 302 OFFCURVE",
"1177 318 OFFCURVE",
"1177 337 CURVE SMOOTH",
"1177 356 OFFCURVE",
"1162 372 OFFCURVE",
"1143 372 CURVE SMOOTH",
"1124 372 OFFCURVE",
"1108 356 OFFCURVE",
"1108 337 CURVE SMOOTH"
);
},
{
closed = 1;
nodes = (
"736 628 OFFCURVE",
"750 614 OFFCURVE",
"766 614 CURVE SMOOTH",
"782 614 OFFCURVE",
"796 628 OFFCURVE",
"796 644 CURVE SMOOTH",
"796 660 OFFCURVE",
"782 674 OFFCURVE",
"766 674 CURVE SMOOTH",
"750 674 OFFCURVE",
"736 660 OFFCURVE",
"736 644 CURVE SMOOTH"
);
},
{
closed = 1;
nodes = (
"817 628 OFFCURVE",
"831 614 OFFCURVE",
"847 614 CURVE SMOOTH",
"863 614 OFFCURVE",
"877 628 OFFCURVE",
"877 644 CURVE SMOOTH",
"877 660 OFFCURVE",
"863 674 OFFCURVE",
"847 674 CURVE SMOOTH",
"831 674 OFFCURVE",
"817 660 OFFCURVE",
"817 644 CURVE SMOOTH"
);
},
{
closed = 1;
nodes = (
"978 616 OFFCURVE",
"993 601 OFFCURVE",
"1010 601 CURVE SMOOTH",
"1027 601 OFFCURVE",
"1042 616 OFFCURVE",
"1042 633 CURVE SMOOTH",
"1042 650 OFFCURVE",
"1027 665 OFFCURVE",
"1010 665 CURVE SMOOTH",
"993 665 OFFCURVE",
"978 650 OFFCURVE",
"978 633 CURVE SMOOTH"
);
},
{
closed = 1;
nodes = (
"1094 500 OFFCURVE",
"1110 484 OFFCURVE",
"1129 484 CURVE SMOOTH",
"1148 484 OFFCURVE",
"1163 500 OFFCURVE",
"1163 519 CURVE SMOOTH",
"1163 538 OFFCURVE",
"1148 554 OFFCURVE",
"1129 554 CURVE SMOOTH",
"1110 554 OFFCURVE",
"1094 538 OFFCURVE",
"1094 519 CURVE SMOOTH"
);
},
{
closed = 1;
nodes = (
"898 628 OFFCURVE",
"912 614 OFFCURVE",
"928 614 CURVE SMOOTH",
"944 614 OFFCURVE",
"958 628 OFFCURVE",
"958 644 CURVE SMOOTH",
"958 660 OFFCURVE",
"944 674 OFFCURVE",
"928 674 CURVE SMOOTH",
"912 674 OFFCURVE",
"898 660 OFFCURVE",
"898 644 CURVE SMOOTH"
);
},
{
closed = 1;
nodes = (
"1053 577 OFFCURVE",
"1068 562 OFFCURVE",
"1086 562 CURVE SMOOTH",
"1104 562 OFFCURVE",
"1119 577 OFFCURVE",
"1119 595 CURVE SMOOTH",
"1119 613 OFFCURVE",
"1104 628 OFFCURVE",
"1086 628 CURVE SMOOTH",
"1068 628 OFFCURVE",
"1053 613 OFFCURVE",
"1053 595 CURVE SMOOTH"
);
},
{
closed = 1;
nodes = (
"1104 410 OFFCURVE",
"1120 394 OFFCURVE",
"1139 394 CURVE SMOOTH",
"1158 394 OFFCURVE",
"1173 410 OFFCURVE",
"1173 429 CURVE SMOOTH",
"1173 448 OFFCURVE",
"1158 464 OFFCURVE",
"1139 464 CURVE SMOOTH",
"1120 464 OFFCURVE",
"1104 448 OFFCURVE",
"1104 429 CURVE SMOOTH"
);
}
);
};
layerId = "197054AD-3E11-4C46-98D6-E9AEE179F0DA";
paths = (
{
closed = 1;
nodes = (
"70 398 OFFCURVE",
"85 413 OFFCURVE",
"103 413 CURVE SMOOTH",
"122 413 OFFCURVE",
"135 398 OFFCURVE",
"135 381 CURVE SMOOTH",
"135 363 OFFCURVE",
"122 348 OFFCURVE",
"103 348 CURVE SMOOTH",
"85 348 OFFCURVE",
"70 362 OFFCURVE",
"70 381 CURVE SMOOTH"
);
},
{
closed = 1;
nodes = (
"70 101 OFFCURVE",
"85 87 OFFCURVE",
"103 87 CURVE SMOOTH",
"122 87 OFFCURVE",
"135 101 OFFCURVE",
"135 120 CURVE SMOOTH",
"135 137 OFFCURVE",
"122 152 OFFCURVE",
"103 152 CURVE SMOOTH",
"85 152 OFFCURVE",
"70 136 OFFCURVE",
"70 120 CURVE SMOOTH"
);
},
{
closed = 1;
nodes = (
"70 224 OFFCURVE",
"85 239 OFFCURVE",
"103 239 CURVE SMOOTH",
"122 239 OFFCURVE",
"135 224 OFFCURVE",
"135 207 CURVE SMOOTH",
"135 189 OFFCURVE",
"122 174 OFFCURVE",
"103 174 CURVE SMOOTH",
"85 174 OFFCURVE",
"70 188 OFFCURVE",
"70 207 CURVE SMOOTH"
);
},
{
closed = 1;
nodes = (
"70 311 OFFCURVE",
"84 326 OFFCURVE",
"103 326 CURVE SMOOTH",
"121 326 OFFCURVE",
"135 311 OFFCURVE",
"135 294 CURVE SMOOTH",
"135 276 OFFCURVE",
"121 261 OFFCURVE",
"103 261 CURVE SMOOTH",
"85 261 OFFCURVE",
"70 275 OFFCURVE",
"70 294 CURVE SMOOTH"
);
},
{
closed = 1;
nodes = (
"70 485 OFFCURVE",
"85 500 OFFCURVE",
"103 500 CURVE SMOOTH",
"121 500 OFFCURVE",
"135 485 OFFCURVE",
"135 468 CURVE SMOOTH",
"135 450 OFFCURVE",
"121 435 OFFCURVE",
"103 435 CURVE SMOOTH",
"86 435 OFFCURVE",
"70 450 OFFCURVE",
"70 468 CURVE SMOOTH"
);
},
{
closed = 1;
nodes = (
"70 572 OFFCURVE",
"85 587 OFFCURVE",
"103 587 CURVE SMOOTH",
"122 587 OFFCURVE",
"135 572 OFFCURVE",
"135 555 CURVE SMOOTH",
"135 537 OFFCURVE",
"122 522 OFFCURVE",
"103 522 CURVE SMOOTH",
"85 522 OFFCURVE",
"70 536 OFFCURVE",
"70 555 CURVE SMOOTH"
);
},
{
closed = 1;
nodes = (
"70 659 OFFCURVE",
"85 674 OFFCURVE",
"103 674 CURVE SMOOTH",
"121 674 OFFCURVE",
"135 659 OFFCURVE",
"135 642 CURVE SMOOTH",
"135 624 OFFCURVE",
"121 609 OFFCURVE",
"103 609 CURVE SMOOTH",
"86 609 OFFCURVE",
"70 624 OFFCURVE",
"70 642 CURVE SMOOTH"
);
},
{
closed = 1;
nodes = (
"70 14 OFFCURVE",
"85 0 OFFCURVE",
"103 0 CURVE SMOOTH",
"122 0 OFFCURVE",
"135 14 OFFCURVE",
"135 33 CURVE SMOOTH",
"135 50 OFFCURVE",
"122 65 OFFCURVE",
"103 65 CURVE SMOOTH",
"85 65 OFFCURVE",
"70 49 OFFCURVE",
"70 33 CURVE SMOOTH"
);
},
{
closed = 1;
nodes = (
"317 51 OFFCURVE",
"330 64 OFFCURVE",
"347 64 CURVE SMOOTH",
"364 64 OFFCURVE",
"377 51 OFFCURVE",
"377 34 CURVE SMOOTH",
"377 17 OFFCURVE",
"364 4 OFFCURVE",
"347 4 CURVE SMOOTH",
"330 4 OFFCURVE",
"317 17 OFFCURVE",
"317 34 CURVE SMOOTH"
);
},
{
closed = 1;
nodes = (
"395 78 OFFCURVE",
"410 92 OFFCURVE",
"428 92 CURVE SMOOTH",
"447 92 OFFCURVE",
"461 78 OFFCURVE",
"461 59 CURVE SMOOTH",
"461 41 OFFCURVE",
"447 26 OFFCURVE",
"428 26 CURVE SMOOTH",
"410 26 OFFCURVE",
"395 41 OFFCURVE",
"395 59 CURVE SMOOTH"
);
},
{
closed = 1;
nodes = (
"460 103 OFFCURVE",
"475 87 OFFCURVE",
"493 87 CURVE SMOOTH",
"512 87 OFFCURVE",
"526 103 OFFCURVE",
"526 120 CURVE SMOOTH",
"526 138 OFFCURVE",
"511 153 OFFCURVE",
"493 153 CURVE SMOOTH",
"475 153 OFFCURVE",
"460 138 OFFCURVE",
"460 120 CURVE SMOOTH"
);
},
{
closed = 1;
nodes = (
"531 326 OFFCURVE",
"515 310 OFFCURVE",
"515 291 CURVE SMOOTH",
"515 272 OFFCURVE",
"531 256 OFFCURVE",
"550 256 CURVE SMOOTH",
"569 256 OFFCURVE",
"585 272 OFFCURVE",
"585 291 CURVE SMOOTH",
"585 310 OFFCURVE",
"569 326 OFFCURVE",
"550 326 CURVE SMOOTH"
);
},
{
closed = 1;
nodes = (
"155 14 OFFCURVE",
"169 0 OFFCURVE",
"185 0 CURVE SMOOTH",
"201 0 OFFCURVE",
"215 14 OFFCURVE",
"215 30 CURVE SMOOTH",
"215 46 OFFCURVE",
"201 60 OFFCURVE",
"185 60 CURVE SMOOTH",
"169 60 OFFCURVE",
"155 46 OFFCURVE",
"155 30 CURVE SMOOTH"
);
},
{
closed = 1;
nodes = (
"235 14 OFFCURVE",
"249 0 OFFCURVE",
"265 0 CURVE SMOOTH",
"281 0 OFFCURVE",
"295 14 OFFCURVE",
"295 30 CURVE SMOOTH",
"295 46 OFFCURVE",
"281 60 OFFCURVE",
"265 60 CURVE SMOOTH",
"249 60 OFFCURVE",
"235 46 OFFCURVE",
"235 30 CURVE SMOOTH"
);
},
{
closed = 1;
nodes = (
"553 165 OFFCURVE",
"569 181 OFFCURVE",
"569 200 CURVE SMOOTH",
"569 219 OFFCURVE",
"553 235 OFFCURVE",
"534 235 CURVE SMOOTH",
"515 235 OFFCURVE",
"499 219 OFFCURVE",
"499 200 CURVE SMOOTH",
"499 181 OFFCURVE",
"515 165 OFFCURVE",
"534 165 CURVE SMOOTH"
);
},
{
closed = 1;
nodes = (
"317 657 OFFCURVE",
"330 670 OFFCURVE",
"347 670 CURVE SMOOTH",
"364 670 OFFCURVE",
"377 657 OFFCURVE",
"377 640 CURVE SMOOTH",
"377 623 OFFCURVE",
"364 610 OFFCURVE",
"347 610 CURVE SMOOTH",
"330 610 OFFCURVE",
"317 623 OFFCURVE",
"317 640 CURVE SMOOTH"
);
},
{
closed = 1;
nodes = (
"395 633 OFFCURVE",
"410 648 OFFCURVE",
"428 648 CURVE SMOOTH",
"447 648 OFFCURVE",
"461 633 OFFCURVE",
"461 615 CURVE SMOOTH",
"461 596 OFFCURVE",
"447 582 OFFCURVE",
"428 582 CURVE SMOOTH",
"410 582 OFFCURVE",
"395 596 OFFCURVE",
"395 615 CURVE SMOOTH"
);
},
{
closed = 1;
nodes = (
"460 536 OFFCURVE",
"475 521 OFFCURVE",
"493 521 CURVE SMOOTH",
"511 521 OFFCURVE",
"526 536 OFFCURVE",
"526 554 CURVE SMOOTH",
"526 571 OFFCURVE",
"512 587 OFFCURVE",
"493 587 CURVE SMOOTH",
"475 587 OFFCURVE",
"460 571 OFFCURVE",
"460 554 CURVE SMOOTH"
);
},
{
closed = 1;
nodes = (
"569 348 OFFCURVE",
"585 364 OFFCURVE",
"585 383 CURVE SMOOTH",
"585 402 OFFCURVE",
"569 418 OFFCURVE",
"550 418 CURVE SMOOTH",
"531 418 OFFCURVE",
"515 402 OFFCURVE",
"515 383 CURVE SMOOTH",
"515 364 OFFCURVE",
"531 348 OFFCURVE",
"550 348 CURVE SMOOTH"
);
},
{
closed = 1;
nodes = (
"155 628 OFFCURVE",
"169 614 OFFCURVE",
"185 614 CURVE SMOOTH",
"201 614 OFFCURVE",
"215 628 OFFCURVE",
"215 644 CURVE SMOOTH",
"215 660 OFFCURVE",
"201 674 OFFCURVE",
"185 674 CURVE SMOOTH",
"169 674 OFFCURVE",
"155 660 OFFCURVE",
"155 644 CURVE SMOOTH"
);
},
{
closed = 1;
nodes = (
"235 628 OFFCURVE",
"249 614 OFFCURVE",
"265 614 CURVE SMOOTH",
"281 614 OFFCURVE",
"295 628 OFFCURVE",
"295 644 CURVE SMOOTH",
"295 660 OFFCURVE",
"281 674 OFFCURVE",
"265 674 CURVE SMOOTH",
"249 674 OFFCURVE",
"235 660 OFFCURVE",
"235 644 CURVE SMOOTH"
);
},
{
closed = 1;
nodes = (
"515 509 OFFCURVE",
"499 493 OFFCURVE",
"499 474 CURVE SMOOTH",
"499 455 OFFCURVE",
"515 439 OFFCURVE",
"534 439 CURVE SMOOTH",
"554 439 OFFCURVE",
"569 455 OFFCURVE",
"569 474 CURVE SMOOTH",
"569 493 OFFCURVE",
"553 509 OFFCURVE",
"534 509 CURVE SMOOTH"
);
}
);
width = 650;
}
);
unicode = 0044;
},
{
glyphname = F;
lastChange = "2021-09-01 12:39:20 +0000";
layers = (
{
layerId = "197054AD-3E11-4C46-98D6-E9AEE179F0DA";
paths = (
{
closed = 1;
nodes = (
"70 398 OFFCURVE",
"85 413 OFFCURVE",
"103 413 CURVE SMOOTH",
"122 413 OFFCURVE",
"135 398 OFFCURVE",
"135 381 CURVE SMOOTH",
"135 363 OFFCURVE",
"122 348 OFFCURVE",
"103 348 CURVE SMOOTH",
"85 348 OFFCURVE",
"70 362 OFFCURVE",
"70 381 CURVE SMOOTH"
);
},
{
closed = 1;
nodes = (
"70 101 OFFCURVE",
"85 87 OFFCURVE",
"103 87 CURVE SMOOTH",
"122 87 OFFCURVE",
"135 101 OFFCURVE",
"135 120 CURVE SMOOTH",
"135 137 OFFCURVE",
"122 152 OFFCURVE",
"103 152 CURVE SMOOTH",
"85 152 OFFCURVE",
"70 136 OFFCURVE",
"70 120 CURVE SMOOTH"
);
},
{
closed = 1;
nodes = (
"70 224 OFFCURVE",
"85 239 OFFCURVE",
"103 239 CURVE SMOOTH",
"122 239 OFFCURVE",
"135 224 OFFCURVE",
"135 207 CURVE SMOOTH",
"135 189 OFFCURVE",
"122 174 OFFCURVE",
"103 174 CURVE SMOOTH",
"85 174 OFFCURVE",
"70 188 OFFCURVE",
"70 207 CURVE SMOOTH"
);
},
{
closed = 1;
nodes = (
"70 311 OFFCURVE",
"84 326 OFFCURVE",
"103 326 CURVE SMOOTH",
"121 326 OFFCURVE",
"135 311 OFFCURVE",
"135 294 CURVE SMOOTH",
"135 276 OFFCURVE",
"121 261 OFFCURVE",
"103 261 CURVE SMOOTH",
"85 261 OFFCURVE",
"70 275 OFFCURVE",
"70 294 CURVE SMOOTH"
);
},
{
closed = 1;
nodes = (
"70 485 OFFCURVE",
"85 500 OFFCURVE",
"103 500 CURVE SMOOTH",
"121 500 OFFCURVE",
"135 485 OFFCURVE",
"135 468 CURVE SMOOTH",
"135 450 OFFCURVE",
"121 435 OFFCURVE",
"103 435 CURVE SMOOTH",
"86 435 OFFCURVE",
"70 450 OFFCURVE",
"70 468 CURVE SMOOTH"
);
},
{
closed = 1;
nodes = (
"70 572 OFFCURVE",
"85 587 OFFCURVE",
"103 587 CURVE SMOOTH",
"122 587 OFFCURVE",
"135 572 OFFCURVE",
"135 555 CURVE SMOOTH",
"135 537 OFFCURVE",
"122 522 OFFCURVE",
"103 522 CURVE SMOOTH",
"85 522 OFFCURVE",
"70 536 OFFCURVE",
"70 555 CURVE SMOOTH"
);
},
{
closed = 1;
nodes = (
"157 332 OFFCURVE",
"171 318 OFFCURVE",
"187 318 CURVE SMOOTH",
"203 318 OFFCURVE",
"217 332 OFFCURVE",
"217 348 CURVE SMOOTH",
"217 365 OFFCURVE",
"203 378 OFFCURVE",
"187 378 CURVE SMOOTH",
"171 378 OFFCURVE",
"157 364 OFFCURVE",
"157 348 CURVE SMOOTH"
);
},
{
closed = 1;
nodes = (
"239 332 OFFCURVE",
"253 318 OFFCURVE",
"269 318 CURVE SMOOTH",
"285 318 OFFCURVE",
"299 332 OFFCURVE",
"299 348 CURVE SMOOTH",
"299 364 OFFCURVE",
"285 378 OFFCURVE",
"269 378 CURVE SMOOTH",
"253 378 OFFCURVE",
"239 364 OFFCURVE",
"239 348 CURVE SMOOTH"
);
},
{
closed = 1;
nodes = (
"321 332 OFFCURVE",
"335 318 OFFCURVE",
"351 318 CURVE SMOOTH",
"367 318 OFFCURVE",
"381 332 OFFCURVE",
"381 348 CURVE SMOOTH",
"381 364 OFFCURVE",
"367 378 OFFCURVE",
"351 378 CURVE SMOOTH",
"335 378 OFFCURVE",
"321 364 OFFCURVE",
"321 348 CURVE SMOOTH"
);
},
{
closed = 1;
nodes = (
"403 332 OFFCURVE",
"417 318 OFFCURVE",
"433 318 CURVE SMOOTH",
"449 318 OFFCURVE",
"463 332 OFFCURVE",
"463 348 CURVE SMOOTH",
"463 364 OFFCURVE",
"449 378 OFFCURVE",
"433 378 CURVE SMOOTH",
"417 378 OFFCURVE",
"403 364 OFFCURVE",
"403 348 CURVE SMOOTH"
);
},
{
closed = 1;
nodes = (
"120 0 OFFCURVE",
"135 15 OFFCURVE",
"135 33 CURVE SMOOTH",
"135 50 OFFCURVE",
"120 65 OFFCURVE",
"103 65 CURVE SMOOTH",
"85 65 OFFCURVE",
"70 50 OFFCURVE",
"70 33 CURVE SMOOTH",
"70 15 OFFCURVE",
"85 0 OFFCURVE",
"103 0 CURVE SMOOTH"
);
},
{
closed = 1;
nodes = (
"198 628 OFFCURVE",
"212 614 OFFCURVE",
"228 614 CURVE SMOOTH",
"244 614 OFFCURVE",
"258 627 OFFCURVE",
"258 644 CURVE SMOOTH",
"258 660 OFFCURVE",
"244 674 OFFCURVE",
"228 674 CURVE SMOOTH",
"212 674 OFFCURVE",
"198 660 OFFCURVE",
"198 644 CURVE SMOOTH"
);
},
{
closed = 1;
nodes = (
"280 628 OFFCURVE",
"294 614 OFFCURVE",
"310 614 CURVE SMOOTH",
"326 614 OFFCURVE",
"340 628 OFFCURVE",
"340 644 CURVE SMOOTH",
"340 660 OFFCURVE",
"326 674 OFFCURVE",
"310 674 CURVE SMOOTH",
"294 674 OFFCURVE",
"280 660 OFFCURVE",
"280 644 CURVE SMOOTH"
);
},
{
closed = 1;
nodes = (
"362 628 OFFCURVE",
"376 614 OFFCURVE",
"392 614 CURVE SMOOTH",
"408 614 OFFCURVE",
"422 628 OFFCURVE",
"422 644 CURVE SMOOTH",
"422 660 OFFCURVE",
"408 674 OFFCURVE",
"392 674 CURVE SMOOTH",
"376 674 OFFCURVE",
"362 660 OFFCURVE",
"362 644 CURVE SMOOTH"
);
},
{
closed = 1;
nodes = (
"444 628 OFFCURVE",
"458 614 OFFCURVE",
"474 614 CURVE SMOOTH",
"490 614 OFFCURVE",
"504 628 OFFCURVE",
"504 644 CURVE SMOOTH",
"504 660 OFFCURVE",
"490 674 OFFCURVE",
"474 674 CURVE SMOOTH",
"458 674 OFFCURVE",
"444 660 OFFCURVE",
"444 644 CURVE SMOOTH"
);
},
{
closed = 1;
nodes = (
"125 665 OFFCURVE",
"110 650 OFFCURVE",
"110 632 CURVE SMOOTH",
"110 615 OFFCURVE",
"125 600 OFFCURVE",
"143 600 CURVE SMOOTH",
"160 600 OFFCURVE",
"175 615 OFFCURVE",
"175 632 CURVE SMOOTH",
"175 650 OFFCURVE",
"160 665 OFFCURVE",
"143 665 CURVE SMOOTH"
);
}
);
width = 549;
}
);
unicode = 0046;
},
